g AuraCylinder
v 0.7067448 0.001955047 -0.7067448
v 0.7067448 2.000978 -0.7067448
v 0.5014663 2.000978 -0.8680352
v 0.5014663 0.001955047 -0.8680352
v 0.257087 2.000978 -0.9657869
v 0.257087 0.001955047 -0.9657869
v 0.8680352 0.001955047 -0.5014663
v 0.8680352 2.000978 -0.5014663
v 0.9657869 0.001955047 -0.257087
v 0.9657869 2.000978 -0.257087
v -0.001955047 2.000978 -1
v -0.001955047 0.001955047 -1
v 1 0.001955047 0.001955047
v 1 2.000978 0.001955047
v 0.9657869 0.001955047 0.2609971
v 0.9657869 2.000978 0.2609971
v 0.8680352 0.001955047 0.5004888
v 0.8680352 2.000978 0.5004888
v 0.7067448 0.001955047 0.7057674
v 0.7067448 2.000978 0.7057674
v 0.5014663 0.001955047 0.8670577
v 0.5014663 2.000978 0.8670577
v 0.257087 0.001955047 0.9648094
v 0.257087 2.000978 0.9648094
v -0.001955047 0.001955047 0.9990225
v -0.001955047 2.000978 0.9990225
v -0.2609971 0.001955047 0.9648094
v -0.2609971 2.000978 0.9648094
v -0.5004888 0.001955047 0.8670577
v -0.5004888 2.000978 0.8670577
v -0.7057674 0.001955047 0.7057674
v -0.7057674 2.000978 0.7057674
v -0.8670577 0.001955047 0.5004888
v -0.8670577 2.000978 0.5004888
v -0.9648094 0.001955047 0.2609971
v -0.9648094 2.000978 0.2609971
v -0.9990225 0.001955047 0.001955047
v -0.9990225 2.000978 0.001955047
v -0.9648094 0.001955047 -0.257087
v -0.9648094 2.000978 -0.257087
v -0.8670577 0.001955047 -0.5014663
v -0.8670577 2.000978 -0.5014663
v -0.7057674 0.001955047 -0.7067448
v -0.7057674 2.000978 -0.7067448
v -0.5004888 0.001955047 -0.8680352
v -0.5004888 2.000978 -0.8680352
v -0.2609971 0.001955047 -0.9657869
v -0.2609971 2.000978 -0.9657869
v -0.001955047 0.001955047 -1
v -0.001955047 2.000978 -1
v -0.9648094 4 0.2609971
v -0.9990225 4 0.001955047
v -0.9648094 4 -0.257087
v -0.8670577 4 -0.5014663
v -0.7057674 4 -0.7067448
v -0.2609971 4 -0.9657869
v -0.001955047 4 -1
v -0.5004888 4 -0.8680352
v -0.8670577 4 0.5004888
v -0.7057674 4 0.7057674
v -0.5004888 4 0.8670577
v -0.2609971 4 0.9648094
v -0.001955047 4 0.9990225
v 0.257087 4 0.9648094
v 0.5014663 4 0.8670577
v 0.7067448 4 0.7057674
v 0.8680352 4 0.5004888
v 0.9657869 4 0.2609971
v 1 4 0.001955047
v 0.9657869 4 -0.257087
v 0.8680352 4 -0.5014663
v 0.7067448 4 -0.7067448
v 0.5014663 4 -0.8680352
v 0.257087 4 -0.9657869
v -0.001955047 4 -1
vt 0.8745098 0
vt 0.8745098 0.5019608
vt 0.9176471 0.5019608
vt 0.9176471 0
vt 0.9568627 0.5019608
vt 0.9568627 0
vt 0.8352941 0
vt 0.8352941 0.5019608
vt 0.7921569 0
vt 0.7921569 0.5019608
vt 1 0.5019608
vt 1 0
vt 0.7490196 0
vt 0.7490196 0.5019608
vt 0.7098039 0
vt 0.7098039 0.5019608
vt 0.6666667 0
vt 0.6666667 0.5019608
vt 0.6235294 0
vt 0.6235294 0.5019608
vt 0.5843138 0
vt 0.5843138 0.5019608
vt 0.5411765 0
vt 0.5411765 0.5019608
vt 0.5019608 0
vt 0.5019608 0.5019608
vt 0.4588235 0
vt 0.4588235 0.5019608
vt 0.4156863 0
vt 0.4156863 0.5019608
vt 0.3764706 0
vt 0.3764706 0.5019608
vt 0.3333333 0
vt 0.3333333 0.5019608
vt 0.2901961 0
vt 0.2901961 0.5019608
vt 0.2509804 0
vt 0.2509804 0.5019608
vt 0.2078431 0
vt 0.2078431 0.5019608
vt 0.1686275 0
vt 0.1686275 0.5019608
vt 0.1254902 0
vt 0.1254902 0.5019608
vt 0.08235294 0
vt 0.08235294 0.5019608
vt 0.04313726 0
vt 0.04313726 0.5019608
vt 0 0
vt 0 0.5019608
vt 0.2901961 1
vt 0.2509804 1
vt 0.2078431 1
vt 0.1686275 1
vt 0.1254902 1
vt 0.04313726 1
vt 0 1
vt 0.08235294 1
vt 0.3333333 1
vt 0.3764706 1
vt 0.4156863 1
vt 0.4588235 1
vt 0.5019608 1
vt 0.5411765 1
vt 0.5843138 1
vt 0.6235294 1
vt 0.6666667 1
vt 0.7098039 1
vt 0.7490196 1
vt 0.7921569 1
vt 0.8352941 1
vt 0.8745098 1
vt 0.9176471 1
vt 0.9568627 1
vt 1 1
vn 0.7141957 0.01587107 -0.6997661
vn 0.7141957 0.01587107 -0.6997661
vn 0.4920015 0.01587107 -0.8704497
vn 0.4920015 0.01587107 -0.8704497
vn 0.2698072 0.01587107 -0.9627836
vn 0.2698072 0.01587107 -0.9627836
vn 0.8729059 0.01587107 -0.4876305
vn 0.8729059 0.01587107 -0.4876305
vn 0.968132 0.01587107 -0.2499372
vn 0.968132 0.01587107 -0.2499372
vn -0.01587107 0.01587107 -0.9997481
vn -0.01587107 0.01587107 -0.9997481
vn 0.999874 0.01587107 -0.0003186997
vn 0.999874 0.01587107 -0.0003186997
vn 0.968132 0.01587107 0.2499372
vn 0.968132 0.01587107 0.2499372
vn 0.8729059 0.01587107 0.4876305
vn 0.8729059 0.01587107 0.4876305
vn 0.7141957 0.01587107 0.6997661
vn 0.7141957 0.01587107 0.6997661
vn 0.4920015 0.01587107 0.8704497
vn 0.4920015 0.01587107 0.8704497
vn 0.2698072 0.01587107 0.9627836
vn 0.2698072 0.01587107 0.9627836
vn -0.01587107 0.01587107 0.9997481
vn -0.01587107 0.01587107 0.9997481
vn -0.2698073 0.01587107 0.9627835
vn -0.2698073 0.01587107 0.9627835
vn -0.4920015 0.01587107 0.8704497
vn -0.4920015 0.01587107 0.8704497
vn -0.7141957 0.01587107 0.6997661
vn -0.7141957 0.01587107 0.6997661
vn -0.8729059 0.01587107 0.4876305
vn -0.8729059 0.01587107 0.4876305
vn -0.968132 0.01587107 0.2499372
vn -0.968132 0.01587107 0.2499372
vn -0.999874 0.01587107 -0.0003186997
vn -0.999874 0.01587107 -0.0003186997
vn -0.968132 0.01587107 -0.2499372
vn -0.968132 0.01587107 -0.2499372
vn -0.8729059 0.01587107 -0.4876305
vn -0.8729059 0.01587107 -0.4876305
vn -0.7141957 0.01587107 -0.6997661
vn -0.7141957 0.01587107 -0.6997661
vn -0.4920015 0.01587107 -0.8704497
vn -0.4920015 0.01587107 -0.8704497
vn -0.2698073 0.01587107 -0.9627835
vn -0.2698073 0.01587107 -0.9627835
vn -0.01587107 0.01587107 -0.9997481
vn -0.01587107 0.01587107 -0.9997481
vn -0.968132 0.01587107 0.2499372
vn -0.999874 0.01587107 -0.0003186997
vn -0.968132 0.01587107 -0.2499372
vn -0.8729059 0.01587107 -0.4876305
vn -0.7141957 0.01587107 -0.6997661
vn -0.2698073 0.01587107 -0.9627835
vn -0.01587107 0.01587107 -0.9997481
vn -0.4920015 0.01587107 -0.8704497
vn -0.8729059 0.01587107 0.4876305
vn -0.7141957 0.01587107 0.6997661
vn -0.4920015 0.01587107 0.8704497
vn -0.2698073 0.01587107 0.9627835
vn -0.01587107 0.01587107 0.9997481
vn 0.2698072 0.01587107 0.9627836
vn 0.4920015 0.01587107 0.8704497
vn 0.7141957 0.01587107 0.6997661
vn 0.8729059 0.01587107 0.4876305
vn 0.968132 0.01587107 0.2499372
vn 0.999874 0.01587107 -0.0003186997
vn 0.968132 0.01587107 -0.2499372
vn 0.8729059 0.01587107 -0.4876305
vn 0.7141957 0.01587107 -0.6997661
vn 0.4920015 0.01587107 -0.8704497
vn 0.2698072 0.01587107 -0.9627836
vn -0.01587107 0.01587107 -0.9997481
f 3/3/3 2/2/2 1/1/1
f 4/4/4 3/3/3 1/1/1
f 5/5/5 3/3/3 4/4/4
f 6/6/6 5/5/5 4/4/4
f 1/1/1 2/2/2 7/7/7
f 2/2/2 8/8/8 7/7/7
f 7/7/7 8/8/8 9/9/9
f 8/8/8 10/10/10 9/9/9
f 11/11/11 5/5/5 6/6/6
f 12/12/12 11/11/11 6/6/6
f 9/9/9 10/10/10 13/13/13
f 10/10/10 14/14/14 13/13/13
f 13/13/13 14/14/14 15/15/15
f 14/14/14 16/16/16 15/15/15
f 15/15/15 16/16/16 17/17/17
f 16/16/16 18/18/18 17/17/17
f 17/17/17 18/18/18 19/19/19
f 18/18/18 20/20/20 19/19/19
f 19/19/19 20/20/20 21/21/21
f 20/20/20 22/22/22 21/21/21
f 21/21/21 22/22/22 23/23/23
f 22/22/22 24/24/24 23/23/23
f 23/23/23 24/24/24 25/25/25
f 24/24/24 26/26/26 25/25/25
f 25/25/25 26/26/26 27/27/27
f 26/26/26 28/28/28 27/27/27
f 27/27/27 28/28/28 29/29/29
f 28/28/28 30/30/30 29/29/29
f 29/29/29 30/30/30 31/31/31
f 30/30/30 32/32/32 31/31/31
f 31/31/31 32/32/32 33/33/33
f 32/32/32 34/34/34 33/33/33
f 33/33/33 34/34/34 35/35/35
f 34/34/34 36/36/36 35/35/35
f 35/35/35 36/36/36 37/37/37
f 36/36/36 38/38/38 37/37/37
f 37/37/37 38/38/38 39/39/39
f 38/38/38 40/40/40 39/39/39
f 39/39/39 40/40/40 41/41/41
f 40/40/40 42/42/42 41/41/41
f 41/41/41 42/42/42 43/43/43
f 42/42/42 44/44/44 43/43/43
f 43/43/43 44/44/44 45/45/45
f 44/44/44 46/46/46 45/45/45
f 45/45/45 46/46/46 47/47/47
f 46/46/46 48/48/48 47/47/47
f 47/47/47 48/48/48 49/49/49
f 48/48/48 50/50/50 49/49/49
f 38/38/38 36/36/36 51/51/51
f 52/52/52 38/38/38 51/51/51
f 40/40/40 38/38/38 52/52/52
f 53/53/53 40/40/40 52/52/52
f 42/42/42 40/40/40 53/53/53
f 54/54/54 42/42/42 53/53/53
f 44/44/44 42/42/42 54/54/54
f 55/55/55 44/44/44 54/54/54
f 46/46/46 44/44/44 55/55/55
f 50/50/50 48/48/48 56/56/56
f 57/57/57 50/50/50 56/56/56
f 58/58/58 46/46/46 55/55/55
f 48/48/48 46/46/46 58/58/58
f 56/56/56 48/48/48 58/58/58
f 51/51/51 36/36/36 59/59/59
f 36/36/36 34/34/34 59/59/59
f 59/59/59 34/34/34 60/60/60
f 34/34/34 32/32/32 60/60/60
f 60/60/60 32/32/32 61/61/61
f 32/32/32 30/30/30 61/61/61
f 61/61/61 30/30/30 62/62/62
f 30/30/30 28/28/28 62/62/62
f 62/62/62 28/28/28 63/63/63
f 28/28/28 26/26/26 63/63/63
f 63/63/63 26/26/26 64/64/64
f 26/26/26 24/24/24 64/64/64
f 64/64/64 24/24/24 65/65/65
f 24/24/24 22/22/22 65/65/65
f 65/65/65 22/22/22 66/66/66
f 22/22/22 20/20/20 66/66/66
f 66/66/66 20/20/20 67/67/67
f 20/20/20 18/18/18 67/67/67
f 67/67/67 18/18/18 68/68/68
f 18/18/18 16/16/16 68/68/68
f 68/68/68 16/16/16 69/69/69
f 16/16/16 14/14/14 69/69/69
f 69/69/69 14/14/14 70/70/70
f 14/14/14 10/10/10 70/70/70
f 70/70/70 10/10/10 71/71/71
f 10/10/10 8/8/8 71/71/71
f 71/71/71 8/8/8 72/72/72
f 8/8/8 2/2/2 72/72/72
f 72/72/72 2/2/2 73/73/73
f 2/2/2 3/3/3 73/73/73
f 73/73/73 3/3/3 74/74/74
f 3/3/3 5/5/5 74/74/74
f 74/74/74 5/5/5 75/75/75
f 5/5/5 11/11/11 75/75/75
