g ball_cap_top
v 8.93947 0.2786963 2.395332
v 3.315532E-08 1.497108 8.639851E-06
v 8.939468 0.2786957 -2.395315
v 6.544148 0.2786946 -6.544138
v 2.395324 0.2786973 -8.939459
v -2.395322 0.2786963 -8.939462
v -6.544145 0.2786919 -6.544137
v -8.939469 0.278692 -2.395315
v -8.939473 0.2786926 2.395337
v -6.544147 0.2786937 6.544155
v -2.395329 0.278691 8.939482
v 2.395324 0.278692 8.93948
v 6.544146 0.2786964 6.544155
v -13.08053 -1.497108 -3.504912
v -13.08054 -1.497107 3.50493
v -9.575616 -1.497104 -9.575609
v -3.504918 -1.497103 -13.08052
v 3.504918 -1.497102 -13.08052
v 9.57562 -1.4971 -9.575609
v 13.08053 -1.497102 -3.504908
v 3.50492 -1.497106 13.08054
v 9.575616 -1.497105 9.575625
v 13.08053 -1.497102 3.504929
v -3.504922 -1.497108 13.08054
v -9.575617 -1.497109 9.575626
v -13.08054 -1.497107 3.50493
v 6.476429E-07 -1.497108 8.322515E-06
v -13.08053 -1.497108 -3.504912
v -9.575616 -1.497104 -9.575609
v -3.504918 -1.497103 -13.08052
v 3.504918 -1.497102 -13.08052
v 9.57562 -1.4971 -9.575609
v 13.08053 -1.497102 -3.504908
v 13.08053 -1.497102 3.504929
v 9.575616 -1.497105 9.575625
v 3.50492 -1.497106 13.08054
v -3.504922 -1.497108 13.08054
v -9.575617 -1.497109 9.575626
vt 0.9020616 0.4030585
vt 0.9254325 0.4382406
vt 0.9227847 0.3961177
vt 0.9442241 0.4003768
vt 0.9605814 0.4148759
vt 0.9675857 0.4355776
vt 0.9632923 0.4570284
vt 0.9487932 0.4733924
vt 0.9280905 0.4804194
vt 0.9066698 0.4760463
vt 0.890233 0.4616311
vt 0.8833097 0.4408933
vt 0.8875741 0.4194498
vt 0.9605502 0.4910882
vt 0.929415 0.5014523
vt 0.9821655 0.4663994
vt 0.9886982 0.4342845
vt 0.9782934 0.4031291
vt 0.9535925 0.3815003
vt 0.921429 0.3749077
vt 0.8621064 0.4422311
vt 0.8686976 0.410086
vt 0.8903239 0.3854619
vt 0.8726809 0.4732955
vt 0.8972248 0.4950773
vt 0.8974259 0.009441567
vt 0.888415 0.1031796
vt 0.943113 0.02676261
vt 0.9740466 0.06411799
vt 0.9820303 0.1123841
vt 0.9663396 0.1548481
vt 0.9298898 0.1871366
vt 0.8822011 0.1965057
vt 0.8335237 0.1793992
vt 0.8027393 0.1420158
vt 0.7948502 0.09415711
vt 0.8120508 0.04838507
vt 0.8494301 0.01739173
vn 0.2693659 0.9603295 0.07217631
vn 0 1 0
vn 0.2693658 0.9603295 -0.07217629
vn 0.1971895 0.9603295 -0.1971893
vn 0.07217626 0.9603295 -0.2693657
vn -0.07217663 0.9603295 -0.2693658
vn -0.1971898 0.9603294 -0.1971893
vn -0.2693661 0.9603294 -0.07217646
vn -0.2693662 0.9603293 0.07217638
vn -0.1971896 0.9603294 0.1971898
vn -0.07217644 0.9603293 0.2693662
vn 0.07217614 0.9603294 0.2693662
vn 0.1971892 0.9603294 0.1971898
vn -0.3696448 0.9238791 -0.09904601
vn -0.369645 0.923879 0.09904602
vn -0.2705988 0.9238792 -0.2705983
vn -0.09904614 0.9238792 -0.3696446
vn 0.09904574 0.9238792 -0.3696446
vn 0.2705984 0.9238794 -0.2705983
vn 0.3696446 0.9238792 -0.09904579
vn 0.0990459 0.923879 0.369645
vn 0.2705985 0.9238791 0.2705991
vn 0.3696447 0.9238792 0.09904608
vn -0.09904614 0.923879 0.3696449
vn -0.270599 0.923879 0.2705991
vn 0 -1 0
vn 0 -1 0
vn 0 -1 0
vn 0 -1 0
vn 0 -1 0
vn 0 -1 0
vn 0 -1 0
vn 0 -1 0
vn 0 -1 0
vn 0 -1 0
vn 0 -1 0
vn 0 -1 0
vn 0 -1 0
f 3/3/3 2/2/2 1/1/1
f 4/4/4 2/2/2 3/3/3
f 5/5/5 2/2/2 4/4/4
f 6/6/6 2/2/2 5/5/5
f 7/7/7 2/2/2 6/6/6
f 8/8/8 2/2/2 7/7/7
f 9/9/9 2/2/2 8/8/8
f 10/10/10 2/2/2 9/9/9
f 11/11/11 2/2/2 10/10/10
f 12/12/12 2/2/2 11/11/11
f 13/13/13 2/2/2 12/12/12
f 1/1/1 2/2/2 13/13/13
f 8/8/8 14/14/14 9/9/9
f 14/14/14 15/15/15 9/9/9
f 9/9/9 15/15/15 10/10/10
f 16/16/16 14/14/14 8/8/8
f 7/7/7 16/16/16 8/8/8
f 17/17/17 16/16/16 7/7/7
f 6/6/6 17/17/17 7/7/7
f 18/18/18 17/17/17 6/6/6
f 5/5/5 18/18/18 6/6/6
f 19/19/19 18/18/18 5/5/5
f 4/4/4 19/19/19 5/5/5
f 20/20/20 19/19/19 4/4/4
f 12/12/12 21/21/21 13/13/13
f 21/21/21 22/22/22 13/13/13
f 13/13/13 22/22/22 1/1/1
f 22/22/22 23/23/23 1/1/1
f 23/23/23 20/20/20 3/3/3
f 1/1/1 23/23/23 3/3/3
f 3/3/3 20/20/20 4/4/4
f 24/24/24 21/21/21 12/12/12
f 11/11/11 24/24/24 12/12/12
f 25/25/25 24/24/24 11/11/11
f 10/10/10 25/25/25 11/11/11
f 15/15/15 25/25/25 10/10/10
f 28/28/28 27/27/27 26/26/26
f 29/29/29 27/27/27 28/28/28
f 30/30/30 27/27/27 29/29/29
f 31/31/31 27/27/27 30/30/30
f 32/32/32 27/27/27 31/31/31
f 33/33/33 27/27/27 32/32/32
f 34/34/34 27/27/27 33/33/33
f 35/35/35 27/27/27 34/34/34
f 36/36/36 27/27/27 35/35/35
f 37/37/37 27/27/27 36/36/36
f 38/38/38 27/27/27 37/37/37
f 26/26/26 27/27/27 38/38/38
