g Chest_Ring1
v -0.02989841 -0.02042648 0.003363113
v -0.006200409 -0.02008277 0.02985952
v -0.04897926 -0.06357636 0.02986877
v -0.05476494 -0.04019423 0.003365517
v -0.04109562 -0.08778881 0.00427454
v 0.01738014 -0.02008277 0.004265709
v -0.1671072 -0.08778881 0.004275016
v -0.1592231 -0.06357636 0.02986877
v -0.2345829 9.568408E-08 0.00427454
v -0.2080796 9.566546E-08 0.02986877
v -0.1824853 9.568408E-08 0.003365517
v -0.1534375 -0.04019423 0.003365517
v -0.02989841 -0.02042648 0.003363113
v -0.05476494 -0.04019423 0.003365517
v -0.04897926 -0.06440677 -0.02222874
v -0.00539135 -0.02008277 -0.02223753
v -0.04109562 -0.08778881 0.00427454
v 0.01738014 -0.02008277 0.004265709
v -0.1534375 -0.04019423 0.003365517
v -0.1592231 -0.06440677 -0.02222874
v -0.1824853 9.568408E-08 0.003365517
v -0.2089886 9.566546E-08 -0.02222874
v -0.2345829 9.568408E-08 0.00427454
v -0.1671072 -0.08778881 0.004275016
v -0.006200409 0.02008236 0.02985952
v -0.04897926 0.06357595 0.02986877
v -0.04109562 0.08778881 0.00427454
v 0.01738014 0.02008236 0.004265709
v -0.02989841 0.02042654 0.003363113
v -0.05476494 0.04019433 0.003365517
v -0.1671072 0.08778881 0.004275016
v -0.1592231 0.06357595 0.02986877
v -0.2345829 9.568408E-08 0.00427454
v -0.2080796 9.566546E-08 0.02986877
v -0.1824853 9.568408E-08 0.003365517
v -0.1534375 0.04019433 0.003365517
v -0.02989841 0.02042654 0.003363113
v -0.00539135 0.02008236 -0.02223753
v -0.04897926 0.06440673 -0.02222874
v -0.05476494 0.04019433 0.003365517
v -0.04109562 0.08778881 0.00427454
v 0.01738014 0.02008236 0.004265709
v -0.1534375 0.04019433 0.003365517
v -0.1592231 0.06440673 -0.02222874
v -0.1824853 9.568408E-08 0.003365517
v -0.2089886 9.566546E-08 -0.02222874
v -0.2345829 9.568408E-08 0.00427454
v -0.1671072 0.08778881 0.004275016
vt 0.8968679 0.2445148
vt 0.9063801 0.2277482
vt 0.9235785 0.2576149
vt 0.9043428 0.2604128
vt 0.9428916 0.2536373
vt 0.9161006 0.2114354
vt 0.9416842 0.3221496
vt 0.9224674 0.317619
vt 0.9056191 0.3725178
vt 0.8957716 0.3549958
vt 0.8859275 0.33748
vt 0.9032815 0.3143184
vt 0.8968282 0.2444224
vt 0.9043176 0.260351
vt 0.9235901 0.2575477
vt 0.9063587 0.2276235
vt 0.9429405 0.2535624
vt 0.9160979 0.2112792
vt 0.9032542 0.31436
vt 0.9224768 0.3176667
vt 0.8858669 0.3375661
vt 0.8957298 0.3551154
vt 0.9055964 0.3726715
vt 0.9417306 0.3222063
vt 0.9063807 0.2277503
vt 0.9235784 0.2576161
vt 0.9428907 0.2536388
vt 0.9161006 0.2114379
vt 0.8968685 0.2445166
vt 0.9043432 0.2604139
vt 0.9416834 0.3221487
vt 0.922467 0.3176181
vt 0.9056196 0.3725153
vt 0.8957722 0.3549937
vt 0.8859286 0.3374784
vt 0.9032818 0.3143176
vt 0.8968276 0.2444207
vt 0.9063585 0.2276214
vt 0.9235905 0.2575464
vt 0.9043173 0.2603499
vt 0.9429413 0.2535609
vt 0.9160979 0.2112764
vt 0.9032536 0.3143608
vt 0.9224769 0.3176676
vt 0.8858658 0.3375676
vt 0.8957291 0.3551175
vt 0.9055959 0.3726742
vt 0.9417314 0.3222074
vn -0.683122 0.7300444 -0.01947911
vn 0.2988473 -0.2247167 0.9274657
vn 0.1065467 -0.130573 0.985697
vn -0.3974327 0.9174247 -0.01947052
vn 0.3977343 -0.9173845 0.01459499
vn 0.7392789 -0.6733369 0.009172442
vn -0.4230063 -0.90601 0.01454636
vn -0.1154796 -0.1505621 0.9818327
vn -0.9999228 2.34762E-07 0.01242156
vn -0.2526707 0 0.9675524
vn 0.9997211 -1.96031E-06 -0.02361934
vn 0.4974182 0.8672535 -0.02113333
vn -0.683122 0.7300444 -0.01947911
vn -0.3974327 0.9174247 -0.01947052
vn 0.1170549 -0.1603035 -0.9801025
vn 0.3218426 -0.2479738 -0.913743
vn 0.3977343 -0.9173845 0.01459499
vn 0.7392789 -0.6733369 0.009172442
vn 0.4974182 0.8672535 -0.02113333
vn -0.1276296 -0.1783971 -0.975646
vn 0.9997211 -1.96031E-06 -0.02361934
vn -0.2814655 2.387991E-07 -0.9595714
vn -0.9999228 2.34762E-07 0.01242156
vn -0.4230063 -0.90601 0.01454636
vn 0.2988488 0.2247163 0.9274654
vn 0.1065453 0.1305655 0.985698
vn 0.3977351 0.9173841 0.01459723
vn 0.7392806 0.673335 0.00917397
vn -0.6831233 -0.7300433 -0.01948085
vn -0.3974329 -0.9174246 -0.0194739
vn -0.4230054 0.9060103 0.01454846
vn -0.1154772 0.1505556 0.9818341
vn -0.9999228 2.34762E-07 0.01242156
vn -0.2526707 0 0.9675524
vn 0.9997211 -1.96031E-06 -0.02361934
vn 0.4974153 -0.867255 -0.02113667
vn -0.6831233 -0.7300433 -0.01948085
vn 0.3218453 0.2479742 -0.9137419
vn 0.1170552 0.1603022 -0.9801027
vn -0.3974329 -0.9174246 -0.0194739
vn 0.3977351 0.9173841 0.01459723
vn 0.7392806 0.673335 0.00917397
vn 0.4974153 -0.867255 -0.02113667
vn -0.1276288 0.1783959 -0.9756464
vn 0.9997211 -1.96031E-06 -0.02361934
vn -0.2814655 2.387991E-07 -0.9595714
vn -0.9999228 2.34762E-07 0.01242156
vn -0.4230054 0.9060103 0.01454846
f 3/3/3 2/2/2 1/1/1
f 4/4/4 3/3/3 1/1/1
f 2/2/2 3/3/3 5/5/5
f 6/6/6 2/2/2 5/5/5
f 7/7/7 5/5/5 3/3/3
f 8/8/8 7/7/7 3/3/3
f 8/8/8 3/3/3 4/4/4
f 7/7/7 8/8/8 9/9/9
f 8/8/8 10/10/10 9/9/9
f 10/10/10 8/8/8 11/11/11
f 8/8/8 12/12/12 11/11/11
f 12/12/12 8/8/8 4/4/4
f 15/15/15 14/14/14 13/13/13
f 16/16/16 15/15/15 13/13/13
f 15/15/15 16/16/16 17/17/17
f 16/16/16 18/18/18 17/17/17
f 19/19/19 14/14/14 15/15/15
f 20/20/20 19/19/19 15/15/15
f 20/20/20 15/15/15 17/17/17
f 21/21/21 19/19/19 20/20/20
f 22/22/22 21/21/21 20/20/20
f 22/22/22 20/20/20 23/23/23
f 20/20/20 24/24/24 23/23/23
f 24/24/24 20/20/20 17/17/17
f 27/27/27 26/26/26 25/25/25
f 28/28/28 27/27/27 25/25/25
f 25/25/25 26/26/26 29/29/29
f 26/26/26 30/30/30 29/29/29
f 26/26/26 27/27/27 31/31/31
f 32/32/32 26/26/26 31/31/31
f 30/30/30 26/26/26 32/32/32
f 31/31/31 33/33/33 32/32/32
f 33/33/33 34/34/34 32/32/32
f 34/34/34 35/35/35 32/32/32
f 35/35/35 36/36/36 32/32/32
f 36/36/36 30/30/30 32/32/32
f 39/39/39 38/38/38 37/37/37
f 40/40/40 39/39/39 37/37/37
f 38/38/38 39/39/39 41/41/41
f 42/42/42 38/38/38 41/41/41
f 39/39/39 40/40/40 43/43/43
f 44/44/44 39/39/39 43/43/43
f 41/41/41 39/39/39 44/44/44
f 43/43/43 45/45/45 44/44/44
f 45/45/45 46/46/46 44/44/44
f 44/44/44 46/46/46 47/47/47
f 48/48/48 44/44/44 47/47/47
f 48/48/48 41/41/41 44/44/44
