g dim_stones
v -1.316787 5.574846 -0.2187323
v -1.514961 5.844843 -0.1572369
v -1.561502 5.798302 -0.0002296126
v -1.376341 5.515292 -0.0002296126
v -1.633619 6.196733 -0.0002296126
v -1.402602 5.957202 -0.2222722
v -1.173011 5.718623 -0.3092389
v -1.093334 5.330134 -0.0002296126
v -1.046794 5.376675 -0.1572369
v -0.6949027 5.258018 -0.0002296126
v -0.9344348 5.489035 -0.2222722
v -1.376341 5.515292 -0.0002296126
v -1.561502 5.798302 -0.0002296126
v -1.514961 5.844843 0.156778
v -1.316787 5.574846 0.218273
v -1.633619 6.196733 -0.0002296126
v -1.402602 5.957202 0.2218126
v -1.173011 5.718623 0.3087799
v -1.046794 5.376675 0.156778
v -1.093334 5.330134 -0.0002296126
v -0.6949027 5.258018 -0.0002296126
v -0.9344348 5.489035 0.2218126
v -1.44146 5.918344 -0.0002296126
v -1.402602 5.957202 -0.2222722
v -1.173011 5.718623 -0.3092389
v -1.235651 5.655982 -0.0002296126
v -1.633619 6.196733 -0.0002296126
v -0.9732924 5.450176 -0.0002296126
v -0.9344348 5.489035 -0.2222722
v -0.6949027 5.258018 -0.0002296126
v -1.44146 5.918344 -0.0002296126
v -1.402602 5.957202 0.2218126
v -1.633619 6.196733 -0.0002296126
v -1.235651 5.655982 -0.0002296126
v -1.173011 5.718623 0.3087799
v -0.9344348 5.489035 0.2218126
v -0.9732924 5.450176 -0.0002296126
v -0.6949027 5.258018 -0.0002296126
v 0.219919 5.574846 -1.317974
v 0.1584236 5.844843 -1.516148
v 0.001416326 5.798302 -1.562688
v 0.001416326 5.515292 -1.377528
v 0.001416326 6.196733 -1.634805
v 0.2234589 5.957202 -1.403789
v 0.3104256 5.718623 -1.174197
v 0.001416326 5.330134 -1.094521
v 0.1584236 5.376675 -1.047981
v 0.001416326 5.258018 -0.6960894
v 0.2234589 5.489035 -0.9356215
v 0.001416326 5.515292 -1.377528
v 0.001416326 5.798302 -1.562688
v -0.1555913 5.844843 -1.516148
v -0.2170863 5.574846 -1.317974
v 0.001416326 6.196733 -1.634805
v -0.2206259 5.957202 -1.403789
v -0.3075932 5.718623 -1.174197
v -0.1555913 5.376675 -1.047981
v 0.001416326 5.330134 -1.094521
v 0.001416326 5.258018 -0.6960894
v -0.2206259 5.489035 -0.9356215
v 0.001416326 5.918344 -1.442647
v 0.2234589 5.957202 -1.403789
v 0.3104256 5.718623 -1.174197
v 0.001416326 5.655982 -1.236838
v 0.001416326 6.196733 -1.634805
v 0.001416326 5.450176 -0.9744791
v 0.2234589 5.489035 -0.9356215
v 0.001416326 5.258018 -0.6960894
v 0.001416326 5.918344 -1.442647
v -0.2206259 5.957202 -1.403789
v 0.001416326 6.196733 -1.634805
v 0.001416326 5.655982 -1.236838
v -0.3075932 5.718623 -1.174197
v -0.2206259 5.489035 -0.9356215
v 0.001416326 5.450176 -0.9744791
v 0.001416326 5.258018 -0.6960894
v 1.31916 5.574846 0.2187323
v 1.517334 5.844843 0.1572369
v 1.563875 5.798302 0.0002296126
v 1.378715 5.515292 0.0002296126
v 1.635992 6.196733 0.0002296126
v 1.404975 5.957202 0.2222722
v 1.175384 5.718623 0.3092389
v 1.095708 5.330134 0.0002296126
v 1.049167 5.376675 0.1572369
v 0.697276 5.258018 0.0002296126
v 0.9368081 5.489035 0.2222722
v 1.378715 5.515292 0.0002296126
v 1.563875 5.798302 0.0002296126
v 1.517334 5.844843 -0.156778
v 1.31916 5.574846 -0.218273
v 1.635992 6.196733 0.0002296126
v 1.404975 5.957202 -0.2218126
v 1.175384 5.718623 -0.3087799
v 1.049167 5.376675 -0.156778
v 1.095708 5.330134 0.0002296126
v 0.697276 5.258018 0.0002296126
v 0.9368081 5.489035 -0.2218126
v 1.443833 5.918344 0.0002296126
v 1.404975 5.957202 0.2222722
v 1.175384 5.718623 0.3092389
v 1.238025 5.655982 0.0002296126
v 1.635992 6.196733 0.0002296126
v 0.9756657 5.450176 0.0002296126
v 0.9368081 5.489035 0.2222722
v 0.697276 5.258018 0.0002296126
v 1.443833 5.918344 0.0002296126
v 1.404975 5.957202 -0.2218126
v 1.635992 6.196733 0.0002296126
v 1.238025 5.655982 0.0002296126
v 1.175384 5.718623 -0.3087799
v 0.9368081 5.489035 -0.2218126
v 0.9756657 5.450176 0.0002296126
v 0.697276 5.258018 0.0002296126
v -0.2175456 5.574846 1.317974
v -0.1560502 5.844843 1.516148
v 0.0009571016 5.798302 1.562688
v 0.0009571016 5.515292 1.377528
v 0.0009571016 6.196733 1.634805
v -0.2210855 5.957202 1.403789
v -0.3080522 5.718623 1.174197
v 0.0009571016 5.330134 1.094521
v -0.1560502 5.376675 1.047981
v 0.0009571016 5.258018 0.6960894
v -0.2210855 5.489035 0.9356215
v 0.0009571016 5.515292 1.377528
v 0.0009571016 5.798302 1.562688
v 0.1579647 5.844843 1.516148
v 0.2194597 5.574846 1.317974
v 0.0009571016 6.196733 1.634805
v 0.2229993 5.957202 1.403789
v 0.3099666 5.718623 1.174197
v 0.1579647 5.376675 1.047981
v 0.0009571016 5.330134 1.094521
v 0.0009571016 5.258018 0.6960894
v 0.2229993 5.489035 0.9356215
v 0.0009571016 5.918344 1.442647
v -0.2210855 5.957202 1.403789
v -0.3080522 5.718623 1.174197
v 0.0009571016 5.655982 1.236838
v 0.0009571016 6.196733 1.634805
v 0.0009571016 5.450176 0.9744791
v -0.2210855 5.489035 0.9356215
v 0.0009571016 5.258018 0.6960894
v 0.0009571016 5.918344 1.442647
v 0.2229993 5.957202 1.403789
v 0.0009571016 6.196733 1.634805
v 0.0009571016 5.655982 1.236838
v 0.3099666 5.718623 1.174197
v 0.2229993 5.489035 0.9356215
v 0.0009571016 5.450176 0.9744791
v 0.0009571016 5.258018 0.6960894
vt 0.7501945 0.444216
vt 0.7300982 0.4476671
vt 0.731258 0.4579399
vt 0.7501945 0.4579399
vt 0.7066368 0.4579399
vt 0.7262946 0.4377862
vt 0.7501947 0.4313961
vt 0.7691309 0.4579399
vt 0.7702909 0.4476671
vt 0.7937525 0.4579399
vt 0.7740944 0.4377862
vt 0.7501945 0.4579399
vt 0.731258 0.4579399
vt 0.7300982 0.4682127
vt 0.7501945 0.4716639
vt 0.7066368 0.4579399
vt 0.7262946 0.4780936
vt 0.7501945 0.4844837
vt 0.7702909 0.4682127
vt 0.7691309 0.4579399
vt 0.7937525 0.4579399
vt 0.7740944 0.4780936
vt 0.4837587 0.09034982
vt 0.502226 0.09085035
vt 0.5093675 0.06390207
vt 0.4837587 0.06390207
vt 0.4837587 0.1175172
vt 0.4837587 0.03745466
vt 0.502226 0.03695418
vt 0.4837587 0.01028721
vt 0.4837587 0.09034982
vt 0.4652913 0.09085035
vt 0.4837587 0.1175172
vt 0.4837587 0.06390207
vt 0.4581498 0.06390207
vt 0.4652913 0.03695418
vt 0.4837587 0.03745466
vt 0.4837587 0.01028721
vt 0.7501945 0.444216
vt 0.7300982 0.4476671
vt 0.731258 0.4579399
vt 0.7501945 0.4579399
vt 0.7066368 0.4579399
vt 0.7262946 0.4377862
vt 0.7501947 0.4313961
vt 0.7691309 0.4579399
vt 0.7702909 0.4476671
vt 0.7937525 0.4579399
vt 0.7740944 0.4377862
vt 0.7501945 0.4579399
vt 0.731258 0.4579399
vt 0.7300982 0.4682127
vt 0.7501945 0.4716639
vt 0.7066368 0.4579399
vt 0.7262946 0.4780936
vt 0.7501945 0.4844837
vt 0.7702909 0.4682127
vt 0.7691309 0.4579399
vt 0.7937525 0.4579399
vt 0.7740944 0.4780936
vt 0.4837587 0.09034982
vt 0.502226 0.09085035
vt 0.5093675 0.06390207
vt 0.4837587 0.06390207
vt 0.4837587 0.1175172
vt 0.4837587 0.03745466
vt 0.502226 0.03695418
vt 0.4837587 0.01028721
vt 0.4837587 0.09034982
vt 0.4652913 0.09085035
vt 0.4837587 0.1175172
vt 0.4837587 0.06390207
vt 0.4581498 0.06390207
vt 0.4652913 0.03695418
vt 0.4837587 0.03745466
vt 0.4837587 0.01028721
vt 0.7501945 0.444216
vt 0.7300982 0.4476671
vt 0.731258 0.4579399
vt 0.7501945 0.4579399
vt 0.7066368 0.4579399
vt 0.7262946 0.4377862
vt 0.7501947 0.4313961
vt 0.7691309 0.4579399
vt 0.7702909 0.4476671
vt 0.7937525 0.4579399
vt 0.7740944 0.4377862
vt 0.7501945 0.4579399
vt 0.731258 0.4579399
vt 0.7300982 0.4682127
vt 0.7501945 0.4716639
vt 0.7066368 0.4579399
vt 0.7262946 0.4780936
vt 0.7501945 0.4844837
vt 0.7702909 0.4682127
vt 0.7691309 0.4579399
vt 0.7937525 0.4579399
vt 0.7740944 0.4780936
vt 0.4837587 0.09034982
vt 0.502226 0.09085035
vt 0.5093675 0.06390207
vt 0.4837587 0.06390207
vt 0.4837587 0.1175172
vt 0.4837587 0.03745466
vt 0.502226 0.03695418
vt 0.4837587 0.01028721
vt 0.4837587 0.09034982
vt 0.4652913 0.09085035
vt 0.4837587 0.1175172
vt 0.4837587 0.06390207
vt 0.4581498 0.06390207
vt 0.4652913 0.03695418
vt 0.4837587 0.03745466
vt 0.4837587 0.01028721
vt 0.7501945 0.444216
vt 0.7300982 0.4476671
vt 0.731258 0.4579399
vt 0.7501945 0.4579399
vt 0.7066368 0.4579399
vt 0.7262946 0.4377862
vt 0.7501947 0.4313961
vt 0.7691309 0.4579399
vt 0.7702909 0.4476671
vt 0.7937525 0.4579399
vt 0.7740944 0.4377862
vt 0.7501945 0.4579399
vt 0.731258 0.4579399
vt 0.7300982 0.4682127
vt 0.7501945 0.4716639
vt 0.7066368 0.4579399
vt 0.7262946 0.4780936
vt 0.7501945 0.4844837
vt 0.7702909 0.4682127
vt 0.7691309 0.4579399
vt 0.7937525 0.4579399
vt 0.7740944 0.4780936
vt 0.4837587 0.09034982
vt 0.502226 0.09085035
vt 0.5093675 0.06390207
vt 0.4837587 0.06390207
vt 0.4837587 0.1175172
vt 0.4837587 0.03745466
vt 0.502226 0.03695418
vt 0.4837587 0.01028721
vt 0.4837587 0.09034982
vt 0.4652913 0.09085035
vt 0.4837587 0.1175172
vt 0.4837587 0.06390207
vt 0.4581498 0.06390207
vt 0.4652913 0.03695418
vt 0.4837587 0.03745466
vt 0.4837587 0.01028721
vn -0.5053204 -0.50532 -0.6995019
vn -0.715377 -0.2426458 -0.6552547
vn -0.8376538 -0.4127581 -0.3577248
vn -0.6566312 -0.6566308 -0.3710411
vn -0.8081598 -0.009764254 -0.5888824
vn -0.4903798 -0.03185054 -0.8709266
vn -0.2789981 -0.2789977 -0.9188691
vn -0.4127561 -0.8376556 -0.3577227
vn -0.2426434 -0.7153788 -0.6552536
vn -0.009764235 -0.8081604 -0.5888816
vn -0.03184825 -0.4903809 -0.8709261
vn -0.6566311 -0.6566309 0.3710409
vn -0.8376538 -0.4127578 0.3577248
vn -0.7153768 -0.2426455 0.6552551
vn -0.5053203 -0.5053201 0.6995019
vn -0.8081594 -0.009764346 0.5888829
vn -0.4903791 -0.03185001 0.8709271
vn -0.2789977 -0.2789975 0.9188693
vn -0.242643 -0.7153788 0.6552538
vn -0.4127562 -0.8376557 0.3577223
vn -0.009763462 -0.8081598 0.5888824
vn -0.03184707 -0.4903803 0.8709264
vn 0.7652623 0.5918655 0.2531182
vn 0.7603656 0.5972009 0.2553336
vn 0.6826105 0.6826106 0.2609325
vn 0.6826103 0.6826107 0.2609325
vn 0.7996303 0.5519466 0.2365296
vn 0.5918643 0.7652631 0.2531186
vn 0.5971996 0.7603664 0.2553342
vn 0.5519468 0.7996303 0.2365295
vn 0.7652622 0.5918653 -0.2531191
vn 0.7603655 0.5972006 -0.2553343
vn 0.7996297 0.5519465 -0.2365317
vn 0.6826102 0.6826107 -0.2609327
vn 0.6826105 0.6826106 -0.2609327
vn 0.5971995 0.7603665 -0.2553343
vn 0.5918642 0.7652631 -0.2531188
vn 0.5519469 0.7996301 -0.2365299
vn 0.6995029 -0.5053197 -0.5053194
vn 0.6552545 -0.2426455 -0.7153773
vn 0.3577259 -0.4127576 -0.8376535
vn 0.3710425 -0.6566307 -0.6566305
vn 0.5888791 -0.009764203 -0.8081622
vn 0.8709257 -0.03185084 -0.4903815
vn 0.9188693 -0.2789976 -0.2789972
vn 0.3577236 -0.8376553 -0.4127558
vn 0.6552541 -0.7153785 -0.2426431
vn 0.588881 -0.8081607 -0.009765576
vn 0.8709261 -0.4903808 -0.03184796
vn -0.3710424 -0.6566308 -0.6566305
vn -0.3577257 -0.412758 -0.8376533
vn -0.6552551 -0.2426455 -0.7153768
vn -0.6995028 -0.5053197 -0.5053195
vn -0.5888798 -0.009763917 -0.8081616
vn -0.8709266 -0.03184984 -0.4903798
vn -0.9188696 -0.2789971 -0.278997
vn -0.6552541 -0.7153782 -0.2426436
vn -0.3577231 -0.837655 -0.4127569
vn -0.588881 -0.8081608 -0.009766385
vn -0.8709266 -0.4903802 -0.03184743
vn -0.2531176 0.5918654 0.7652627
vn -0.2553331 0.5972009 0.7603658
vn -0.2609318 0.6826108 0.6826105
vn -0.2609318 0.6826109 0.6826104
vn -0.2365282 0.5519454 0.7996316
vn -0.2531176 0.7652632 0.5918646
vn -0.2553332 0.7603666 0.5971999
vn -0.2365286 0.7996303 0.5519471
vn 0.2531175 0.5918652 0.7652628
vn 0.255333 0.5972008 0.7603659
vn 0.2365279 0.5519449 0.799632
vn 0.2609319 0.6826114 0.6826099
vn 0.2609318 0.6826112 0.6826101
vn 0.2553332 0.7603669 0.5971995
vn 0.2531175 0.7652632 0.5918646
vn 0.2365283 0.7996282 0.5519503
vn 0.5053204 -0.50532 0.699502
vn 0.7153772 -0.2426458 0.6552545
vn 0.8376536 -0.4127578 0.3577254
vn 0.6566312 -0.6566308 0.3710411
vn 0.8081602 -0.009763837 0.5888817
vn 0.4903803 -0.03185066 0.8709263
vn 0.2789981 -0.2789978 0.918869
vn 0.4127561 -0.8376555 0.3577227
vn 0.2426435 -0.7153788 0.6552536
vn 0.009764235 -0.8081603 0.5888816
vn 0.03184825 -0.4903809 0.8709261
vn 0.6566311 -0.6566309 -0.3710409
vn 0.8376538 -0.4127575 -0.3577251
vn 0.715377 -0.2426455 -0.6552548
vn 0.5053203 -0.5053201 -0.6995019
vn 0.8081604 -0.009764093 -0.5888816
vn 0.4903796 -0.03185004 -0.8709267
vn 0.2789977 -0.2789975 -0.9188693
vn 0.242643 -0.7153788 -0.6552538
vn 0.4127561 -0.8376558 -0.3577223
vn 0.009763459 -0.8081598 -0.5888824
vn 0.03184708 -0.4903804 -0.8709264
vn -0.7652624 0.5918653 -0.2531182
vn -0.7603657 0.5972008 -0.2553336
vn -0.6826105 0.6826105 -0.2609325
vn -0.6826104 0.6826106 -0.2609325
vn -0.7996306 0.5519463 -0.2365296
vn -0.5918643 0.7652631 -0.2531186
vn -0.5971996 0.7603664 -0.2553342
vn -0.5519468 0.7996303 -0.2365295
vn -0.7652624 0.5918655 0.253118
vn -0.7603656 0.5972008 0.2553337
vn -0.7996306 0.5519471 0.236528
vn -0.6826102 0.6826107 0.2609327
vn -0.6826105 0.6826106 0.2609327
vn -0.5971995 0.7603665 0.2553343
vn -0.5918642 0.7652631 0.2531188
vn -0.5519469 0.7996301 0.2365299
vn -0.6995028 -0.5053195 0.5053197
vn -0.6552545 -0.2426456 0.7153773
vn -0.3577257 -0.4127574 0.8376537
vn -0.3710424 -0.6566303 0.6566309
vn -0.5888802 -0.009764305 0.8081614
vn -0.8709261 -0.03185093 0.4903808
vn -0.9188693 -0.2789976 0.2789975
vn -0.3577236 -0.8376554 0.4127558
vn -0.6552541 -0.7153785 0.2426431
vn -0.5888811 -0.8081607 0.009766159
vn -0.8709261 -0.4903809 0.03184829
vn 0.3710423 -0.6566305 0.6566308
vn 0.3577256 -0.4127578 0.8376535
vn 0.655255 -0.2426454 0.715377
vn 0.6995028 -0.5053196 0.5053197
vn 0.5888798 -0.009763878 0.8081616
vn 0.8709266 -0.03184973 0.4903799
vn 0.9188696 -0.2789971 0.278997
vn 0.6552542 -0.7153783 0.2426434
vn 0.3577231 -0.8376551 0.4127568
vn 0.5888808 -0.8081609 0.009765855
vn 0.8709266 -0.4903802 0.0318471
vn 0.2531178 0.5918659 -0.7652621
vn 0.2553334 0.5972015 -0.7603652
vn 0.2609317 0.6826105 -0.6826109
vn 0.2609317 0.6826105 -0.6826108
vn 0.2365282 0.5519454 -0.7996316
vn 0.2531173 0.7652621 -0.5918661
vn 0.2553328 0.7603653 -0.5972016
vn 0.2365286 0.7996303 -0.5519471
vn -0.2531174 0.5918651 -0.7652628
vn -0.2553329 0.5972004 -0.7603663
vn -0.2365286 0.5519467 -0.7996306
vn -0.2609314 0.6826101 -0.6826113
vn -0.2609315 0.68261 -0.6826115
vn -0.2553329 0.7603659 -0.5972008
vn -0.2531174 0.7652626 -0.5918655
vn -0.2365288 0.7996299 -0.5519475
f 3/3/3 2/2/2 1/1/1
f 4/4/4 3/3/3 1/1/1
f 3/3/3 5/5/5 2/2/2
f 2/2/2 5/5/5 6/6/6
f 1/1/1 2/2/2 6/6/6
f 7/7/7 1/1/1 6/6/6
f 8/8/8 4/4/4 1/1/1
f 9/9/9 8/8/8 1/1/1
f 10/10/10 8/8/8 9/9/9
f 10/10/10 9/9/9 11/11/11
f 1/1/1 7/7/7 11/11/11
f 9/9/9 1/1/1 11/11/11
f 14/14/14 13/13/13 12/12/12
f 15/15/15 14/14/14 12/12/12
f 14/14/14 16/16/16 13/13/13
f 17/17/17 16/16/16 14/14/14
f 17/17/17 14/14/14 15/15/15
f 18/18/18 17/17/17 15/15/15
f 19/19/19 15/15/15 12/12/12
f 20/20/20 19/19/19 12/12/12
f 21/21/21 19/19/19 20/20/20
f 21/21/21 22/22/22 19/19/19
f 22/22/22 18/18/18 15/15/15
f 19/19/19 22/22/22 15/15/15
f 25/25/25 24/24/24 23/23/23
f 26/26/26 25/25/25 23/23/23
f 23/23/23 24/24/24 27/27/27
f 25/25/25 26/26/26 28/28/28
f 29/29/29 25/25/25 28/28/28
f 29/29/29 28/28/28 30/30/30
f 33/33/33 32/32/32 31/31/31
f 31/31/31 32/32/32 34/34/34
f 32/32/32 35/35/35 34/34/34
f 35/35/35 36/36/36 34/34/34
f 36/36/36 37/37/37 34/34/34
f 36/36/36 38/38/38 37/37/37
f 41/41/41 40/40/40 39/39/39
f 42/42/42 41/41/41 39/39/39
f 41/41/41 43/43/43 40/40/40
f 40/40/40 43/43/43 44/44/44
f 39/39/39 40/40/40 44/44/44
f 45/45/45 39/39/39 44/44/44
f 46/46/46 42/42/42 39/39/39
f 47/47/47 46/46/46 39/39/39
f 48/48/48 46/46/46 47/47/47
f 48/48/48 47/47/47 49/49/49
f 39/39/39 45/45/45 49/49/49
f 47/47/47 39/39/39 49/49/49
f 52/52/52 51/51/51 50/50/50
f 53/53/53 52/52/52 50/50/50
f 52/52/52 54/54/54 51/51/51
f 55/55/55 54/54/54 52/52/52
f 55/55/55 52/52/52 53/53/53
f 56/56/56 55/55/55 53/53/53
f 57/57/57 53/53/53 50/50/50
f 58/58/58 57/57/57 50/50/50
f 59/59/59 57/57/57 58/58/58
f 59/59/59 60/60/60 57/57/57
f 60/60/60 56/56/56 53/53/53
f 57/57/57 60/60/60 53/53/53
f 63/63/63 62/62/62 61/61/61
f 64/64/64 63/63/63 61/61/61
f 61/61/61 62/62/62 65/65/65
f 63/63/63 64/64/64 66/66/66
f 67/67/67 63/63/63 66/66/66
f 67/67/67 66/66/66 68/68/68
f 71/71/71 70/70/70 69/69/69
f 69/69/69 70/70/70 72/72/72
f 70/70/70 73/73/73 72/72/72
f 73/73/73 74/74/74 72/72/72
f 74/74/74 75/75/75 72/72/72
f 74/74/74 76/76/76 75/75/75
f 79/79/79 78/78/78 77/77/77
f 80/80/80 79/79/79 77/77/77
f 79/79/79 81/81/81 78/78/78
f 78/78/78 81/81/81 82/82/82
f 77/77/77 78/78/78 82/82/82
f 83/83/83 77/77/77 82/82/82
f 84/84/84 80/80/80 77/77/77
f 85/85/85 84/84/84 77/77/77
f 86/86/86 84/84/84 85/85/85
f 86/86/86 85/85/85 87/87/87
f 77/77/77 83/83/83 87/87/87
f 85/85/85 77/77/77 87/87/87
f 90/90/90 89/89/89 88/88/88
f 91/91/91 90/90/90 88/88/88
f 90/90/90 92/92/92 89/89/89
f 93/93/93 92/92/92 90/90/90
f 93/93/93 90/90/90 91/91/91
f 94/94/94 93/93/93 91/91/91
f 95/95/95 91/91/91 88/88/88
f 96/96/96 95/95/95 88/88/88
f 97/97/97 95/95/95 96/96/96
f 97/97/97 98/98/98 95/95/95
f 98/98/98 94/94/94 91/91/91
f 95/95/95 98/98/98 91/91/91
f 101/101/101 100/100/100 99/99/99
f 102/102/102 101/101/101 99/99/99
f 99/99/99 100/100/100 103/103/103
f 101/101/101 102/102/102 104/104/104
f 105/105/105 101/101/101 104/104/104
f 105/105/105 104/104/104 106/106/106
f 109/109/109 108/108/108 107/107/107
f 107/107/107 108/108/108 110/110/110
f 108/108/108 111/111/111 110/110/110
f 111/111/111 112/112/112 110/110/110
f 112/112/112 113/113/113 110/110/110
f 112/112/112 114/114/114 113/113/113
f 117/117/117 116/116/116 115/115/115
f 118/118/118 117/117/117 115/115/115
f 117/117/117 119/119/119 116/116/116
f 116/116/116 119/119/119 120/120/120
f 115/115/115 116/116/116 120/120/120
f 121/121/121 115/115/115 120/120/120
f 122/122/122 118/118/118 115/115/115
f 123/123/123 122/122/122 115/115/115
f 124/124/124 122/122/122 123/123/123
f 124/124/124 123/123/123 125/125/125
f 115/115/115 121/121/121 125/125/125
f 123/123/123 115/115/115 125/125/125
f 128/128/128 127/127/127 126/126/126
f 129/129/129 128/128/128 126/126/126
f 128/128/128 130/130/130 127/127/127
f 131/131/131 130/130/130 128/128/128
f 131/131/131 128/128/128 129/129/129
f 132/132/132 131/131/131 129/129/129
f 133/133/133 129/129/129 126/126/126
f 134/134/134 133/133/133 126/126/126
f 135/135/135 133/133/133 134/134/134
f 135/135/135 136/136/136 133/133/133
f 136/136/136 132/132/132 129/129/129
f 133/133/133 136/136/136 129/129/129
f 139/139/139 138/138/138 137/137/137
f 140/140/140 139/139/139 137/137/137
f 137/137/137 138/138/138 141/141/141
f 139/139/139 140/140/140 142/142/142
f 143/143/143 139/139/139 142/142/142
f 143/143/143 142/142/142 144/144/144
f 147/147/147 146/146/146 145/145/145
f 145/145/145 146/146/146 148/148/148
f 146/146/146 149/149/149 148/148/148
f 149/149/149 150/150/150 148/148/148
f 150/150/150 151/151/151 148/148/148
f 150/150/150 152/152/152 151/151/151
