g dome01
v 0.3115716 1.154573 0.08315975
v -0.0009240044 1.203915 0.0009240044
v 0.3233195 1.154573 0.0009240044
v 0.6005713 1.037094 0.1606962
v 0.6217176 1.037094 0.0009240044
v 0.8214328 0.8303297 0.2194359
v 0.8519775 0.8303297 0.0009240044
v 1.002351 0.6024193 0.2687774
v 1.037595 0.6024193 0.0009240044
v 1.103384 0.31107 0.2946229
v 1.140977 0.31107 0.0009240044
v 1.159774 0.0009240044 0.31107
v 1.199717 0.0009240044 0.0009240044
v 1.103384 0.31107 -0.2951244
v 1.159774 0.0009240044 -0.3115716
v 1.002351 0.6024193 -0.269279
v 0.8214328 0.8303297 -0.2199375
v 0.6005713 1.037094 -0.1611978
v 0.3115716 1.154573 -0.08366126
v 0.7368475 0.8303297 0.4262
v 0.5394819 1.037094 0.31107
v 0.2786773 1.154573 0.1606962
v -0.0009240044 1.203915 0.0009240044
v 1.039945 0.0009240044 0.6000697
v 0.9882538 0.31107 0.5718746
v 0.8966197 0.6024193 0.5178339
v 0.8472783 0.0009240044 0.8491263
v 0.8073353 0.31107 0.8068336
v 0.6005713 0.0009240044 1.039443
v 0.5700266 0.31107 0.9901018
v 0.3115716 0.0009240044 1.159272
v 0.2951244 0.31107 1.102882
v -0.0009240044 0.0009240044 1.199215
v -0.0009240044 0.31107 1.142825
v 0.269279 0.6024193 1.00185
v -0.0009240044 0.6024193 1.037094
v 0.2199375 0.8303297 0.8232808
v -0.0009240044 0.8303297 0.851476
v 0.1611978 1.037094 0.6000697
v -0.0009240044 1.037094 0.621216
v 0.08366126 1.154573 0.31107
v -0.0009240044 1.154573 0.3228179
v -0.0009240044 1.203915 0.0009240044
v 0.5183356 0.6024193 0.8984677
v 0.4267015 0.8303297 0.7363459
v 0.3115716 1.037094 0.5389804
v 0.1611978 1.154573 0.2805253
v -0.0009240044 1.203915 0.0009240044
v 0.6029208 0.8303297 0.6024193
v 0.7321483 0.6024193 0.7339964
v 0.4407991 1.037094 0.4402975
v 0.2293359 1.154573 0.2288344
v -0.0009240044 1.203915 0.0009240044
v -0.0009240044 1.203915 0.0009240044
v -0.31107 1.154573 -0.08366126
v -0.0009240044 1.203915 0.0009240044
v -0.3228179 1.154573 0.0009240044
v -0.6000697 1.037094 -0.1611978
v -0.621216 1.037094 0.0009240044
v -0.8232808 0.8303297 -0.2199375
v -0.851476 0.8303297 0.0009240044
v -1.00185 0.6024193 -0.269279
v -1.037094 0.6024193 0.0009240044
v -1.102882 0.31107 -0.2951244
v -1.142825 0.31107 0.0009240044
v -1.159272 0.0009240044 -0.3115716
v -1.199215 0.0009240044 0.0009240044
v -1.102882 0.31107 0.2946229
v -1.159272 0.0009240044 0.31107
v -1.00185 0.6024193 0.2687774
v -0.8232808 0.8303297 0.2194359
v -0.6000697 1.037094 0.1606962
v -0.31107 1.154573 0.08315975
v -0.7363459 0.8303297 -0.4267015
v -0.5389804 1.037094 -0.3115716
v -0.2805253 1.154573 -0.1611978
v -0.0009240044 1.203915 0.0009240044
v -1.039443 0.0009240044 -0.6005713
v -0.9901018 0.31107 -0.5700266
v -0.8984677 0.6024193 -0.5183356
v -0.7363459 0.8303297 0.4262
v -0.5389804 1.037094 0.31107
v -0.4402975 1.037094 -0.4407991
v -0.2288344 1.154573 -0.2293359
v -0.0009240044 1.203915 0.0009240044
v -0.6024193 0.8303297 -0.6029208
v -0.7339964 0.6024193 -0.7321483
v -0.8068336 0.31107 -0.8073353
v -0.8491263 0.0009240044 -0.8472783
v -0.4402975 1.037094 0.4402975
v -0.6024193 0.8303297 0.6024193
v -0.8984677 0.6024193 0.5178339
v -0.9901018 0.31107 0.5718746
v -1.039443 0.0009240044 0.6000697
v -0.8068336 0.31107 0.8068336
v -0.8491263 0.0009240044 0.8491263
v -0.7339964 0.6024193 0.7339964
v -0.5718746 0.31107 -0.9882538
v -0.5178339 0.6024193 -0.8966197
v -0.4262 0.8303297 -0.7368475
v -0.31107 1.037094 -0.5394819
v -0.1606962 1.154573 -0.2786773
v -0.0009240044 1.203915 0.0009240044
v -0.6000697 0.0009240044 -1.039945
v -0.5718746 0.31107 0.9901018
v -0.6000697 0.0009240044 1.039443
v -0.1606962 1.037094 -0.6005713
v -0.08315975 1.154573 -0.3115716
v -0.0009240044 1.203915 0.0009240044
v -0.2194359 0.8303297 -0.8214328
v -0.2687774 0.6024193 -1.002351
v -0.2946229 0.31107 -1.103384
v -0.31107 0.0009240044 -1.159774
v -0.2946229 0.31107 1.102882
v -0.31107 0.0009240044 1.159272
v -0.2687774 0.6024193 1.00185
v -0.5178339 0.6024193 0.8984677
v -0.4262 0.8303297 0.7363459
v -0.31107 1.037094 0.5389804
v -0.1606962 1.154573 0.2805253
v -0.2288344 1.154573 0.2288344
v -0.2805253 1.154573 0.1606962
v -0.0009240044 1.203915 0.0009240044
v -0.0009240044 1.203915 0.0009240044
v -0.0009240044 1.203915 0.0009240044
v -0.2194359 0.8303297 0.8232808
v -0.1606962 1.037094 0.6000697
v -0.08315975 1.154573 0.31107
v -0.0009240044 1.203915 0.0009240044
v -0.0009240044 1.037094 0.621216
v -0.0009240044 0.8303297 0.851476
v -0.0009240044 0.6024193 1.037094
v -0.0009240044 0.31107 1.142825
v -0.0009240044 0.0009240044 1.199215
v -0.0009240044 1.154573 0.3228179
v -0.0009240044 1.203915 0.0009240044
v -0.0009240044 1.203915 0.0009240044
v -0.0009240044 1.154573 -0.3233195
v -0.0009240044 1.203915 0.0009240044
v -0.0009240044 1.037094 -0.6217176
v -0.0009240044 0.8303297 -0.8519775
v -0.0009240044 0.6024193 -1.037595
v -0.0009240044 0.31107 -1.140977
v -0.0009240044 0.0009240044 -1.199717
v -0.0009240044 1.203915 0.0009240044
v -0.0009240044 1.203915 0.0009240044
v 0.2786773 1.154573 -0.1611978
v 0.5394819 1.037094 -0.3115716
v 0.2293359 1.154573 -0.2293359
v -0.0009240044 1.203915 0.0009240044
v 0.4407991 1.037094 -0.4407991
v 0.1611978 1.154573 -0.2786773
v -0.0009240044 1.203915 0.0009240044
v 0.3115716 1.037094 -0.5394819
v 0.08366126 1.154573 -0.3115716
v -0.0009240044 1.203915 0.0009240044
v 0.1611978 1.037094 -0.6005713
v -0.0009240044 1.154573 -0.3233195
v -0.0009240044 1.203915 0.0009240044
v -0.0009240044 1.037094 -0.6217176
v 0.2199375 0.8303297 -0.8214328
v -0.0009240044 0.8303297 -0.8519775
v 0.269279 0.6024193 -1.002351
v -0.0009240044 0.6024193 -1.037595
v 0.2951244 0.31107 -1.103384
v -0.0009240044 0.31107 -1.140977
v 0.3115716 0.0009240044 -1.159774
v -0.0009240044 0.0009240044 -1.199717
v 0.4267015 0.8303297 -0.7368475
v 0.5183356 0.6024193 -0.8966197
v 0.5700266 0.31107 -0.9882538
v 0.6005713 0.0009240044 -1.039945
v 0.7321483 0.6024193 -0.7321483
v 0.6029208 0.8303297 -0.6029208
v 0.8073353 0.31107 -0.8073353
v 0.8472783 0.0009240044 -0.8472783
v 0.7368475 0.8303297 -0.4267015
v 0.8966197 0.6024193 -0.5183356
v 0.9882538 0.31107 -0.5700266
v 1.039945 0.0009240044 -0.6005713
vt 0.4156863 0.9686275
vt 0.1607843 1
vt 0.5019608 0.9686275
vt 0.4156863 0.7764706
vt 0.5019608 0.7764706
vt 0.4156863 0.5843138
vt 0.5019608 0.5843138
vt 0.4156863 0.3882353
vt 0.5019608 0.3882353
vt 0.4156863 0.1960784
vt 0.5019608 0.1960784
vt 0.4156863 0
vt 0.5019608 0
vt 0.5843138 0.1960784
vt 0.5843138 0
vt 0.5843138 0.3882353
vt 0.5843138 0.5843138
vt 0.5843138 0.7764706
vt 0.5843138 0.9686275
vt 0.3333333 0.5843138
vt 0.3333333 0.7764706
vt 0.3333333 0.9686275
vt 0.1607843 1
vt 0.3333333 0
vt 0.3333333 0.1960784
vt 0.3333333 0.3882353
vt 0.2509804 0
vt 0.2509804 0.1960784
vt 0.1647059 0
vt 0.1647059 0.1960784
vt 0.08235294 0
vt 0.08235294 0.1960784
vt 0 0
vt 0 0.1960784
vt 0.08235294 0.3882353
vt 0 0.3882353
vt 0.08235294 0.5843138
vt 0 0.5843138
vt 0.08235294 0.7764706
vt 0 0.7764706
vt 0.08235294 0.9686275
vt 0 0.9686275
vt 0.1607843 1
vt 0.1647059 0.3882353
vt 0.1647059 0.5843138
vt 0.1647059 0.7764706
vt 0.1647059 0.9686275
vt 0.1607843 1
vt 0.2509804 0.5843138
vt 0.2509804 0.3882353
vt 0.2509804 0.7764706
vt 0.2509804 0.9686275
vt 0.1607843 1
vt 0.1607843 1
vt 0.4156863 0.9686275
vt 0.08235294 1
vt 0.5019608 0.9686275
vt 0.4156863 0.7764706
vt 0.5019608 0.7764706
vt 0.4156863 0.5843138
vt 0.5019608 0.5843138
vt 0.4156863 0.3882353
vt 0.5019608 0.3882353
vt 0.4156863 0.1960784
vt 0.5019608 0.1960784
vt 0.4156863 0
vt 0.5019608 0
vt 0.5843138 0.1960784
vt 0.5843138 0
vt 0.5843138 0.3882353
vt 0.5843138 0.5843138
vt 0.5843138 0.7764706
vt 0.5843138 0.9686275
vt 0.3333333 0.5843138
vt 0.3333333 0.7764706
vt 0.3333333 0.9686275
vt 0.08235294 1
vt 0.3333333 0
vt 0.3333333 0.1960784
vt 0.3333333 0.3882353
vt 0.6666667 0.5843138
vt 0.6666667 0.7764706
vt 0.2509804 0.7764706
vt 0.2509804 0.9686275
vt 0.08235294 1
vt 0.2509804 0.5843138
vt 0.2509804 0.3882353
vt 0.2509804 0.1960784
vt 0.2509804 0
vt 0.7490196 0.7764706
vt 0.7490196 0.5843138
vt 0.6666667 0.3882353
vt 0.6666667 0.1960784
vt 0.6666667 0
vt 0.7490196 0.1960784
vt 0.7490196 0
vt 0.7490196 0.3882353
vt 0.1686275 0.1960784
vt 0.1686275 0.3882353
vt 0.1686275 0.5843138
vt 0.1686275 0.7764706
vt 0.1686275 0.9686275
vt 0.08235294 1
vt 0.1686275 0
vt 0.8352941 0.1960784
vt 0.8352941 0
vt 0.08235294 0.7764706
vt 0.08235294 0.9686275
vt 0.08235294 1
vt 0.08235294 0.5843138
vt 0.08235294 0.3882353
vt 0.08235294 0.1960784
vt 0.08235294 0
vt 0.9176471 0.1960784
vt 0.9176471 0
vt 0.9176471 0.3882353
vt 0.8352941 0.3882353
vt 0.8352941 0.5843138
vt 0.8352941 0.7764706
vt 0.8352941 0.9686275
vt 0.7490196 0.9686275
vt 0.6666667 0.9686275
vt 0.08235294 1
vt 0.08235294 1
vt 0.08235294 1
vt 0.9176471 0.5843138
vt 0.9176471 0.7764706
vt 0.9176471 0.9686275
vt 0.08235294 1
vt 1 0.7764706
vt 1 0.5843138
vt 1 0.3882353
vt 1 0.1960784
vt 1 0
vt 1 0.9686275
vt 0.08235294 1
vt 0.08235294 1
vt 0 0.9686275
vt 0.08235294 1
vt 0 0.7764706
vt 0 0.5843138
vt 0 0.3882353
vt 0 0.1960784
vt 0 0
vt 0.1607843 1
vt 0.1607843 1
vt 0.6666667 0.9686275
vt 0.6666667 0.7764706
vt 0.7490196 0.9686275
vt 0.1607843 1
vt 0.7490196 0.7764706
vt 0.8352941 0.9686275
vt 0.1607843 1
vt 0.8352941 0.7764706
vt 0.9176471 0.9686275
vt 0.1607843 1
vt 0.9176471 0.7764706
vt 1 0.9686275
vt 0.1607843 1
vt 1 0.7764706
vt 0.9176471 0.5843138
vt 1 0.5843138
vt 0.9176471 0.3882353
vt 1 0.3882353
vt 0.9176471 0.1960784
vt 1 0.1960784
vt 0.9176471 0
vt 1 0
vt 0.8352941 0.5843138
vt 0.8352941 0.3882353
vt 0.8352941 0.1960784
vt 0.8352941 0
vt 0.7490196 0.3882353
vt 0.7490196 0.5843138
vt 0.7490196 0.1960784
vt 0.7490196 0
vt 0.6666667 0.5843138
vt 0.6666667 0.3882353
vt 0.6666667 0.1960784
vt 0.6666667 0
vn 0.2592037 0.9684935 NaN
vn 0.007368354 0.9999729 NaN
vn 0.2592037 0.9684935 NaN
vn 0.511039 0.8425758 0.1700149
vn 0.5425184 0.8425758 NaN
vn 0.6999155 0.6851788 0.2016143
vn 0.7313949 0.6851788 NaN
vn 0.8258331 0.4963023 0.267738
vn 0.8573126 0.4963023 -0.1367449
vn 0.9202714 0.2759464 0.2774061
vn 0.9517508 0.2759464 -0.1342533
vn 0.9517508 0.1815082 0.2474372
vn 0.9832302 0.1815082 -0.01769429
vn 0.9202714 0.2759464 -0.2774061
vn 0.9517508 0.1815082 -0.2474372
vn 0.8258331 0.4963023 -0.267738
vn 0.6999155 0.6851788 -0.2016143
vn 0.511039 0.8425758 -0.1700149
vn 0.2592037 0.9684935 NaN
vn 0.6369566 0.6851788 0.3532934
vn 0.4480802 0.8425758 0.2988145
vn 0.2277243 0.9684935 0.1008066
vn 0.007368354 0.9999729 NaN
vn 0.8573126 0.1815082 0.4817364
vn 0.8258331 0.2759464 0.4917857
vn 0.7628743 0.4963023 0.4143752
vn 0.6999155 0.1815082 0.6907772
vn 0.6684361 0.2759464 0.6906857
vn 0.4795596 0.1815082 0.8585321
vn 0.4795596 0.2759464 0.8329923
vn 0.2592037 0.1815082 0.9486138
vn 0.2592037 0.2759464 0.9255631
vn 0.007368354 0.1815082 0.9833618
vn 0.007368354 0.2759464 0.9611447
vn 0.2277243 0.4963023 0.8377504
vn 0.007368354 0.4963023 0.8681185
vn 0.1962448 0.6851788 0.7014399
vn 0.007368354 0.6851788 0.7283376
vn 0.133286 0.8425758 0.5218245
vn 0.007368354 0.8425758 0.5385273
vn 0.07032718 0.9684935 0.2389025
vn 0.007368354 0.9684935 0.2489297
vn 0.007368354 0.9999729 NaN
vn 0.4480802 0.4963023 0.743578
vn 0.3536419 0.6851788 0.6367632
vn 0.2592037 0.8425758 0.472101
vn 0.133286 0.9684935 0.2103691
vn 0.007368354 0.9999729 NaN
vn 0.511039 0.6851788 0.5190078
vn 0.6054772 0.4963023 0.6221586
vn 0.3851213 0.8425758 0.3764937
vn 0.1962448 0.9684935 0.1533241
vn 0.007368354 0.9999729 NaN
vn 0.007368354 0.9999729 NaN
vn -0.244467 0.9684935 -0.04749922
vn 0.007368354 0.9999729 NaN
vn -0.244467 0.9684935 -0.04749922
vn -0.4963023 0.8425758 -0.2091648
vn -0.5277817 0.8425758 -0.1072958
vn -0.7166582 0.6851788 -0.130119
vn -0.7166582 0.6851788 -0.130119
vn -0.8425758 0.4963023 -0.2091648
vn -0.8740553 0.4963023 NaN
vn -0.9370141 0.2759464 -0.2141451
vn -0.9684935 0.2759464 NaN
vn -0.9370141 0.1815082 -0.2984281
vn -0.9684935 0.1815082 -0.1705142
vn -0.9370141 0.2759464 0.2141451
vn -0.9370141 0.1815082 0.2984281
vn -0.8425758 0.4963023 0.2091648
vn -0.7166582 0.6851788 0.130119
vn -0.4963023 0.8425758 0.2091648
vn -0.244467 0.9684935 0.04749922
vn -0.62222 0.6851788 -0.3786453
vn -0.4648229 0.8425758 -0.2720397
vn -0.2129876 0.9684935 -0.1290604
vn 0.007368354 0.9999729 NaN
vn -0.8425758 0.1815082 -0.5070707
vn -0.8425758 0.2759464 -0.4625143
vn -0.7481377 0.4963023 -0.4404248
vn -0.62222 0.6851788 0.3786453
vn -0.4648229 0.8425758 0.2720397
vn -0.3703847 0.8425758 -0.3910002
vn -0.1815082 0.9684935 -0.1705142
vn 0.007368354 0.9999729 NaN
vn -0.5277817 0.6851788 -0.5019726
vn -0.62222 0.4963023 -0.6054142
vn -0.6851788 0.2759464 -0.6740798
vn -0.6851788 0.1815082 -0.7053969
vn -0.3703847 0.8425758 0.3910002
vn -0.5277817 0.6851788 0.5019726
vn -0.7481377 0.4963023 0.4404248
vn -0.8425758 0.2759464 0.4625143
vn -0.8425758 0.1815082 0.5070707
vn -0.6851788 0.2759464 0.6740798
vn -0.6851788 0.1815082 0.7053969
vn -0.62222 0.4963023 0.6054142
vn -0.4963023 0.2759464 -0.8231267
vn -0.4333435 0.4963023 -0.7522615
vn -0.3703847 0.6851788 -0.6271724
vn -0.2759464 0.8425758 -0.4625143
vn -0.1185494 0.9684935 -0.2190122
vn 0.007368354 0.9999729 NaN
vn -0.4963023 0.1815082 -0.8489634
vn -0.4963023 0.2759464 0.8231267
vn -0.4963023 0.1815082 0.8489634
vn -0.1500288 0.8425758 -0.5172594
vn -0.05559053 0.9684935 -0.242755
vn 0.007368354 0.9999729 NaN
vn -0.1815082 0.6851788 -0.7053969
vn -0.2129876 0.4963023 -0.8416176
vn -0.244467 0.2759464 -0.9295641
vn -0.244467 0.1815082 -0.952518
vn -0.244467 0.2759464 0.9295641
vn -0.244467 0.1815082 0.952518
vn -0.2129876 0.4963023 0.8416176
vn -0.4333435 0.4963023 0.7522615
vn -0.3703847 0.6851788 0.6271724
vn -0.2759464 0.8425758 0.4625143
vn -0.1185494 0.9684935 0.2190122
vn -0.1815082 0.9684935 0.1705142
vn -0.2129876 0.9684935 0.1290604
vn 0.007368354 0.9999729 NaN
vn 0.007368354 0.9999729 NaN
vn 0.007368354 0.9999729 NaN
vn -0.1815082 0.6851788 0.7053969
vn -0.1500288 0.8425758 0.5172594
vn -0.05559053 0.9684935 0.242755
vn 0.007368354 0.9999729 NaN
vn 0.007368354 0.8425758 0.5385273
vn 0.007368354 0.6851788 0.7283376
vn 0.007368354 0.4963023 0.8681185
vn 0.007368354 0.2759464 0.9611447
vn 0.007368354 0.1815082 0.9833618
vn 0.007368354 0.9684935 0.2489297
vn 0.007368354 0.9999729 NaN
vn 0.007368354 0.9999729 NaN
vn 0.007368354 0.9684935 -0.2489297
vn 0.007368354 0.9999729 NaN
vn 0.007368354 0.8425758 -0.5385273
vn 0.007368354 0.6851788 -0.7283376
vn 0.007368354 0.4963023 -0.8681185
vn 0.007368354 0.2759464 -0.9611447
vn 0.007368354 0.1815082 -0.9833618
vn 0.007368354 0.9999729 NaN
vn 0.007368354 0.9999729 NaN
vn 0.2277243 0.9684935 -0.1008066
vn 0.4480802 0.8425758 -0.2988145
vn 0.1962448 0.9684935 -0.1533241
vn 0.007368354 0.9999729 NaN
vn 0.3851213 0.8425758 -0.3764937
vn 0.133286 0.9684935 -0.2103691
vn 0.007368354 0.9999729 NaN
vn 0.2592037 0.8425758 -0.472101
vn 0.07032718 0.9684935 -0.2389025
vn 0.007368354 0.9999729 NaN
vn 0.133286 0.8425758 -0.5218245
vn 0.007368354 0.9684935 -0.2489297
vn 0.007368354 0.9999729 NaN
vn 0.007368354 0.8425758 -0.5385273
vn 0.1962448 0.6851788 -0.7014399
vn 0.007368354 0.6851788 -0.7283376
vn 0.2277243 0.4963023 -0.8377504
vn 0.007368354 0.4963023 -0.8681185
vn 0.2592037 0.2759464 -0.9255631
vn 0.007368354 0.2759464 -0.9611447
vn 0.2592037 0.1815082 -0.9486138
vn 0.007368354 0.1815082 -0.9833618
vn 0.3536419 0.6851788 -0.6367632
vn 0.4480802 0.4963023 -0.743578
vn 0.4795596 0.2759464 -0.8329923
vn 0.4795596 0.1815082 -0.8585321
vn 0.6054772 0.4963023 -0.6221586
vn 0.511039 0.6851788 -0.5190078
vn 0.6684361 0.2759464 -0.6906857
vn 0.6999155 0.1815082 -0.6907772
vn 0.6369566 0.6851788 -0.3532934
vn 0.7628743 0.4963023 -0.4143752
vn 0.8258331 0.2759464 -0.4917857
vn 0.8573126 0.1815082 -0.4817364
f 3/3/3 2/2/2 1/1/1
f 3/3/3 1/1/1 4/4/4
f 5/5/5 3/3/3 4/4/4
f 5/5/5 4/4/4 6/6/6
f 7/7/7 5/5/5 6/6/6
f 7/7/7 6/6/6 8/8/8
f 9/9/9 7/7/7 8/8/8
f 9/9/9 8/8/8 10/10/10
f 11/11/11 9/9/9 10/10/10
f 11/11/11 10/10/10 12/12/12
f 13/13/13 11/11/11 12/12/12
f 14/14/14 11/11/11 13/13/13
f 15/15/15 14/14/14 13/13/13
f 16/16/16 9/9/9 11/11/11
f 14/14/14 16/16/16 11/11/11
f 17/17/17 7/7/7 9/9/9
f 16/16/16 17/17/17 9/9/9
f 18/18/18 5/5/5 7/7/7
f 17/17/17 18/18/18 7/7/7
f 19/19/19 3/3/3 5/5/5
f 18/18/18 19/19/19 5/5/5
f 6/6/6 4/4/4 20/20/20
f 4/4/4 21/21/21 20/20/20
f 4/4/4 1/1/1 21/21/21
f 1/1/1 22/22/22 21/21/21
f 1/1/1 23/23/23 22/22/22
f 12/12/12 10/10/10 24/24/24
f 10/10/10 25/25/25 24/24/24
f 10/10/10 8/8/8 25/25/25
f 8/8/8 26/26/26 25/25/25
f 6/6/6 20/20/20 26/26/26
f 8/8/8 6/6/6 26/26/26
f 24/24/24 25/25/25 27/27/27
f 25/25/25 28/28/28 27/27/27
f 25/25/25 26/26/26 28/28/28
f 27/27/27 28/28/28 29/29/29
f 28/28/28 30/30/30 29/29/29
f 29/29/29 30/30/30 31/31/31
f 30/30/30 32/32/32 31/31/31
f 31/31/31 32/32/32 33/33/33
f 32/32/32 34/34/34 33/33/33
f 32/32/32 35/35/35 34/34/34
f 35/35/35 36/36/36 34/34/34
f 35/35/35 37/37/37 36/36/36
f 37/37/37 38/38/38 36/36/36
f 37/37/37 39/39/39 38/38/38
f 39/39/39 40/40/40 38/38/38
f 39/39/39 41/41/41 40/40/40
f 41/41/41 42/42/42 40/40/40
f 41/41/41 43/43/43 42/42/42
f 44/44/44 35/35/35 32/32/32
f 30/30/30 44/44/44 32/32/32
f 45/45/45 37/37/37 35/35/35
f 44/44/44 45/45/45 35/35/35
f 46/46/46 39/39/39 37/37/37
f 45/45/45 46/46/46 37/37/37
f 47/47/47 41/41/41 39/39/39
f 46/46/46 47/47/47 39/39/39
f 47/47/47 48/48/48 41/41/41
f 49/49/49 45/45/45 44/44/44
f 50/50/50 49/49/49 44/44/44
f 50/50/50 44/44/44 30/30/30
f 28/28/28 50/50/50 30/30/30
f 51/51/51 46/46/46 45/45/45
f 49/49/49 51/51/51 45/45/45
f 52/52/52 47/47/47 46/46/46
f 51/51/51 52/52/52 46/46/46
f 52/52/52 53/53/53 47/47/47
f 26/26/26 50/50/50 28/28/28
f 20/20/20 49/49/49 50/50/50
f 26/26/26 20/20/20 50/50/50
f 21/21/21 51/51/51 49/49/49
f 20/20/20 21/21/21 49/49/49
f 22/22/22 52/52/52 51/51/51
f 21/21/21 22/22/22 51/51/51
f 22/22/22 54/54/54 52/52/52
f 57/57/57 56/56/56 55/55/55
f 57/57/57 55/55/55 58/58/58
f 59/59/59 57/57/57 58/58/58
f 59/59/59 58/58/58 60/60/60
f 61/61/61 59/59/59 60/60/60
f 61/61/61 60/60/60 62/62/62
f 63/63/63 61/61/61 62/62/62
f 63/63/63 62/62/62 64/64/64
f 65/65/65 63/63/63 64/64/64
f 65/65/65 64/64/64 66/66/66
f 67/67/67 65/65/65 66/66/66
f 68/68/68 65/65/65 67/67/67
f 69/69/69 68/68/68 67/67/67
f 70/70/70 63/63/63 65/65/65
f 68/68/68 70/70/70 65/65/65
f 71/71/71 61/61/61 63/63/63
f 70/70/70 71/71/71 63/63/63
f 72/72/72 59/59/59 61/61/61
f 71/71/71 72/72/72 61/61/61
f 73/73/73 57/57/57 59/59/59
f 72/72/72 73/73/73 59/59/59
f 60/60/60 58/58/58 74/74/74
f 58/58/58 75/75/75 74/74/74
f 58/58/58 55/55/55 75/75/75
f 55/55/55 76/76/76 75/75/75
f 55/55/55 77/77/77 76/76/76
f 66/66/66 64/64/64 78/78/78
f 64/64/64 79/79/79 78/78/78
f 64/64/64 62/62/62 79/79/79
f 62/62/62 80/80/80 79/79/79
f 60/60/60 74/74/74 80/80/80
f 62/62/62 60/60/60 80/80/80
f 81/81/81 71/71/71 70/70/70
f 82/82/82 72/72/72 71/71/71
f 81/81/81 82/82/82 71/71/71
f 75/75/75 76/76/76 83/83/83
f 76/76/76 84/84/84 83/83/83
f 76/76/76 85/85/85 84/84/84
f 75/75/75 83/83/83 86/86/86
f 74/74/74 75/75/75 86/86/86
f 74/74/74 86/86/86 87/87/87
f 80/80/80 74/74/74 87/87/87
f 80/80/80 87/87/87 88/88/88
f 79/79/79 80/80/80 88/88/88
f 79/79/79 88/88/88 89/89/89
f 78/78/78 79/79/79 89/89/89
f 90/90/90 82/82/82 81/81/81
f 91/91/91 90/90/90 81/81/81
f 91/91/91 81/81/81 92/92/92
f 92/92/92 81/81/81 70/70/70
f 92/92/92 70/70/70 68/68/68
f 93/93/93 92/92/92 68/68/68
f 93/93/93 68/68/68 69/69/69
f 94/94/94 93/93/93 69/69/69
f 95/95/95 93/93/93 94/94/94
f 96/96/96 95/95/95 94/94/94
f 97/97/97 92/92/92 93/93/93
f 95/95/95 97/97/97 93/93/93
f 97/97/97 91/91/91 92/92/92
f 88/88/88 87/87/87 98/98/98
f 87/87/87 99/99/99 98/98/98
f 87/87/87 86/86/86 99/99/99
f 86/86/86 100/100/100 99/99/99
f 86/86/86 83/83/83 100/100/100
f 83/83/83 101/101/101 100/100/100
f 83/83/83 84/84/84 101/101/101
f 84/84/84 102/102/102 101/101/101
f 84/84/84 103/103/103 102/102/102
f 88/88/88 98/98/98 104/104/104
f 89/89/89 88/88/88 104/104/104
f 105/105/105 95/95/95 96/96/96
f 106/106/106 105/105/105 96/96/96
f 101/101/101 102/102/102 107/107/107
f 102/102/102 108/108/108 107/107/107
f 102/102/102 109/109/109 108/108/108
f 101/101/101 107/107/107 110/110/110
f 100/100/100 101/101/101 110/110/110
f 100/100/100 110/110/110 111/111/111
f 99/99/99 100/100/100 111/111/111
f 99/99/99 111/111/111 112/112/112
f 98/98/98 99/99/99 112/112/112
f 98/98/98 112/112/112 113/113/113
f 104/104/104 98/98/98 113/113/113
f 114/114/114 105/105/105 106/106/106
f 115/115/115 114/114/114 106/106/106
f 114/114/114 116/116/116 105/105/105
f 116/116/116 117/117/117 105/105/105
f 105/105/105 117/117/117 95/95/95
f 117/117/117 97/97/97 95/95/95
f 117/117/117 118/118/118 97/97/97
f 118/118/118 91/91/91 97/97/97
f 118/118/118 119/119/119 91/91/91
f 119/119/119 90/90/90 91/91/91
f 119/119/119 120/120/120 90/90/90
f 120/120/120 121/121/121 90/90/90
f 90/90/90 121/121/121 82/82/82
f 121/121/121 122/122/122 82/82/82
f 82/82/82 122/122/122 72/72/72
f 122/122/122 73/73/73 72/72/72
f 122/122/122 123/123/123 73/73/73
f 121/121/121 124/124/124 122/122/122
f 120/120/120 125/125/125 121/121/121
f 126/126/126 118/118/118 117/117/117
f 127/127/127 119/119/119 118/118/118
f 126/126/126 127/127/127 118/118/118
f 128/128/128 120/120/120 119/119/119
f 127/127/127 128/128/128 119/119/119
f 128/128/128 129/129/129 120/120/120
f 130/130/130 127/127/127 126/126/126
f 131/131/131 130/130/130 126/126/126
f 131/131/131 126/126/126 116/116/116
f 116/116/116 126/126/126 117/117/117
f 132/132/132 131/131/131 116/116/116
f 132/132/132 116/116/116 114/114/114
f 133/133/133 132/132/132 114/114/114
f 133/133/133 114/114/114 115/115/115
f 134/134/134 133/133/133 115/115/115
f 135/135/135 128/128/128 127/127/127
f 130/130/130 135/135/135 127/127/127
f 135/135/135 136/136/136 128/128/128
f 73/73/73 137/137/137 57/57/57
f 108/108/108 139/139/139 138/138/138
f 108/108/108 138/138/138 140/140/140
f 107/107/107 108/108/108 140/140/140
f 107/107/107 140/140/140 141/141/141
f 110/110/110 107/107/107 141/141/141
f 110/110/110 141/141/141 142/142/142
f 111/111/111 110/110/110 142/142/142
f 111/111/111 142/142/142 143/143/143
f 112/112/112 111/111/111 143/143/143
f 112/112/112 143/143/143 144/144/144
f 113/113/113 112/112/112 144/144/144
f 19/19/19 145/145/145 3/3/3
f 147/147/147 146/146/146 19/19/19
f 147/147/147 19/19/19 18/18/18
f 148/148/148 147/147/147 18/18/18
f 149/149/149 147/147/147 148/148/148
f 149/149/149 150/150/150 147/147/147
f 151/151/151 149/149/149 148/148/148
f 152/152/152 149/149/149 151/151/151
f 152/152/152 153/153/153 149/149/149
f 154/154/154 152/152/152 151/151/151
f 155/155/155 152/152/152 154/154/154
f 155/155/155 156/156/156 152/152/152
f 157/157/157 155/155/155 154/154/154
f 158/158/158 155/155/155 157/157/157
f 158/158/158 159/159/159 155/155/155
f 160/160/160 158/158/158 157/157/157
f 160/160/160 157/157/157 161/161/161
f 162/162/162 160/160/160 161/161/161
f 162/162/162 161/161/161 163/163/163
f 164/164/164 162/162/162 163/163/163
f 164/164/164 163/163/163 165/165/165
f 166/166/166 164/164/164 165/165/165
f 166/166/166 165/165/165 167/167/167
f 168/168/168 166/166/166 167/167/167
f 157/157/157 154/154/154 169/169/169
f 161/161/161 157/157/157 169/169/169
f 161/161/161 169/169/169 170/170/170
f 163/163/163 161/161/161 170/170/170
f 163/163/163 170/170/170 171/171/171
f 165/165/165 163/163/163 171/171/171
f 165/165/165 171/171/171 172/172/172
f 167/167/167 165/165/165 172/172/172
f 170/170/170 169/169/169 173/173/173
f 169/169/169 174/174/174 173/173/173
f 169/169/169 154/154/154 174/174/174
f 154/154/154 151/151/151 174/174/174
f 170/170/170 173/173/173 175/175/175
f 171/171/171 170/170/170 175/175/175
f 171/171/171 175/175/175 176/176/176
f 172/172/172 171/171/171 176/176/176
f 174/174/174 151/151/151 177/177/177
f 151/151/151 148/148/148 177/177/177
f 174/174/174 177/177/177 178/178/178
f 173/173/173 174/174/174 178/178/178
f 173/173/173 178/178/178 179/179/179
f 175/175/175 173/173/173 179/179/179
f 175/175/175 179/179/179 180/180/180
f 176/176/176 175/175/175 180/180/180
f 180/180/180 179/179/179 15/15/15
f 179/179/179 14/14/14 15/15/15
f 179/179/179 178/178/178 14/14/14
f 178/178/178 16/16/16 14/14/14
f 178/178/178 177/177/177 16/16/16
f 177/177/177 17/17/17 16/16/16
f 177/177/177 148/148/148 17/17/17
f 148/148/148 18/18/18 17/17/17
