g earth_leave3
v -0.4438828 0.1568437 0.3324108
v -0.582069 0.3070126 0.5560489
v -0.5000001 0.1490522 0.6403812
v -0.3812974 0.06236799 0.3611932
v -0.6071299 0.3784018 0.9966983
v -0.6672428 0.5792757 0.8262401
v -0.545966 0.7001429 1.342291
v -0.6126293 0.9215098 1.105361
v -0.3820128 1.133875 1.610529
v -0.4776878 1.204526 1.332391
v -0.165543 1.624216 1.715981
v -0.1826197 1.655812 1.508135
v 0.002006108 1.713292 1.566034
v 0.1826195 1.655812 1.508135
v 0.1655428 1.624216 1.715981
v 0.002006108 1.705356 1.73945
v -0.1826197 1.655812 1.508135
v -0.165543 1.624216 1.715981
v 0.5820688 0.3070126 0.5560489
v 0.4438825 0.1568437 0.3324108
v 0.3812972 0.06236799 0.3611932
v 0.4999999 0.1490522 0.6403812
v 0.6672425 0.5792757 0.8262401
v 0.6071297 0.3784018 0.9966983
v 0.6126291 0.9215098 1.105361
v 0.5459658 0.7001429 1.342291
v 0.4776876 1.204526 1.332391
v 0.3820125 1.133875 1.610529
v 0.1826195 1.655812 1.508135
v 0.1655428 1.624216 1.715981
v 0.4438825 0.1568437 0.3324108
v 0.007137008 0.1568437 0.5098825
v 0.007137008 0.06236799 0.5063936
v 0.3812972 0.06236799 0.3611932
v -0.3812974 0.06236799 0.3611932
v -0.4438828 0.1568437 0.3324108
v 0.007137008 0.06236799 0.5063936
v 0.009358884 0.06968887 0.7855816
v 0.4999999 0.1490522 0.6403812
v 0.3812972 0.06236799 0.3611932
v 0.6071297 0.3784018 0.9966983
v 0.01089226 0.2376209 1.11088
v 0.5459658 0.7001429 1.342291
v 0.009794928 0.5873237 1.492218
v 0.007150397 1.078658 1.732818
v 0.3820125 1.133875 1.610529
v 0.1655428 1.624216 1.715981
v 0.002006108 1.705356 1.73945
v -0.6071299 0.3784018 0.9966983
v -0.545966 0.7001429 1.342291
v -0.5000001 0.1490522 0.6403812
v -0.3812974 0.06236799 0.3611932
v -0.3820128 1.133875 1.610529
v -0.165543 1.624216 1.715981
v 0.4438825 0.1568437 0.3324108
v 0.5820688 0.3070126 0.5560489
v 0.009358884 0.2276493 0.7335206
v 0.007137008 0.1568437 0.5098825
v 0.01089226 0.4280763 0.9186305
v 0.6672425 0.5792757 0.8262401
v 0.009794928 0.8086906 1.26029
v 0.6126291 0.9215098 1.105361
v 0.007150397 1.180865 1.509863
v 0.4776876 1.204526 1.332391
v 0.002006108 1.713292 1.566034
v 0.1826195 1.655812 1.508135
v -0.4438828 0.1568437 0.3324108
v -0.582069 0.3070126 0.5560489
v -0.6672428 0.5792757 0.8262401
v -0.6126293 0.9215098 1.105361
v -0.4776878 1.204526 1.332391
v -0.1826197 1.655812 1.508135
vt 0.9165127 0.8621175
vt 0.9247211 0.8422475
vt 0.916801 0.8362246
vt 0.9137297 0.8580412
vt 0.9212736 0.8054388
vt 0.9325607 0.8167702
vt 0.9190986 0.7751626
vt 0.9367462 0.7857814
vt 0.910672 0.751366
vt 0.9308918 0.7569849
vt 0.8995794 0.7331674
vt 0.9112971 0.7269281
vt 0.8956506 0.7264093
vt 0.8802845 0.7270494
vt 0.8920743 0.7331666
vt 0.8957852 0.7329966
vt 0.9112971 0.7269281
vt 0.8995794 0.7331674
vt 0.8680097 0.8425373
vt 0.8763829 0.862294
vt 0.8791183 0.8581911
vt 0.8758807 0.8364507
vt 0.8599138 0.8171475
vt 0.8710777 0.805697
vt 0.8554036 0.7861838
vt 0.8729398 0.7753747
vt 0.8609694 0.7573076
vt 0.8811331 0.751472
vt 0.8802845 0.7270494
vt 0.8920743 0.7331666
vt 0.8763829 0.862294
vt 0.8961455 0.8534192
vt 0.8961205 0.8496588
vt 0.8791183 0.8581911
vt 0.9137297 0.8580412
vt 0.9165127 0.8621175
vt 0.8961205 0.8496588
vt 0.8959295 0.826277
vt 0.8758807 0.8364507
vt 0.8791183 0.8581911
vt 0.8710777 0.805697
vt 0.8957447 0.8000789
vt 0.8729398 0.7753747
vt 0.8956639 0.7708267
vt 0.8956962 0.7499621
vt 0.8811331 0.751472
vt 0.8920743 0.7331666
vt 0.8957852 0.7329966
vt 0.9212736 0.8054388
vt 0.9190986 0.7751626
vt 0.916801 0.8362246
vt 0.9137297 0.8580412
vt 0.910672 0.751366
vt 0.8995794 0.7331674
vt 0.8614444 0.4821027
vt 0.8558736 0.4934162
vt 0.8796559 0.4992641
vt 0.8797868 0.4802724
vt 0.8795488 0.5166494
vt 0.8517019 0.511971
vt 0.8795126 0.5489221
vt 0.8530925 0.5399917
vt 0.8795936 0.5730444
vt 0.8581203 0.5634212
vt 0.8797122 0.5932809
vt 0.8702613 0.5896521
vt 0.8987686 0.4822118
vt 0.9042262 0.4935537
vt 0.9082472 0.512115
vt 0.9067021 0.5401153
vt 0.9015599 0.5634807
vt 0.8892689 0.589615
vn -0.8225275 -0.5446692 -0.1636581
vn -0.9103484 -0.4122404 -0.0363841
vn -0.8999646 -0.4324898 -0.05491984
vn -0.8225275 -0.5446692 -0.1636581
vn -0.9714453 -0.1836164 0.1502636
vn -0.9721259 -0.1730581 0.1581835
vn -0.9516282 0.03676986 0.3050437
vn -0.9510947 0.03890927 0.3064391
vn -0.9030004 0.2848086 0.3216743
vn -0.9118953 0.2336829 0.3374006
vn -0.8753647 0.3903656 0.2852215
vn -0.8753647 0.3903657 0.2852215
vn 0.0006023486 0.9925432 0.1218918
vn 0.3939759 0.9122426 0.1122344
vn 0.3939759 0.9122426 0.1122344
vn -0.0002969695 0.9925434 0.1218914
vn -0.3862891 0.9155242 0.1122326
vn -0.386289 0.9155242 0.1122326
vn 0.9103484 -0.4122404 -0.03638423
vn 0.8225276 -0.5446694 -0.1636568
vn 0.8225276 -0.5446694 -0.1636568
vn 0.8999646 -0.4324898 -0.05491977
vn 0.972126 -0.1730581 0.1581832
vn 0.9714453 -0.1836164 0.1502634
vn 0.9510947 0.03890931 0.3064389
vn 0.9516283 0.0367699 0.3050435
vn 0.9118955 0.2336828 0.3374004
vn 0.9030005 0.2848085 0.3216741
vn 0.8753648 0.3903655 0.2852214
vn 0.8753648 0.3903655 0.2852214
vn -0.3697193 -0.001916736 -0.9291415
vn 4.772013E-05 -0.00434307 -0.9999906
vn -5.30208E-05 -0.004342492 -0.9999906
vn -0.3697193 -0.001916736 -0.9291415
vn 0.3587836 -0.006109324 -0.9334008
vn 0.3587836 -0.006109324 -0.9334008
vn -0.0001205187 -0.9904171 0.1381083
vn -1.744143E-05 -0.928045 0.372468
vn 0.2349916 -0.9065337 0.3506787
vn 0.1356783 -0.9813963 0.1358406
vn 0.2982368 -0.7602489 0.5771278
vn 0.000456163 -0.7982711 0.6022981
vn 0.3205799 -0.5846487 0.7452614
vn 4.457797E-05 -0.5978987 0.8015717
vn -0.0002984322 -0.3005294 0.9537725
vn 0.3143929 -0.3100689 0.8972259
vn 0.2590092 -0.04542258 0.9648062
vn -0.003021848 -0.04916951 0.9987859
vn -0.2885714 -0.7624463 0.5791392
vn -0.3102894 -0.5885016 0.7465832
vn -0.2276955 -0.9069947 0.3542815
vn -0.1313752 -0.9816989 0.1378686
vn -0.3044421 -0.3148933 0.8989757
vn -0.2508097 -0.0495562 0.9667671
vn -0.2048788 0.9015513 -0.3810904
vn -0.2558782 0.7745235 -0.5784805
vn 0.0001212348 0.8017402 -0.5976727
vn 0.000444013 0.9204141 -0.3909447
vn -0.0005804637 0.6743883 -0.7383767
vn -0.2752613 0.6435107 -0.7142304
vn -0.0002136091 0.6001902 -0.7998572
vn -0.2877402 0.5814078 -0.7610326
vn 8.278176E-05 0.3667984 -0.9303005
vn -0.3231501 0.41986 -0.8481106
vn 0.003414148 0.1297698 -0.9915382
vn -0.3320312 0.1192648 -0.9356983
vn 0.1995654 0.9012554 -0.3845938
vn 0.2487396 0.7738183 -0.5825236
vn 0.2671537 0.6449752 -0.7159859
vn 0.2793596 0.5845028 -0.7617838
vn 0.3141491 0.4250624 -0.8489006
vn 0.3233816 0.1257986 -0.9378694
f 3/3/3 2/2/2 1/1/1
f 4/4/4 3/3/3 1/1/1
f 3/3/3 5/5/5 2/2/2
f 5/5/5 6/6/6 2/2/2
f 5/5/5 7/7/7 6/6/6
f 7/7/7 8/8/8 6/6/6
f 7/7/7 9/9/9 8/8/8
f 9/9/9 10/10/10 8/8/8
f 9/9/9 11/11/11 10/10/10
f 11/11/11 12/12/12 10/10/10
f 15/15/15 14/14/14 13/13/13
f 16/16/16 15/15/15 13/13/13
f 16/16/16 13/13/13 17/17/17
f 18/18/18 16/16/16 17/17/17
f 21/21/21 20/20/20 19/19/19
f 22/22/22 21/21/21 19/19/19
f 22/22/22 19/19/19 23/23/23
f 24/24/24 22/22/22 23/23/23
f 24/24/24 23/23/23 25/25/25
f 26/26/26 24/24/24 25/25/25
f 26/26/26 25/25/25 27/27/27
f 28/28/28 26/26/26 27/27/27
f 28/28/28 27/27/27 29/29/29
f 30/30/30 28/28/28 29/29/29
f 33/33/33 32/32/32 31/31/31
f 34/34/34 33/33/33 31/31/31
f 33/33/33 35/35/35 32/32/32
f 35/35/35 36/36/36 32/32/32
f 39/39/39 38/38/38 37/37/37
f 40/40/40 39/39/39 37/37/37
f 39/39/39 41/41/41 38/38/38
f 41/41/41 42/42/42 38/38/38
f 41/41/41 43/43/43 42/42/42
f 43/43/43 44/44/44 42/42/42
f 44/44/44 43/43/43 45/45/45
f 43/43/43 46/46/46 45/45/45
f 46/46/46 47/47/47 45/45/45
f 47/47/47 48/48/48 45/45/45
f 42/42/42 44/44/44 49/49/49
f 44/44/44 50/50/50 49/49/49
f 44/44/44 45/45/45 50/50/50
f 42/42/42 49/49/49 51/51/51
f 38/38/38 42/42/42 51/51/51
f 38/38/38 51/51/51 52/52/52
f 37/37/37 38/38/38 52/52/52
f 45/45/45 48/48/48 53/53/53
f 45/45/45 53/53/53 50/50/50
f 48/48/48 54/54/54 53/53/53
f 57/57/57 56/56/56 55/55/55
f 58/58/58 57/57/57 55/55/55
f 57/57/57 59/59/59 56/56/56
f 59/59/59 60/60/60 56/56/56
f 59/59/59 61/61/61 60/60/60
f 61/61/61 62/62/62 60/60/60
f 61/61/61 63/63/63 62/62/62
f 63/63/63 64/64/64 62/62/62
f 63/63/63 65/65/65 64/64/64
f 65/65/65 66/66/66 64/64/64
f 58/58/58 67/67/67 57/57/57
f 67/67/67 68/68/68 57/57/57
f 57/57/57 68/68/68 59/59/59
f 68/68/68 69/69/69 59/59/59
f 59/59/59 69/69/69 61/61/61
f 69/69/69 70/70/70 61/61/61
f 61/61/61 70/70/70 63/63/63
f 70/70/70 71/71/71 63/63/63
f 63/63/63 71/71/71 65/65/65
f 71/71/71 72/72/72 65/65/65
