g fire_core
v -1.654836 -0.01230001 -0.568109
v -1.420506 0.7124653 -0.8024378
v -0.8011661 0.7124653 -0.8024378
v -0.5668375 -0.01230001 -0.568109
v -1.420506 0.7124653 -1.421779
v -1.654836 -0.01230001 -1.656107
v -0.5668375 -0.01230001 -1.656107
v -0.8011661 0.7124653 -1.421779
v -1.654836 -0.01230001 -1.656107
v -1.654836 -0.01230001 -0.568109
v -0.5668375 -0.01230001 -0.568109
v -0.5668375 -0.01230001 -1.656107
v -0.5668375 -0.01230001 -0.568109
v -0.8011661 0.7124653 -0.8024378
v -0.8011661 0.7124653 -1.421779
v -0.5668375 -0.01230001 -1.656107
v -1.654836 -0.01230001 -1.656107
v -1.420506 0.7124653 -1.421779
v -1.420506 0.7124653 -0.8024378
v -1.654836 -0.01230001 -0.568109
v -1.420506 0.7124653 -0.8024378
v -1.343431 0.7124653 -0.8795142
v -0.8782425 0.7124653 -0.8795142
v -0.8011661 0.7124653 -0.8024378
v -0.8782425 0.7124653 -1.344702
v -0.8011661 0.7124653 -1.421779
v -1.343431 0.7124653 -1.344702
v -1.420506 0.7124653 -1.421779
v -1.343431 0.7124653 -0.8795142
v -1.110837 1.065521 -1.112108
v -0.8782425 0.7124653 -0.8795142
v -0.8782425 0.7124653 -0.8795142
v -1.110837 1.065521 -1.112108
v -0.8782425 0.7124653 -1.344702
v -0.8782425 0.7124653 -1.344702
v -1.110837 1.065521 -1.112108
v -1.343431 0.7124653 -1.344702
v -1.343431 0.7124653 -1.344702
v -1.110837 1.065521 -1.112108
v -1.343431 0.7124653 -0.8795142
v -1.654836 -0.01230001 1.656543
v -1.420506 0.7124653 1.422215
v -0.8011661 0.7124653 1.422215
v -0.5668375 -0.01230001 1.656543
v -1.420506 0.7124653 0.8028736
v -1.654836 -0.01230001 0.5685449
v -0.5668375 -0.01230001 0.5685449
v -0.8011661 0.7124653 0.8028736
v -1.654836 -0.01230001 0.5685449
v -1.654836 -0.01230001 1.656543
v -0.5668375 -0.01230001 1.656543
v -0.5668375 -0.01230001 0.5685449
v -0.5668375 -0.01230001 1.656543
v -0.8011661 0.7124653 1.422215
v -0.8011661 0.7124653 0.8028736
v -0.5668375 -0.01230001 0.5685449
v -1.654836 -0.01230001 0.5685449
v -1.420506 0.7124653 0.8028736
v -1.420506 0.7124653 1.422215
v -1.654836 -0.01230001 1.656543
v -1.420506 0.7124653 1.422215
v -1.343431 0.7124653 1.345138
v -0.8782425 0.7124653 1.345138
v -0.8011661 0.7124653 1.422215
v -0.8782425 0.7124653 0.87995
v -0.8011661 0.7124653 0.8028736
v -1.343431 0.7124653 0.87995
v -1.420506 0.7124653 0.8028736
v -1.343431 0.7124653 1.345138
v -1.110837 1.065521 1.112544
v -0.8782425 0.7124653 1.345138
v -0.8782425 0.7124653 1.345138
v -1.110837 1.065521 1.112544
v -0.8782425 0.7124653 0.87995
v -0.8782425 0.7124653 0.87995
v -1.110837 1.065521 1.112544
v -1.343431 0.7124653 0.87995
v -1.343431 0.7124653 0.87995
v -1.110837 1.065521 1.112544
v -1.343431 0.7124653 1.345138
v 0.5703616 -0.01230001 -0.568109
v 0.8046904 0.7124653 -0.8024378
v 1.424031 0.7124653 -0.8024378
v 1.65836 -0.01230001 -0.568109
v 0.8046904 0.7124653 -1.421779
v 0.5703616 -0.01230001 -1.656107
v 1.65836 -0.01230001 -1.656107
v 1.424031 0.7124653 -1.421779
v 0.5703616 -0.01230001 -1.656107
v 0.5703616 -0.01230001 -0.568109
v 1.65836 -0.01230001 -0.568109
v 1.65836 -0.01230001 -1.656107
v 1.65836 -0.01230001 -0.568109
v 1.424031 0.7124653 -0.8024378
v 1.424031 0.7124653 -1.421779
v 1.65836 -0.01230001 -1.656107
v 0.5703616 -0.01230001 -1.656107
v 0.8046904 0.7124653 -1.421779
v 0.8046904 0.7124653 -0.8024378
v 0.5703616 -0.01230001 -0.568109
v 0.8046904 0.7124653 -0.8024378
v 0.8817663 0.7124653 -0.8795142
v 1.346954 0.7124653 -0.8795142
v 1.424031 0.7124653 -0.8024378
v 1.346954 0.7124653 -1.344702
v 1.424031 0.7124653 -1.421779
v 0.8817663 0.7124653 -1.344702
v 0.8046904 0.7124653 -1.421779
v 0.8817663 0.7124653 -0.8795142
v 1.114361 1.065521 -1.112108
v 1.346954 0.7124653 -0.8795142
v 1.346954 0.7124653 -0.8795142
v 1.114361 1.065521 -1.112108
v 1.346954 0.7124653 -1.344702
v 1.346954 0.7124653 -1.344702
v 1.114361 1.065521 -1.112108
v 0.8817663 0.7124653 -1.344702
v 0.8817663 0.7124653 -1.344702
v 1.114361 1.065521 -1.112108
v 0.8817663 0.7124653 -0.8795142
v 0.5703616 -0.01230001 1.656543
v 0.8046904 0.7124653 1.422215
v 1.424031 0.7124653 1.422215
v 1.65836 -0.01230001 1.656543
v 0.8046904 0.7124653 0.8028736
v 0.5703616 -0.01230001 0.5685449
v 1.65836 -0.01230001 0.5685449
v 1.424031 0.7124653 0.8028736
v 0.5703616 -0.01230001 0.5685449
v 0.5703616 -0.01230001 1.656543
v 1.65836 -0.01230001 1.656543
v 1.65836 -0.01230001 0.5685449
v 1.65836 -0.01230001 1.656543
v 1.424031 0.7124653 1.422215
v 1.424031 0.7124653 0.8028736
v 1.65836 -0.01230001 0.5685449
v 0.5703616 -0.01230001 0.5685449
v 0.8046904 0.7124653 0.8028736
v 0.8046904 0.7124653 1.422215
v 0.5703616 -0.01230001 1.656543
v 0.8046904 0.7124653 1.422215
v 0.8817663 0.7124653 1.345138
v 1.346954 0.7124653 1.345138
v 1.424031 0.7124653 1.422215
v 1.346954 0.7124653 0.87995
v 1.424031 0.7124653 0.8028736
v 0.8817663 0.7124653 0.87995
v 0.8046904 0.7124653 0.8028736
v 0.8817663 0.7124653 1.345138
v 1.114361 1.065521 1.112544
v 1.346954 0.7124653 1.345138
v 1.346954 0.7124653 1.345138
v 1.114361 1.065521 1.112544
v 1.346954 0.7124653 0.87995
v 1.346954 0.7124653 0.87995
v 1.114361 1.065521 1.112544
v 0.8817663 0.7124653 0.87995
v 0.8817663 0.7124653 0.87995
v 1.114361 1.065521 1.112544
v 0.8817663 0.7124653 1.345138
v -1.479222 -0.01675844 1.479222
v -1.203341 0.2805557 1.203341
v 1.203341 0.2805557 1.203341
v 1.479222 -0.01675844 1.479222
v 1.133949 0.3270922 1.133949
v -1.133949 0.3270922 1.133949
v 1.062564 0.2822008 1.062564
v -1.062564 0.2822008 1.062564
v 0.9203916 0.07158089 0.9203916
v -0.9203916 0.07158089 0.9203916
v -0.9203916 0.07158089 0.9203916
v -0.9203916 0.07158089 -0.9203916
v 0.9203916 0.07158089 -0.9203916
v 0.9203916 0.07158089 0.9203916
v -1.203341 0.2805557 -1.203341
v -1.479222 -0.01675844 -1.479222
v 1.479222 -0.01675844 -1.479222
v 1.203341 0.2805557 -1.203341
v -1.133949 0.3270922 -1.133949
v 1.133949 0.3270922 -1.133949
v -1.062564 0.2822008 -1.062564
v 1.062564 0.2822008 -1.062564
v -0.9203916 0.07158089 -0.9203916
v 0.9203916 0.07158089 -0.9203916
v -1.479222 -0.01675844 -1.479222
v -1.479222 -0.01675844 1.479222
v 1.479222 -0.01675844 1.479222
v 1.479222 -0.01675844 -1.479222
v 1.479222 -0.01675844 1.479222
v 1.203341 0.2805557 1.203341
v 1.203341 0.2805557 -1.203341
v 1.479222 -0.01675844 -1.479222
v 1.133949 0.3270922 -1.133949
v 1.133949 0.3270922 1.133949
v 1.062564 0.2822008 -1.062564
v 1.062564 0.2822008 1.062564
v 0.9203916 0.07158089 -0.9203916
v 0.9203916 0.07158089 0.9203916
v -1.479222 -0.01675844 -1.479222
v -1.203341 0.2805557 -1.203341
v -1.203341 0.2805557 1.203341
v -1.479222 -0.01675844 1.479222
v -1.133949 0.3270922 1.133949
v -1.133949 0.3270922 -1.133949
v -1.062564 0.2822008 1.062564
v -1.062564 0.2822008 -1.062564
v -0.9203916 0.07158089 0.9203916
v -0.9203916 0.07158089 -0.9203916
vt 0.2836458 0.3192534
vt 0.2580697 0.3448142
vt 0.2580598 0.3779111
vt 0.2836205 0.4034872
vt 0.2249728 0.3448042
vt 0.1994121 0.3192281
vt 0.1993868 0.4034619
vt 0.2249629 0.3779011
vt 0.2650351 0.4815723
vt 0.265054 0.4180011
vt 0.201483 0.4179819
vt 0.201464 0.481553
vt 0.2836205 0.4034872
vt 0.2580598 0.3779111
vt 0.2249629 0.3779011
vt 0.1993868 0.4034619
vt 0.1994121 0.3192281
vt 0.2249728 0.3448042
vt 0.2580697 0.3448142
vt 0.2836458 0.3192534
vt 0.2580697 0.3448142
vt 0.2539662 0.3489059
vt 0.2539587 0.373817
vt 0.2580598 0.3779111
vt 0.2290477 0.3738095
vt 0.2249629 0.3779011
vt 0.2290551 0.3488984
vt 0.2249728 0.3448042
vt 0.2539662 0.3489059
vt 0.2416378 0.3615625
vt 0.2539587 0.373817
vt 0.2539587 0.373817
vt 0.2416378 0.3615625
vt 0.2290477 0.3738095
vt 0.2290477 0.3738095
vt 0.2416378 0.3615625
vt 0.2290551 0.3488984
vt 0.2290551 0.3488984
vt 0.2416378 0.3615625
vt 0.2539662 0.3489059
vt 0.2836458 0.3192534
vt 0.2580697 0.3448142
vt 0.2580598 0.3779111
vt 0.2836205 0.4034872
vt 0.2249728 0.3448042
vt 0.1994121 0.3192281
vt 0.1993868 0.4034619
vt 0.2249629 0.3779011
vt 0.2650351 0.4815723
vt 0.265054 0.4180011
vt 0.201483 0.4179819
vt 0.201464 0.481553
vt 0.2836205 0.4034872
vt 0.2580598 0.3779111
vt 0.2249629 0.3779011
vt 0.1993868 0.4034619
vt 0.1994121 0.3192281
vt 0.2249728 0.3448042
vt 0.2580697 0.3448142
vt 0.2836458 0.3192534
vt 0.2580697 0.3448142
vt 0.2539662 0.3489059
vt 0.2539587 0.373817
vt 0.2580598 0.3779111
vt 0.2290477 0.3738095
vt 0.2249629 0.3779011
vt 0.2290551 0.3488984
vt 0.2249728 0.3448042
vt 0.2539662 0.3489059
vt 0.2416378 0.3615625
vt 0.2539587 0.373817
vt 0.2539587 0.373817
vt 0.2416378 0.3615625
vt 0.2290477 0.3738095
vt 0.2290477 0.3738095
vt 0.2416378 0.3615625
vt 0.2290551 0.3488984
vt 0.2290551 0.3488984
vt 0.2416378 0.3615625
vt 0.2539662 0.3489059
vt 0.2836458 0.3192534
vt 0.2580697 0.3448142
vt 0.2580598 0.3779111
vt 0.2836205 0.4034872
vt 0.2249728 0.3448042
vt 0.1994121 0.3192281
vt 0.1993868 0.4034619
vt 0.2249629 0.3779011
vt 0.2650351 0.4815723
vt 0.265054 0.4180011
vt 0.201483 0.4179819
vt 0.201464 0.481553
vt 0.2836205 0.4034872
vt 0.2580598 0.3779111
vt 0.2249629 0.3779011
vt 0.1993868 0.4034619
vt 0.1994121 0.3192281
vt 0.2249728 0.3448042
vt 0.2580697 0.3448142
vt 0.2836458 0.3192534
vt 0.2580697 0.3448142
vt 0.2539662 0.3489059
vt 0.2539587 0.373817
vt 0.2580598 0.3779111
vt 0.2290477 0.3738095
vt 0.2249629 0.3779011
vt 0.2290551 0.3488984
vt 0.2249728 0.3448042
vt 0.2539662 0.3489059
vt 0.2416378 0.3615625
vt 0.2539587 0.373817
vt 0.2539587 0.373817
vt 0.2416378 0.3615625
vt 0.2290477 0.3738095
vt 0.2290477 0.3738095
vt 0.2416378 0.3615625
vt 0.2290551 0.3488984
vt 0.2290551 0.3488984
vt 0.2416378 0.3615625
vt 0.2539662 0.3489059
vt 0.2836458 0.3192534
vt 0.2580697 0.3448142
vt 0.2580598 0.3779111
vt 0.2836205 0.4034872
vt 0.2249728 0.3448042
vt 0.1994121 0.3192281
vt 0.1993868 0.4034619
vt 0.2249629 0.3779011
vt 0.2650351 0.4815723
vt 0.265054 0.4180011
vt 0.201483 0.4179819
vt 0.201464 0.481553
vt 0.2836205 0.4034872
vt 0.2580598 0.3779111
vt 0.2249629 0.3779011
vt 0.1993868 0.4034619
vt 0.1994121 0.3192281
vt 0.2249728 0.3448042
vt 0.2580697 0.3448142
vt 0.2836458 0.3192534
vt 0.2580697 0.3448142
vt 0.2539662 0.3489059
vt 0.2539587 0.373817
vt 0.2580598 0.3779111
vt 0.2290477 0.3738095
vt 0.2249629 0.3779011
vt 0.2290551 0.3488984
vt 0.2249728 0.3448042
vt 0.2539662 0.3489059
vt 0.2416378 0.3615625
vt 0.2539587 0.373817
vt 0.2539587 0.373817
vt 0.2416378 0.3615625
vt 0.2290477 0.3738095
vt 0.2290477 0.3738095
vt 0.2416378 0.3615625
vt 0.2290551 0.3488984
vt 0.2290551 0.3488984
vt 0.2416378 0.3615625
vt 0.2539662 0.3489059
vt 0.2453391 0.1273279
vt 0.2743124 0.1565266
vt 0.3329116 0.1565221
vt 0.3623402 0.127319
vt 0.3274941 0.1619247
vt 0.2796989 0.1619283
vt 0.3246075 0.1648118
vt 0.282586 0.164815
vt 0.3204506 0.1689694
vt 0.2867437 0.1689719
vt 0.2867437 0.1689719
vt 0.2867462 0.2026788
vt 0.320453 0.2026762
vt 0.3204506 0.1689694
vt 0.2743169 0.2151259
vt 0.2453482 0.244329
vt 0.3623492 0.2443202
vt 0.3329161 0.2151214
vt 0.2797026 0.2097234
vt 0.3274977 0.2097198
vt 0.2825894 0.2068363
vt 0.3246107 0.2068332
vt 0.2867462 0.2026788
vt 0.320453 0.2026762
vt 0.2651674 0.4818441
vt 0.2651623 0.4176079
vt 0.2009264 0.4176129
vt 0.2009313 0.481849
vt 0.3623402 0.127319
vt 0.3329116 0.1565221
vt 0.3329161 0.2151214
vt 0.3623492 0.2443202
vt 0.3274977 0.2097198
vt 0.3274941 0.1619247
vt 0.3246107 0.2068332
vt 0.3246075 0.1648118
vt 0.320453 0.2026762
vt 0.3204506 0.1689694
vt 0.2453482 0.244329
vt 0.2743169 0.2151259
vt 0.2743124 0.1565266
vt 0.2453391 0.1273279
vt 0.2796989 0.1619283
vt 0.2797026 0.2097234
vt 0.282586 0.164815
vt 0.2825894 0.2068363
vt 0.2867437 0.1689719
vt 0.2867462 0.2026788
vn 0 0.3076368 0.9515039
vn 0 0.3076368 0.9515039
vn 0 0.3076368 0.9515038
vn 0 0.3076368 0.9515038
vn 0 0.3076369 -0.9515038
vn 0 0.3076369 -0.9515038
vn 0 0.3076369 -0.9515038
vn 0 0.3076368 -0.9515038
vn 0 -1 0
vn 0 -1 0
vn 0 -1 0
vn 0 -1 0
vn 0.9515038 0.3076369 0
vn 0.9515038 0.3076369 0
vn 0.9515038 0.3076369 0
vn 0.9515038 0.3076369 0
vn -0.9515039 0.3076367 0
vn -0.9515039 0.3076367 0
vn -0.9515039 0.3076367 0
vn -0.9515039 0.3076367 0
vn 0 1 0
vn 0 1 0
vn 0 1 0
vn 0 1 0
vn 0 1 0
vn 0 1 0
vn 0 1 0
vn 0 1 0
vn 0 0.550146 0.8350685
vn 0 0.550146 0.8350685
vn 0 0.550146 0.8350685
vn 0.8350683 0.5501463 0
vn 0.8350683 0.5501463 0
vn 0.8350683 0.5501463 0
vn 0 0.550146 -0.8350685
vn 0 0.550146 -0.8350684
vn 0 0.550146 -0.8350685
vn -0.8350683 0.5501463 0
vn -0.8350683 0.5501463 0
vn -0.8350683 0.5501463 0
vn 0 0.3076368 0.9515039
vn 0 0.3076368 0.9515039
vn 0 0.3076368 0.9515039
vn 0 0.3076367 0.9515039
vn 0 0.3076368 -0.9515039
vn 0 0.3076368 -0.9515039
vn 0 0.3076368 -0.9515039
vn 0 0.3076368 -0.9515039
vn 0 -1 0
vn 0 -1 0
vn 0 -1 0
vn 0 -1 0
vn 0.9515038 0.3076369 0
vn 0.9515038 0.3076369 0
vn 0.9515038 0.3076369 0
vn 0.9515038 0.3076369 0
vn -0.9515039 0.3076367 0
vn -0.9515039 0.3076368 0
vn -0.9515039 0.3076368 0
vn -0.9515039 0.3076367 0
vn 0 1 0
vn 0 1 0
vn 0 1 0
vn 0 1 0
vn 0 1 0
vn 0 1 0
vn 0 1 0
vn 0 1 0
vn 0 0.550146 0.8350685
vn 0 0.550146 0.8350684
vn 0 0.550146 0.8350685
vn 0.8350683 0.5501463 0
vn 0.8350683 0.5501463 0
vn 0.8350683 0.5501463 0
vn 0 0.550146 -0.8350685
vn 0 0.550146 -0.8350685
vn 0 0.550146 -0.8350685
vn -0.8350683 0.5501463 0
vn -0.8350683 0.5501463 0
vn -0.8350683 0.5501463 0
vn 0 0.3076368 0.9515038
vn 0 0.3076368 0.9515038
vn 0 0.3076368 0.9515038
vn 0 0.3076368 0.9515038
vn 0 0.3076369 -0.9515038
vn 0 0.3076369 -0.9515038
vn 0 0.3076369 -0.9515038
vn 0 0.3076369 -0.9515038
vn 0 -1 0
vn 0 -1 0
vn 0 -1 0
vn 0 -1 0
vn 0.9515038 0.3076369 0
vn 0.9515038 0.3076369 0
vn 0.9515038 0.307637 0
vn 0.9515038 0.3076369 0
vn -0.9515039 0.3076365 0
vn -0.9515039 0.3076365 0
vn -0.951504 0.3076365 0
vn -0.9515039 0.3076365 0
vn 0 1 0
vn 0 1 0
vn 0 1 0
vn 0 1 0
vn 0 1 0
vn 0 1 0
vn 0 1 0
vn 0 1 0
vn 0 0.5501462 0.8350683
vn 0 0.5501462 0.8350683
vn 0 0.5501462 0.8350683
vn 0.8350685 0.550146 0
vn 0.8350685 0.5501459 0
vn 0.8350685 0.550146 0
vn 0 0.550146 -0.8350685
vn 0 0.550146 -0.8350684
vn 0 0.550146 -0.8350685
vn -0.8350684 0.5501462 0
vn -0.8350684 0.5501461 0
vn -0.8350684 0.5501462 0
vn 0 0.3076368 0.9515039
vn 0 0.3076368 0.9515039
vn 0 0.3076368 0.9515039
vn 0 0.3076368 0.9515039
vn 0 0.3076368 -0.9515038
vn 0 0.3076368 -0.9515039
vn 0 0.3076368 -0.9515038
vn 0 0.3076368 -0.9515038
vn 0 -1 0
vn 0 -1 0
vn 0 -1 0
vn 0 -1 0
vn 0.9515038 0.3076369 0
vn 0.9515038 0.3076369 0
vn 0.9515038 0.3076369 0
vn 0.9515038 0.3076369 0
vn -0.9515039 0.3076366 0
vn -0.9515039 0.3076366 0
vn -0.9515039 0.3076366 0
vn -0.9515039 0.3076365 0
vn 0 1 0
vn 0 1 0
vn 0 1 0
vn 0 1 0
vn 0 1 0
vn 0 1 0
vn 0 1 0
vn 0 1 0
vn 0 0.550146 0.8350685
vn 0 0.550146 0.8350684
vn 0 0.550146 0.8350685
vn 0.8350685 0.550146 0
vn 0.8350685 0.5501459 0
vn 0.8350685 0.550146 0
vn 0 0.5501462 -0.8350683
vn 0 0.5501462 -0.8350683
vn 0 0.5501462 -0.8350683
vn -0.8350684 0.5501462 0
vn -0.8350684 0.5501461 0
vn -0.8350684 0.5501462 0
vn 0 0.6801926 0.7330334
vn 0 0.691547 0.7223314
vn 0 0.691547 0.7223314
vn 0 0.6801926 0.7330334
vn 0 0.9526675 0.3040144
vn 0 0.9526675 0.3040144
vn 0 0.7008359 -0.7133225
vn 0 0.7008359 -0.7133225
vn 0 0.5594833 -0.8288417
vn 0 0.5594833 -0.8288417
vn 0 1 0
vn 0 1 0
vn 0 1 0
vn 0 1 0
vn 0 0.6915469 -0.7223315
vn 0 0.6801925 -0.7330335
vn 0 0.6801925 -0.7330335
vn 0 0.6915469 -0.7223315
vn 0 0.9526675 -0.3040144
vn 0 0.9526675 -0.3040144
vn 0 0.7008359 0.7133225
vn 0 0.7008359 0.7133225
vn 0 0.5594833 0.8288417
vn 0 0.5594833 0.8288417
vn 0 -1 0
vn 0 -1 0
vn 0 -1 0
vn 0 -1 0
vn 0.7330336 0.6801925 0
vn 0.7223315 0.6915469 0
vn 0.7223315 0.6915469 0
vn 0.7330336 0.6801925 0
vn 0.3040138 0.9526677 0
vn 0.3040138 0.9526677 0
vn -0.7133225 0.7008359 0
vn -0.7133225 0.7008359 0
vn -0.8288417 0.5594832 0
vn -0.8288417 0.5594832 0
vn -0.7330336 0.6801925 0
vn -0.7223315 0.6915469 0
vn -0.7223315 0.6915469 0
vn -0.7330336 0.6801925 0
vn -0.3040138 0.9526677 0
vn -0.3040138 0.9526677 0
vn 0.7133225 0.7008359 0
vn 0.7133225 0.7008359 0
vn 0.8288417 0.5594832 0
vn 0.8288417 0.5594832 0
f 3/3/3 2/2/2 1/1/1
f 4/4/4 3/3/3 1/1/1
f 7/7/7 6/6/6 5/5/5
f 8/8/8 7/7/7 5/5/5
f 11/11/11 10/10/10 9/9/9
f 12/12/12 11/11/11 9/9/9
f 15/15/15 14/14/14 13/13/13
f 16/16/16 15/15/15 13/13/13
f 19/19/19 18/18/18 17/17/17
f 20/20/20 19/19/19 17/17/17
f 23/23/23 22/22/22 21/21/21
f 24/24/24 23/23/23 21/21/21
f 25/25/25 23/23/23 24/24/24
f 26/26/26 25/25/25 24/24/24
f 27/27/27 25/25/25 26/26/26
f 28/28/28 27/27/27 26/26/26
f 22/22/22 27/27/27 28/28/28
f 21/21/21 22/22/22 28/28/28
f 31/31/31 30/30/30 29/29/29
f 34/34/34 33/33/33 32/32/32
f 37/37/37 36/36/36 35/35/35
f 40/40/40 39/39/39 38/38/38
f 43/43/43 42/42/42 41/41/41
f 44/44/44 43/43/43 41/41/41
f 47/47/47 46/46/46 45/45/45
f 48/48/48 47/47/47 45/45/45
f 51/51/51 50/50/50 49/49/49
f 52/52/52 51/51/51 49/49/49
f 55/55/55 54/54/54 53/53/53
f 56/56/56 55/55/55 53/53/53
f 59/59/59 58/58/58 57/57/57
f 60/60/60 59/59/59 57/57/57
f 63/63/63 62/62/62 61/61/61
f 64/64/64 63/63/63 61/61/61
f 65/65/65 63/63/63 64/64/64
f 66/66/66 65/65/65 64/64/64
f 67/67/67 65/65/65 66/66/66
f 68/68/68 67/67/67 66/66/66
f 62/62/62 67/67/67 68/68/68
f 61/61/61 62/62/62 68/68/68
f 71/71/71 70/70/70 69/69/69
f 74/74/74 73/73/73 72/72/72
f 77/77/77 76/76/76 75/75/75
f 80/80/80 79/79/79 78/78/78
f 83/83/83 82/82/82 81/81/81
f 84/84/84 83/83/83 81/81/81
f 87/87/87 86/86/86 85/85/85
f 88/88/88 87/87/87 85/85/85
f 91/91/91 90/90/90 89/89/89
f 92/92/92 91/91/91 89/89/89
f 95/95/95 94/94/94 93/93/93
f 96/96/96 95/95/95 93/93/93
f 99/99/99 98/98/98 97/97/97
f 100/100/100 99/99/99 97/97/97
f 103/103/103 102/102/102 101/101/101
f 104/104/104 103/103/103 101/101/101
f 105/105/105 103/103/103 104/104/104
f 106/106/106 105/105/105 104/104/104
f 107/107/107 105/105/105 106/106/106
f 108/108/108 107/107/107 106/106/106
f 102/102/102 107/107/107 108/108/108
f 101/101/101 102/102/102 108/108/108
f 111/111/111 110/110/110 109/109/109
f 114/114/114 113/113/113 112/112/112
f 117/117/117 116/116/116 115/115/115
f 120/120/120 119/119/119 118/118/118
f 123/123/123 122/122/122 121/121/121
f 124/124/124 123/123/123 121/121/121
f 127/127/127 126/126/126 125/125/125
f 128/128/128 127/127/127 125/125/125
f 131/131/131 130/130/130 129/129/129
f 132/132/132 131/131/131 129/129/129
f 135/135/135 134/134/134 133/133/133
f 136/136/136 135/135/135 133/133/133
f 139/139/139 138/138/138 137/137/137
f 140/140/140 139/139/139 137/137/137
f 143/143/143 142/142/142 141/141/141
f 144/144/144 143/143/143 141/141/141
f 145/145/145 143/143/143 144/144/144
f 146/146/146 145/145/145 144/144/144
f 147/147/147 145/145/145 146/146/146
f 148/148/148 147/147/147 146/146/146
f 142/142/142 147/147/147 148/148/148
f 141/141/141 142/142/142 148/148/148
f 151/151/151 150/150/150 149/149/149
f 154/154/154 153/153/153 152/152/152
f 157/157/157 156/156/156 155/155/155
f 160/160/160 159/159/159 158/158/158
f 163/163/163 162/162/162 161/161/161
f 164/164/164 163/163/163 161/161/161
f 163/163/163 165/165/165 162/162/162
f 165/165/165 166/166/166 162/162/162
f 165/165/165 167/167/167 166/166/166
f 167/167/167 168/168/168 166/166/166
f 167/167/167 169/169/169 168/168/168
f 169/169/169 170/170/170 168/168/168
f 173/173/173 172/172/172 171/171/171
f 174/174/174 173/173/173 171/171/171
f 177/177/177 176/176/176 175/175/175
f 178/178/178 177/177/177 175/175/175
f 178/178/178 175/175/175 179/179/179
f 180/180/180 178/178/178 179/179/179
f 179/179/179 181/181/181 180/180/180
f 181/181/181 182/182/182 180/180/180
f 181/181/181 183/183/183 182/182/182
f 183/183/183 184/184/184 182/182/182
f 187/187/187 186/186/186 185/185/185
f 188/188/188 187/187/187 185/185/185
f 191/191/191 190/190/190 189/189/189
f 192/192/192 191/191/191 189/189/189
f 191/191/191 193/193/193 190/190/190
f 193/193/193 194/194/194 190/190/190
f 193/193/193 195/195/195 194/194/194
f 195/195/195 196/196/196 194/194/194
f 195/195/195 197/197/197 196/196/196
f 197/197/197 198/198/198 196/196/196
f 201/201/201 200/200/200 199/199/199
f 202/202/202 201/201/201 199/199/199
f 201/201/201 203/203/203 200/200/200
f 203/203/203 204/204/204 200/200/200
f 203/203/203 205/205/205 204/204/204
f 205/205/205 206/206/206 204/204/204
f 205/205/205 207/207/207 206/206/206
f 207/207/207 208/208/208 206/206/206
