g Group41593
v 0.18881 -0.853324 0.3439469
v 0.2079052 -0.2117243 0.9435371
v 0.7349336 -0.4828765 0.07852326
v 0.8227716 -0.03604819 0.4107802
v 0.03031957 -0.5592574 0.7888657
v 0.2384576 -0.893424 0.2923897
v 0.04559579 0.7182134 0.6590182
v -0.05369936 0.9110752 0.223647
v 0.4599623 0.5024373 0.5291706
v 0.1563481 0.9225324 -0.0952434
v 0.3473004 0.7334896 -0.1563481
v 0.7521192 0.3305803 0.5272611
v 0.7712145 0.4432421 -0.2155433
v 0.8399574 0.2923897 0.2962088
v -0.7907752 0.5368087 0.03269463
v -0.7010278 0.3114851 0.4470612
v -0.8136896 -0.22891 -0.08378622
v -0.8671561 -0.2690099 -0.2900147
v -0.8289658 -0.1754434 0.3439469
v 0.3473004 0.7334896 -0.1563481
v 0.2861957 0.0651566 -0.9277954
v 0.7712145 0.4432421 -0.2155433
v -0.4222373 0.5654516 -0.564986
v -0.1720898 -0.1334338 -0.977443
v 0.2900147 -0.5363432 -0.7387526
v 0.7196574 -0.3721242 -0.3778528
v 0.773124 0.1319898 -0.6260908
v -0.3019373 0.8537895 -0.2804671
v 0.1563481 0.9225324 -0.0952434
v 0.18881 -0.853324 0.3439469
v -0.7105753 -0.3301147 -0.05323388
v 0.03031957 -0.5592574 0.7888657
v -0.355404 -0.8514144 -0.1582577
v -0.676204 -0.601267 -0.4313194
v -0.5368087 -0.2957433 0.5845468
v -0.8671561 -0.2690099 -0.2900147
v -0.2160089 -0.4236813 0.8175086
v -0.8289658 -0.1754434 0.3439469
v -0.8136896 -0.22891 -0.08378622
v 0.2900147 -0.5363432 -0.7387526
v 0.1315243 -0.9163383 -0.1964481
v 0.7196574 -0.3721242 -0.3778528
v 0.7349336 -0.4828765 0.07852326
v 0.2384576 -0.893424 0.2923897
v -0.1071661 -0.9220668 -0.1754434
v -0.04224223 -0.3644861 -0.6719193
v -0.1071661 -0.9220668 -0.1754434
v 0.2900147 -0.5363432 -0.7387526
v -0.676204 -0.601267 -0.4313194
v -0.5043468 -0.2155433 -0.7788526
v -0.1720898 -0.1334338 -0.977443
v -0.355404 -0.8514144 -0.1582577
v -0.8289658 -0.1754434 0.3439469
v -0.7010278 0.3114851 0.4470612
v -0.5368087 -0.2957433 0.5845468
v -0.04224223 0.1338994 0.8022324
v -0.2160089 -0.4236813 0.8175086
v -0.04033271 -0.04368627 0.975999
v -0.1950042 0.399323 0.7774085
v 0.2651909 0.1606327 0.6380134
v 0.7463907 -0.1105196 0.6322848
v -0.04033271 -0.04368627 0.975999
v 0.7521192 0.3305803 0.5272611
v 0.2079052 -0.2117243 0.9435371
v -0.04224223 0.1338994 0.8022324
v -0.1950042 0.399323 0.7774085
v 0.04559579 0.7182134 0.6590182
v 0.4599623 0.5024373 0.5291706
v 0.7024717 0.0116899 -0.104791
v 0.7349336 -0.4828765 0.07852326
v 0.8227716 -0.03604819 0.4107802
v 0.7196574 -0.3721242 -0.3778528
v 0.8399574 0.2923897 0.2962088
v 0.773124 0.1319898 -0.6260908
v 0.7712145 0.4432421 -0.2155433
v -0.4432421 0.8461515 -0.04750532
v -0.05369936 0.9110752 0.223647
v -0.1950042 0.399323 0.7774085
v -0.7010278 0.3114851 0.4470612
v -0.7907752 0.5368087 0.03269463
v 0.04559579 0.7182134 0.6590182
v -0.8671561 -0.2690099 -0.2900147
v -0.5043468 -0.2155433 -0.7788526
v -0.7945943 0.2790231 -0.4332289
v -0.4222373 0.5654516 -0.564986
v -0.7907752 0.5368087 0.03269463
v -0.3019373 0.8537895 -0.2804671
v -0.676204 -0.601267 -0.4313194
v -0.1720898 -0.1334338 -0.977443
v -0.4432421 0.8461515 -0.04750532
v 0.1563481 0.9225324 -0.0952434
v -0.05369936 0.9110752 0.223647
v -0.4432421 0.8461515 -0.04750532
v -0.3019373 0.8537895 -0.2804671
v 0.2079052 -0.2117243 0.9435371
v 0.03031957 -0.5592574 0.7888657
v -0.04033271 -0.04368627 0.975999
v -0.2160089 -0.4236813 0.8175086
v 0.2079052 -0.2117243 0.9435371
v 0.7463907 -0.1105196 0.6322848
v 0.8227716 -0.03604819 0.4107802
v 0.7463907 -0.1105196 0.6322848
v 0.8399574 0.2923897 0.2962088
v 0.8227716 -0.03604819 0.4107802
v 0.7521192 0.3305803 0.5272611
v -0.1071661 -0.9220668 -0.1754434
v -0.355404 -0.8514144 -0.1582577
v 0.2384576 -0.893424 0.2923897
v 0.18881 -0.853324 0.3439469
vt 0.7160204 0.4421408
vt 0.7590586 0.2073869
vt 0.5360424 0.3795398
vt 0.5360424 0.2308623
vt 0.7981842 0.3130262
vt 0.7003701 0.4577911
vt 0.2739005 0.4108403
vt 0.4030152 0.4382282
vt 0.2895508 0.2817257
vt 0.485179 0.3795398
vt 0.485179 0.3052011
vt 0.2739005 0.1917367
vt 0.4773539 0.1643487
vt 0.332589 0.152611
vt 0.9820748 0.4264906
vt 0.9703371 0.2973759
vt 0.782534 0.3756272
vt 0.7473209 0.4264906
vt 0.8333973 0.2739005
vt 0.4069277 0.9038235
vt 0.1643487 0.7864465
vt 0.2934634 0.997725
vt 0.3717147 0.6573319
vt 0.1408733 0.6573319
vt 0.003933565 0.7707963
vt 0.00784613 0.935124
vt 0.1643487 0.935124
vt 0.4695288 0.727758
vt 0.4734413 0.8686104
vt 0.1995618 0.5790806
vt 0.1252231 0.2895508
vt 0.05088434 0.5908183
vt 0.2621629 0.3912775
vt 0.2504252 0.2621629
vt 0.003933565 0.4186654
vt 0.1486985 0.2152121
vt 0.003933565 0.5321298
vt 0.00784613 0.3130262
vt 0.1056603 0.2543377
vt 0.9703371 0.01958383
vt 0.8020968 0.07044717
vt 0.9859873 0.1839115
vt 0.8803481 0.2660754
vt 0.7160204 0.1721739
vt 0.7590586 0.01958383
vt 0.5751681 0.9233863
vt 0.4812665 0.7473209
vt 0.4812665 0.9585994
vt 0.6729822 0.7590586
vt 0.7042827 0.9038235
vt 0.6534193 0.997725
vt 0.5438675 0.7160204
vt 0.4421408 2.1E-05
vt 0.4421408 0.1369608
vt 0.5516927 2.1E-05
vt 0.6495068 0.1604362
vt 0.6612445 2.1E-05
vt 0.7003701 0.1173979
vt 0.5908183 0.2152121
vt 0.755146 0.5829932
vt 0.755146 0.4343157
vt 0.629944 0.6260314
vt 0.8646978 0.4930042
vt 0.629944 0.5477801
vt 0.692545 0.6495068
vt 0.7316706 0.7238455
vt 0.845135 0.7121078
vt 0.8646978 0.5829932
vt 0.8333973 0.8529601
vt 0.7003701 0.8138345
vt 0.7434083 0.962512
vt 0.7981842 0.7355832
vt 0.8333973 0.9898999
vt 0.9468617 0.7629712
vt 0.9468617 0.8999109
vt 0.08218487 0.2073869
vt 0.2112995 0.2034744
vt 0.2386875 2.1E-05
vt 0.07435974 2.1E-05
vt 0.003933565 0.1056603
vt 0.2895508 0.1017477
vt 0.5164796 0.692545
vt 0.602556 0.539955
vt 0.4304031 0.5751681
vt 0.3991026 0.449966
vt 0.2973759 0.6142937
vt 0.2817257 0.4343157
vt 0.6338565 0.692545
vt 0.629944 0.4382282
vt 0.2426 0.4969167
vt 0.4304031 0.152611
vt 0.4304031 0.05088434
vt 0.3012885 0.05088434
vt 0.2973759 0.1252231
vt 0.9468617 0.7238455
vt 0.9468617 0.6103811
vt 0.8686104 0.7355832
vt 0.872523 0.6142937
vt 0.5360424 0.997725
vt 0.3717147 0.9664245
vt 0.3130262 0.997725
vt 0.1291357 0.6221188
vt 0.003933565 0.6886324
vt 0.09783512 0.6768947
vt 0.00784613 0.6221188
vt 0.05088434 0.9429491
vt 0.003933565 0.997725
vt 0.2034744 0.9742497
vt 0.2034744 0.997725
vn -0.07358291 -0.7788456 0.6228845
vn 0.589417 -0.5262742 0.6128809
vn 0.810417 -0.5578457 0.1789763
vn 0.8735598 -0.4315599 0.225054
vn -0.3577257 -0.810417 0.4639575
vn 0.3052742 -0.9367027 0.1714516
vn 0.2105599 0.5471542 0.8101153
vn -0.07358291 0.9260113 0.3702548
vn 0.5262742 0.7050114 0.4753887
vn 0.3368456 0.9575827 NaN
vn 0.3999885 0.7997257 -0.4477143
vn 0.5578457 0.6734399 0.4850638
vn 0.7157027 0.6418685 -0.2752715
vn 0.9998456 0.01044007 -0.01413692
vn -0.8944399 0.4208685 -0.1511522
vn -0.7365828 0.2945829 0.6088241
vn -0.9891542 -0.02113141 0.1453531
vn -0.9575827 -0.1158457 -0.2638468
vn -0.8944399 -0.2737028 0.353644
vn 0.3999885 0.7997257 -0.4477143
vn 0.3368456 0.3892971 -0.8573114
vn 0.7157027 0.6418685 -0.2752715
vn -0.23144 0.6102971 -0.75761
vn -0.23144 -0.02113141 -0.9726197
vn 0.2421314 -0.6209885 -0.7454835
vn 0.7788456 -0.4631313 -0.4229762
vn 0.9051313 0.04201149 -0.4230513
vn -0.23144 0.7997257 -0.5539625
vn 0.3368456 0.9575827 NaN
vn -0.07358291 -0.7788456 0.6228845
vn -0.6102971 -0.7157027 0.339569
vn -0.3577257 -0.810417 0.4639575
vn -0.5787257 -0.6841313 0.4438929
vn -0.4208685 -0.7157027 -0.5573502
vn -0.6102971 -0.3684171 0.7012891
vn -0.9575827 -0.1158457 -0.2638468
vn -0.5787257 -0.08427425 0.8111562
vn -0.8944399 -0.2737028 0.353644
vn -0.9891542 -0.02113141 0.1453531
vn 0.2421314 -0.6209885 -0.7454835
vn 0.4947028 -0.810417 -0.3138367
vn 0.7788456 -0.4631313 -0.4229762
vn 0.810417 -0.5578457 0.1789763
vn 0.3052742 -0.9367027 0.1714516
vn -0.1682972 -0.810417 -0.5611598
vn -0.1998686 -0.6841313 -0.7014391
vn -0.1682972 -0.810417 -0.5611598
vn 0.2421314 -0.6209885 -0.7454835
vn -0.4208685 -0.7157027 -0.5573502
vn -0.5787257 -0.1474171 -0.8020878
vn -0.23144 -0.02113141 -0.9726197
vn -0.5787257 -0.6841313 0.4438929
vn -0.8944399 -0.2737028 0.353644
vn -0.7365828 0.2945829 0.6088241
vn -0.6102971 -0.3684171 0.7012891
vn -0.4208685 0.1682972 0.8913729
vn -0.5787257 -0.08427425 0.8111562
vn 0.08427425 0.3261543 0.9415526
vn -0.3892971 0.5471542 0.7409925
vn 0.3052742 0.3261543 0.8946681
vn 0.5262742 0.2945829 0.7976568
vn 0.08427425 0.3261543 0.9415526
vn 0.5578457 0.6734399 0.4850638
vn 0.589417 -0.5262742 0.6128809
vn -0.4208685 0.1682972 0.8913729
vn -0.3892971 0.5471542 0.7409925
vn 0.2105599 0.5471542 0.8101153
vn 0.5262742 0.7050114 0.4753887
vn 0.9998456 -0.08427425 NaN
vn 0.810417 -0.5578457 0.1789763
vn 0.8735598 -0.4315599 0.225054
vn 0.7788456 -0.4631313 -0.4229762
vn 0.9998456 0.01044007 -0.01413692
vn 0.9051313 0.04201149 -0.4230513
vn 0.7157027 0.6418685 -0.2752715
vn -0.45244 0.831297 0.3228673
vn -0.07358291 0.9260113 0.3702548
vn -0.3892971 0.5471542 0.7409925
vn -0.7365828 0.2945829 0.6088241
vn -0.8944399 0.4208685 -0.1511522
vn 0.2105599 0.5471542 0.8101153
vn -0.9575827 -0.1158457 -0.2638468
vn -0.5787257 -0.1474171 -0.8020878
vn -0.7997257 0.2630115 -0.5396886
vn -0.23144 0.6102971 -0.75761
vn -0.8944399 0.4208685 -0.1511522
vn -0.23144 0.7997257 -0.5539625
vn -0.4208685 -0.7157027 -0.5573502
vn -0.23144 -0.02113141 -0.9726197
vn -0.45244 0.831297 0.3228673
vn 0.3368456 0.9575827 NaN
vn -0.07358291 0.9260113 0.3702548
vn -0.45244 0.831297 0.3228673
vn -0.23144 0.7997257 -0.5539625
vn 0.589417 -0.5262742 0.6128809
vn -0.3577257 -0.810417 0.4639575
vn 0.08427425 0.3261543 0.9415526
vn -0.5787257 -0.08427425 0.8111562
vn 0.589417 -0.5262742 0.6128809
vn 0.5262742 0.2945829 0.7976568
vn 0.8735598 -0.4315599 0.225054
vn 0.5262742 0.2945829 0.7976568
vn 0.9998456 0.01044007 -0.01413692
vn 0.8735598 -0.4315599 0.225054
vn 0.5578457 0.6734399 0.4850638
vn -0.1682972 -0.810417 -0.5611598
vn -0.5787257 -0.6841313 0.4438929
vn 0.3052742 -0.9367027 0.1714516
vn -0.07358291 -0.7788456 0.6228845
f 3/3/3 2/2/2 1/1/1
f 3/3/3 4/4/4 2/2/2
f 2/2/2 5/5/5 1/1/1
f 1/1/1 6/6/6 3/3/3
f 9/9/9 8/8/8 7/7/7
f 9/9/9 10/10/10 8/8/8
f 10/10/10 9/9/9 11/11/11
f 11/11/11 9/9/9 12/12/12
f 11/11/11 12/12/12 13/13/13
f 12/12/12 14/14/14 13/13/13
f 17/17/17 16/16/16 15/15/15
f 15/15/15 18/18/18 17/17/17
f 17/17/17 19/19/19 16/16/16
f 22/22/22 21/21/21 20/20/20
f 21/21/21 23/23/23 20/20/20
f 21/21/21 24/24/24 23/23/23
f 21/21/21 25/25/25 24/24/24
f 26/26/26 25/25/25 21/21/21
f 21/21/21 27/27/27 26/26/26
f 21/21/21 22/22/22 27/27/27
f 23/23/23 28/28/28 20/20/20
f 28/28/28 29/29/29 20/20/20
f 32/32/32 31/31/31 30/30/30
f 33/33/33 30/30/30 31/31/31
f 34/34/34 33/33/33 31/31/31
f 32/32/32 35/35/35 31/31/31
f 36/36/36 34/34/34 31/31/31
f 35/35/35 32/32/32 37/37/37
f 35/35/35 38/38/38 31/31/31
f 38/38/38 39/39/39 31/31/31
f 31/31/31 39/39/39 36/36/36
f 42/42/42 41/41/41 40/40/40
f 42/42/42 43/43/43 41/41/41
f 44/44/44 41/41/41 43/43/43
f 45/45/45 41/41/41 44/44/44
f 40/40/40 41/41/41 45/45/45
f 48/48/48 47/47/47 46/46/46
f 46/46/46 47/47/47 49/49/49
f 50/50/50 46/46/46 49/49/49
f 48/48/48 46/46/46 51/51/51
f 50/50/50 51/51/51 46/46/46
f 49/49/49 47/47/47 52/52/52
f 55/55/55 54/54/54 53/53/53
f 54/54/54 55/55/55 56/56/56
f 57/57/57 56/56/56 55/55/55
f 56/56/56 57/57/57 58/58/58
f 59/59/59 54/54/54 56/56/56
f 62/62/62 61/61/61 60/60/60
f 60/60/60 61/61/61 63/63/63
f 62/62/62 64/64/64 61/61/61
f 62/62/62 60/60/60 65/65/65
f 66/66/66 65/65/65 60/60/60
f 60/60/60 67/67/67 66/66/66
f 68/68/68 67/67/67 60/60/60
f 60/60/60 63/63/63 68/68/68
f 71/71/71 70/70/70 69/69/69
f 70/70/70 72/72/72 69/69/69
f 71/71/71 69/69/69 73/73/73
f 72/72/72 74/74/74 69/69/69
f 69/69/69 75/75/75 73/73/73
f 74/74/74 75/75/75 69/69/69
f 78/78/78 77/77/77 76/76/76
f 79/79/79 78/78/78 76/76/76
f 79/79/79 76/76/76 80/80/80
f 78/78/78 81/81/81 77/77/77
f 84/84/84 83/83/83 82/82/82
f 84/84/84 85/85/85 83/83/83
f 86/86/86 85/85/85 84/84/84
f 84/84/84 82/82/82 86/86/86
f 85/85/85 86/86/86 87/87/87
f 83/83/83 88/88/88 82/82/82
f 85/85/85 89/89/89 83/83/83
f 90/90/90 87/87/87 86/86/86
f 93/93/93 92/92/92 91/91/91
f 94/94/94 93/93/93 91/91/91
f 97/97/97 96/96/96 95/95/95
f 98/98/98 96/96/96 97/97/97
f 101/101/101 100/100/100 99/99/99
f 104/104/104 103/103/103 102/102/102
f 105/105/105 102/102/102 103/103/103
f 108/108/108 107/107/107 106/106/106
f 108/108/108 109/109/109 107/107/107
