g IceObject
v -0.009871267 0.03841868 0.0003554738
v -0.05639295 0.4528848 0.2911161
v -0.06590878 0.5036356 0.1441498
v -0.002470094 -0.0007018365 0.1134878
v -0.1145451 0.03841868 -0.05568204
v -0.2023019 0.5036356 0.07119533
v -0.1832703 0.4021338 0.3651279
v -0.1008001 -0.03876504 0.1695253
v -0.3207208 0.4031911 0.2911161
v -0.2054739 -0.03876504 0.1134878
v -0.3302366 0.4528848 0.1441498
v -0.2128751 0.0003554738 0.0003554738
v -0.2023019 0.5036356 0.07119533
v -0.1145451 0.03841868 -0.05568204
v -0.009871267 0.03841868 0.0003554738
v -0.09445616 -0.07577095 0.03313213
v -0.002470094 -0.0007018365 0.1134878
v -0.1145451 0.03841868 -0.05568204
v -0.2128751 0.0003554738 0.0003554738
v -0.2054739 -0.03876504 0.1134878
v -0.1008001 -0.03876504 0.1695253
v -0.05639295 0.4528848 0.2911161
v -0.2171043 0.5670744 0.2625687
v -0.06590878 0.5036356 0.1441498
v -0.2023019 0.5036356 0.07119533
v -0.3302366 0.4528848 0.1441498
v -0.3207208 0.4031911 0.2911161
v -0.1832703 0.4021338 0.3651279
v 0.07471364 -0.03876504 -0.1275792
v 0.3274111 0.5586159 -0.09797449
v 0.2301384 0.5501574 -0.2713735
v 0.1487254 -0.03242118 0.005642026
v -0.07436726 -0.007045731 -0.1328658
v 0.03559311 0.5913925 -0.2787747
v 0.2301384 0.6093668 0.0680234
v 0.07471364 0.006699336 0.1325194
v 0.03559311 0.6506019 0.0606222
v -0.07436726 0.03841868 0.1272328
v -0.0606222 0.6421434 -0.1127768
v -0.1494364 0.03207482 -0.005988388
v 0.03559311 0.5913925 -0.2787747
v -0.07436726 -0.007045731 -0.1328658
v 0.07471364 -0.03876504 -0.1275792
v -0.02150168 -0.09797449 0.02044437
v 0.1487254 -0.03242118 0.005642026
v -0.07436726 -0.007045731 -0.1328658
v -0.1494364 0.03207482 -0.005988388
v -0.07436726 0.03841868 0.1272328
v 0.07471364 0.006699336 0.1325194
v 0.3274111 0.5586159 -0.09797449
v 0.1666997 0.7542185 -0.1265219
v 0.2301384 0.5501574 -0.2713735
v 0.03559311 0.5913925 -0.2787747
v -0.0606222 0.6421434 -0.1127768
v 0.03559311 0.6506019 0.0606222
v 0.2301384 0.6093668 0.0680234
v 0.08845869 -0.001759147 0.04159061
v 0.2608005 0.2720845 0.3672425
v 0.2682016 0.345039 0.2477663
v 0.08211482 -0.05779666 0.1335767
v 0.003873768 0.05639295 0.008813957
v 0.1582412 0.4211654 0.2054739
v 0.1434389 0.2741991 0.4433689
v -0.007756646 -0.05673935 0.1917288
v 0.03347849 0.3492682 0.4010765
v -0.09234153 0.001412784 0.1589522
v 0.04087969 0.42328 0.2816003
v -0.08705499 0.05850758 0.0680234
v 0.1582412 0.4211654 0.2054739
v 0.003873768 0.05639295 0.008813957
v 0.08845869 -0.001759147 0.04159061
v -0.02890288 -0.05779666 0.06590878
v 0.08211482 -0.05779666 0.1335767
v 0.003873768 0.05639295 0.008813957
v -0.08705499 0.05850758 0.0680234
v -0.09234153 0.001412784 0.1589522
v -0.007756646 -0.05673935 0.1917288
v 0.2608005 0.2720845 0.3672425
v 0.187846 0.4349104 0.3841595
v 0.2682016 0.345039 0.2477663
v 0.1582412 0.4211654 0.2054739
v 0.04087969 0.42328 0.2816003
v 0.03347849 0.3492682 0.4010765
v 0.1434389 0.2741991 0.4433689
vt 0.2081999 0.975217
vt 0.3551518 0.4805985
vt 0.2081999 0.4805985
vt 0.3551518 0.975217
vt 0.061248 0.975217
vt 0.061248 0.4805985
vt 0.5021036 0.4805985
vt 0.5021036 0.975217
vt 0.6490555 0.4805985
vt 0.6490555 0.975217
vt 0.7960074 0.4805985
vt 0.7960074 0.975217
vt 0.9429592 0.4805985
vt 0.9429592 0.975217
vt 0.6418871 0.3443992
vt 0.713571 0.2153683
vt 0.5702033 0.2189525
vt 0.7852548 0.3443992
vt 0.8605229 0.2189525
vt 0.7852548 0.09350573
vt 0.6418871 0.09350573
vt 0.08275315 0.2332892
vt 0.2762995 0.2368734
vt 0.1795263 0.061248
vt 0.3766569 0.061248
vt 0.4734301 0.2332892
vt 0.3730727 0.4017462
vt 0.1795263 0.4017462
vt 0.2081999 0.975217
vt 0.3551518 0.4805985
vt 0.2081999 0.4805985
vt 0.3551518 0.975217
vt 0.061248 0.975217
vt 0.061248 0.4805985
vt 0.5021036 0.4805985
vt 0.5021036 0.975217
vt 0.6490555 0.4805985
vt 0.6490555 0.975217
vt 0.7960074 0.4805985
vt 0.7960074 0.975217
vt 0.9429592 0.4805985
vt 0.9429592 0.975217
vt 0.6418871 0.3443992
vt 0.713571 0.2153683
vt 0.5702033 0.2189525
vt 0.7852548 0.3443992
vt 0.8605229 0.2189525
vt 0.7852548 0.09350573
vt 0.6418871 0.09350573
vt 0.08275315 0.2332892
vt 0.2762995 0.2368734
vt 0.1795263 0.061248
vt 0.3766569 0.061248
vt 0.4734301 0.2332892
vt 0.3730727 0.4017462
vt 0.1795263 0.4017462
vt 0.2081999 0.975217
vt 0.3551518 0.4805985
vt 0.2081999 0.4805985
vt 0.3551518 0.975217
vt 0.061248 0.975217
vt 0.061248 0.4805985
vt 0.5021036 0.4805985
vt 0.5021036 0.975217
vt 0.6490555 0.4805985
vt 0.6490555 0.975217
vt 0.7960074 0.4805985
vt 0.7960074 0.975217
vt 0.9429592 0.4805985
vt 0.9429592 0.975217
vt 0.6418871 0.3443992
vt 0.713571 0.2153683
vt 0.5702033 0.2189525
vt 0.7852548 0.3443992
vt 0.8605229 0.2189525
vt 0.7852548 0.09350573
vt 0.6418871 0.09350573
vt 0.08275315 0.2332892
vt 0.2762995 0.2368734
vt 0.1795263 0.061248
vt 0.3766569 0.061248
vt 0.4734301 0.2332892
vt 0.3730727 0.4017462
vt 0.1795263 0.4017462
vn 0.8622683 -0.1498525 -0.4837744
vn 0.8312936 0.345741 0.4352172
vn 0.6454461 0.6245124 -0.4397541
vn 0.8003191 -0.4595985 0.3850437
vn 0.1498525 -0.08790336 -0.984793
vn -0.2218426 0.5935377 -0.773627
vn 0.118878 0.005020482 0.9928962
vn -0.005020482 -0.7073953 0.7068003
vn -0.7484108 -0.02595417 0.6627275
vn -0.7174361 -0.6764207 0.1665546
vn -0.9342583 0.2528172 -0.2514852
vn -0.6554869 -0.3666747 -0.660217
vn -0.2218426 0.5935377 -0.773627
vn 0.1498525 -0.08790336 -0.984793
vn 0.8622683 -0.1498525 -0.4837744
vn 0.1808271 -0.9242175 -0.3363385
vn 0.8003191 -0.4595985 0.3850437
vn 0.1498525 -0.08790336 -0.984793
vn -0.6554869 -0.3666747 -0.660217
vn -0.7174361 -0.6764207 0.1665546
vn -0.005020482 -0.7073953 0.7068003
vn 0.8312936 0.345741 0.4352172
vn -0.190868 0.9342583 0.3012154
vn 0.6454461 0.6245124 -0.4397541
vn -0.2218426 0.5935377 -0.773627
vn -0.9342583 0.2528172 -0.2514852
vn -0.7484108 -0.02595417 0.6627275
vn 0.118878 0.005020482 0.9928962
vn 0.4595985 -0.6454461 -0.6100562
vn 0.9861667 0.09794427 -0.1337245
vn 0.4286239 0.09794427 -0.8981584
vn 0.7693445 -0.5834969 0.2600776
vn -0.4386648 -0.4905731 -0.7529351
vn -0.500614 0.3147664 -0.8064166
vn 0.6454461 0.3147664 0.6959321
vn 0.2427763 -0.3357001 0.9101456
vn -0.2837918 0.5315886 0.7980449
vn -0.6245124 -0.1808271 0.7597933
vn -0.8413345 0.5315886 0.09782519
vn -0.9652329 -0.2427763 -0.09687664
vn -0.500614 0.3147664 -0.8064166
vn -0.4386648 -0.4905731 -0.7529351
vn 0.4595985 -0.6454461 -0.6100562
vn -0.2218426 -0.955192 0.1959439
vn 0.7693445 -0.5834969 0.2600776
vn -0.4386648 -0.4905731 -0.7529351
vn -0.9652329 -0.2427763 -0.09687664
vn -0.6245124 -0.1808271 0.7597933
vn 0.2427763 -0.3357001 0.9101456
vn 0.9861667 0.09794427 -0.1337245
vn 0.2118017 0.9652329 -0.1531844
vn 0.4286239 0.09794427 -0.8981584
vn -0.500614 0.3147664 -0.8064166
vn -0.8413345 0.5315886 0.09782519
vn -0.2837918 0.5315886 0.7980449
vn 0.6454461 0.3147664 0.6959321
vn 0.6454461 -0.4286239 -0.6322032
vn 0.9242175 -0.2118017 0.3177454
vn 0.8312936 0.3147664 -0.4581189
vn 0.4905731 -0.8622683 0.1258232
vn -0.005020482 0.09794427 -0.9951792
vn 0.05692877 0.7793853 -0.6239532
vn 0.1808271 -0.2737509 0.9446491
vn -0.3147664 -0.7693445 0.5559057
vn -0.6245124 0.190868 0.7573333
vn -0.9342583 -0.2427763 0.2611915
vn -0.6864616 0.7174361 -0.1185576
vn -0.7793853 0.190868 -0.5967645
vn 0.05692877 0.7793853 -0.6239532
vn -0.005020482 0.09794427 -0.9951792
vn 0.6454461 -0.4286239 -0.6322032
vn -0.345741 -0.8003191 -0.4898495
vn 0.4905731 -0.8622683 0.1258232
vn -0.005020482 0.09794427 -0.9951792
vn -0.7793853 0.190868 -0.5967645
vn -0.9342583 -0.2427763 0.2611915
vn -0.3147664 -0.7693445 0.5559057
vn 0.9242175 -0.2118017 0.3177454
vn 0.3357001 0.7793853 0.5290217
vn 0.8312936 0.3147664 -0.4581189
vn 0.05692877 0.7793853 -0.6239532
vn -0.6864616 0.7174361 -0.1185576
vn -0.6245124 0.190868 0.7573333
vn 0.1808271 -0.2737509 0.9446491
f 3/3/3 2/2/2 1/1/1
f 4/4/4 1/1/1 2/2/2
f 1/1/1 5/5/5 3/3/3
f 6/6/6 3/3/3 5/5/5
f 2/2/2 7/7/7 4/4/4
f 8/8/8 4/4/4 7/7/7
f 7/7/7 9/9/9 8/8/8
f 10/10/10 8/8/8 9/9/9
f 9/9/9 11/11/11 10/10/10
f 12/12/12 10/10/10 11/11/11
f 11/11/11 13/13/13 12/12/12
f 14/14/14 12/12/12 13/13/13
f 17/17/17 16/16/16 15/15/15
f 15/15/15 16/16/16 18/18/18
f 18/18/18 16/16/16 19/19/19
f 19/19/19 16/16/16 20/20/20
f 20/20/20 16/16/16 21/21/21
f 21/21/21 16/16/16 17/17/17
f 24/24/24 23/23/23 22/22/22
f 25/25/25 23/23/23 24/24/24
f 26/26/26 23/23/23 25/25/25
f 27/27/27 23/23/23 26/26/26
f 28/28/28 23/23/23 27/27/27
f 22/22/22 23/23/23 28/28/28
f 31/31/31 30/30/30 29/29/29
f 32/32/32 29/29/29 30/30/30
f 29/29/29 33/33/33 31/31/31
f 34/34/34 31/31/31 33/33/33
f 30/30/30 35/35/35 32/32/32
f 36/36/36 32/32/32 35/35/35
f 35/35/35 37/37/37 36/36/36
f 38/38/38 36/36/36 37/37/37
f 37/37/37 39/39/39 38/38/38
f 40/40/40 38/38/38 39/39/39
f 39/39/39 41/41/41 40/40/40
f 42/42/42 40/40/40 41/41/41
f 45/45/45 44/44/44 43/43/43
f 43/43/43 44/44/44 46/46/46
f 46/46/46 44/44/44 47/47/47
f 47/47/47 44/44/44 48/48/48
f 48/48/48 44/44/44 49/49/49
f 49/49/49 44/44/44 45/45/45
f 52/52/52 51/51/51 50/50/50
f 53/53/53 51/51/51 52/52/52
f 54/54/54 51/51/51 53/53/53
f 55/55/55 51/51/51 54/54/54
f 56/56/56 51/51/51 55/55/55
f 50/50/50 51/51/51 56/56/56
f 59/59/59 58/58/58 57/57/57
f 60/60/60 57/57/57 58/58/58
f 57/57/57 61/61/61 59/59/59
f 62/62/62 59/59/59 61/61/61
f 58/58/58 63/63/63 60/60/60
f 64/64/64 60/60/60 63/63/63
f 63/63/63 65/65/65 64/64/64
f 66/66/66 64/64/64 65/65/65
f 65/65/65 67/67/67 66/66/66
f 68/68/68 66/66/66 67/67/67
f 67/67/67 69/69/69 68/68/68
f 70/70/70 68/68/68 69/69/69
f 73/73/73 72/72/72 71/71/71
f 71/71/71 72/72/72 74/74/74
f 74/74/74 72/72/72 75/75/75
f 75/75/75 72/72/72 76/76/76
f 76/76/76 72/72/72 77/77/77
f 77/77/77 72/72/72 73/73/73
f 80/80/80 79/79/79 78/78/78
f 81/81/81 79/79/79 80/80/80
f 82/82/82 79/79/79 81/81/81
f 83/83/83 79/79/79 82/82/82
f 84/84/84 79/79/79 83/83/83
f 78/78/78 79/79/79 84/84/84
