g LightningEmitter02
v 0.4977463 5.107263 -0.1033819
v 1.22774 3.118659 -0.8082033
v 0.8921107 3.118659 -1.278084
v 0.06142825 5.107263 -0.4725741
v 1.22774 3.118659 -0.8082033
v -0.1063864 2.09499 -0.5816537
v -0.7105192 2.178897 -0.8501571
v 0.8921107 3.118659 -1.278084
v -0.1063864 2.09499 -0.5816537
v 0.5480906 1.348215 -1.622104
v -0.02247913 1.348215 -1.353601
v -0.7105192 2.178897 -0.8501571
v 0.5480906 1.348215 -1.622104
v 1.051535 -0.002693045 -1.00119
v 0.4725741 -0.002693045 -0.7326868
v -0.02247913 1.348215 -1.353601
v 0.4893556 5.107263 -0.5229185
v 1.219349 2.950845 -1.278084
v 0.9005014 3.278083 -0.7998126
v 0.06981897 5.107263 -0.05303752
v -0.4923601 2.195679 -0.3467131
v -0.2658103 2.044646 -1.152223
v -0.2658103 2.044646 -1.152223
v 0.4138389 1.339824 -1.957734
v 0.128554 1.339824 -1.034753
v -0.4923601 2.195679 -0.3467131
v 0.8669385 -0.002693045 -0.5984351
v 0.6571702 -0.002693045 -1.135442
v -0.03086985 6.625986 0.3497178
v 0.3047595 4.628991 -0.03625607
v -0.0812142 4.628991 -0.7410775
v -0.5594859 6.625986 -0.254415
v -1.130056 2.883719 0.1147771
v -0.525923 3.420726 0.584658
v -0.525923 3.420726 0.584658
v 0.1369448 2.002692 -0.9005014
v -0.6350027 2.002692 -0.6739516
v -1.130056 2.883719 0.1147771
v 0.1369448 2.002692 -0.9005014
v 0.380276 -0.002693045 -0.1117726
v -0.3832807 -0.002693045 0.1063864
v -0.6350027 2.002692 -0.6739516
v 0.002693045 6.625986 -0.2208521
v 0.3467131 4.38566 -0.6655609
v -0.1231679 4.863932 -0.1033819
v -0.593049 6.625986 0.3161546
v -0.9958041 3.12705 0.8279893
v -0.5678766 3.210958 -0.19568
v -0.4671879 1.994301 -0.2040707
v -0.0140884 1.994301 -1.378773
v 0.1117726 -0.002693045 0.3832807
v -0.1063864 -0.002693045 -0.380276
vt 1 1
vt 1 0.7490196
vt 0 0.7490196
vt 0 1
vt 1 0.7490196
vt 1 0.5019608
vt 0 0.5019608
vt 0 0.7490196
vt 1 0.5019608
vt 1 0.2509804
vt 0 0.2509804
vt 0 0.5019608
vt 1 0.2509804
vt 1 0
vt 0 0
vt 0 0.2509804
vt 1 1
vt 1 0.7490196
vt 0 0.7490196
vt 0 1
vt 0 0.5019608
vt 1 0.5019608
vt 1 0.5019608
vt 1 0.2509804
vt 0 0.2509804
vt 0 0.5019608
vt 0 0
vt 1 0
vt 1 1
vt 1 0.7490196
vt 0 0.7490196
vt 0 1
vt 0 0.5019608
vt 1 0.5019608
vt 1 0.5019608
vt 1 0.2509804
vt 0 0.2509804
vt 0 0.5019608
vt 1 0.2509804
vt 1 0
vt 0 0
vt 0 0.2509804
vt 1 1
vt 1 0.7490196
vt 0 0.7490196
vt 0 1
vt 0 0.5019608
vt 1 0.5019608
vt 0 0.2509804
vt 1 0.2509804
vt 0 0
vt 1 0
vn -0.6462207 -0.4855633 0.5887505
vn -0.6462207 -0.4855633 0.5887505
vn -0.6462207 -0.4855633 0.5887505
vn -0.6462207 -0.4855633 0.5887505
vn -0.3850398 0.733281 0.5603958
vn -0.3850398 0.733281 0.5603958
vn -0.3850398 0.733281 0.5603958
vn -0.3850398 0.733281 0.5603958
vn -0.06581867 -0.7177241 0.6932099
vn -0.06581867 -0.7177241 0.6932099
vn -0.06581867 -0.7177241 0.6932099
vn -0.06581867 -0.7177241 0.6932099
vn 0.3694829 0.5011202 0.782535
vn 0.3694829 0.5011202 0.782535
vn 0.3694829 0.5011202 0.782535
vn 0.3694829 0.5011202 0.782535
vn 0.8047844 0.09483877 0.5859417
vn 0.7467442 -0.3114427 0.5876874
vn 0.7467442 -0.3114427 0.5876874
vn 0.8047844 0.09483877 0.5859417
vn 0.5726236 -0.6596839 0.4867437
vn 0.5726236 -0.6596839 0.4867437
vn 0.8338045 0.5011202 0.2316218
vn 0.8918447 0.44308 0.09106691
vn 0.8918447 0.44308 0.09106691
vn 0.8338045 0.5011202 0.2316218
vn 0.9208648 0.3560197 0.1589276
vn 0.9208648 0.3560197 0.1589276
vn -0.7913212 -0.2824226 0.5422622
vn -0.8493614 0.1818991 0.4954776
vn -0.8493614 0.1818991 0.4954776
vn -0.7913212 -0.2824226 0.5422622
vn -0.7042609 0.6172006 0.3508277
vn -0.7042609 0.6172006 0.3508277
vn 0.1373221 -0.6596839 0.7388909
vn 0.1373221 -0.6596839 0.7388909
vn 0.1373221 -0.6596839 0.7388909
vn 0.1373221 -0.6596839 0.7388909
vn 0.2534025 0.3850398 0.8874298
vn 0.2534025 0.3850398 0.8874298
vn 0.2534025 0.3850398 0.8874298
vn 0.2534025 0.3850398 0.8874298
vn 0.7177241 0.007778472 0.6962842
vn 0.7757643 -0.1373221 0.6158997
vn 0.7757643 -0.1373221 0.6158997
vn 0.7177241 0.007778472 0.6962842
vn 0.8918447 -0.07928188 0.4453397
vn 0.8918447 -0.07928188 0.4453397
vn 0.9498849 0.1238589 0.2870151
vn 0.9498849 0.1238589 0.2870151
vn 0.978905 0.152879 0.135547
vn 0.978905 0.152879 0.135547
f 3/3/3 2/2/2 1/1/1
f 4/4/4 3/3/3 1/1/1
f 7/7/7 6/6/6 5/5/5
f 8/8/8 7/7/7 5/5/5
f 11/11/11 10/10/10 9/9/9
f 12/12/12 11/11/11 9/9/9
f 15/15/15 14/14/14 13/13/13
f 16/16/16 15/15/15 13/13/13
f 19/19/19 18/18/18 17/17/17
f 20/20/20 19/19/19 17/17/17
f 19/19/19 21/21/21 18/18/18
f 21/21/21 22/22/22 18/18/18
f 25/25/25 24/24/24 23/23/23
f 26/26/26 25/25/25 23/23/23
f 25/25/25 27/27/27 24/24/24
f 27/27/27 28/28/28 24/24/24
f 31/31/31 30/30/30 29/29/29
f 32/32/32 31/31/31 29/29/29
f 31/31/31 33/33/33 30/30/30
f 33/33/33 34/34/34 30/30/30
f 37/37/37 36/36/36 35/35/35
f 38/38/38 37/37/37 35/35/35
f 41/41/41 40/40/40 39/39/39
f 42/42/42 41/41/41 39/39/39
f 45/45/45 44/44/44 43/43/43
f 46/46/46 45/45/45 43/43/43
f 45/45/45 47/47/47 44/44/44
f 47/47/47 48/48/48 44/44/44
f 47/47/47 49/49/49 48/48/48
f 49/49/49 50/50/50 48/48/48
f 49/49/49 51/51/51 50/50/50
f 51/51/51 52/52/52 50/50/50
