g msh_leave
v -0.7594719 -0.7594719 0.1061627
v -0.7594719 0.000742396 0.04974063
v -0.3793648 0.000742396 -0.06161892
v -0.7594719 0.7594719 0.1061627
v -0.000742396 0.3793648 -0.06161892
v -0.000742396 0.7594719 0.04974063
v 0.7594719 0.7594719 0.1061627
v 0.3793648 0.000742396 -0.06161892
v -0.000742396 -0.3793648 -0.06161892
v 0.7594719 -0.7594719 0.1061627
v -0.000742396 0.000742396 -0.09576918
v -0.000742396 -0.7594719 0.04974063
v 0.7594719 0.000742396 0.04974063
vt 0 0
vt 0 0.5019608
vt 0.2509804 0.5019608
vt 0 1
vt 0.5019608 0.7490196
vt 0.5019608 1
vt 1 1
vt 0.7490196 0.5019608
vt 0.5019608 0.2509804
vt 1 0
vt 0.5019608 0.5019608
vt 0.5019608 0
vt 1 0.5019608
vn 0.1644251 0.1644251 0.9725887
vn 0.2799671 0.004443909 0.9599993
vn 0.1822008 0.004443909 0.9832513
vn 0.1644251 -0.1644251 0.9725887
vn -0.004443909 -0.1822008 0.9832513
vn -0.004443909 -0.2799671 0.9599993
vn -0.1644251 -0.1644251 0.9725887
vn -0.1822008 0.004443909 0.9832513
vn -0.004443909 0.1822008 0.9832513
vn -0.1644251 0.1644251 0.9725887
vn -0.004443909 0.004443909 0.9999803
vn -0.004443909 0.279967 0.9599993
vn -0.279967 0.004443909 0.9599993
f 3/3/3 2/2/2 1/1/1
f 3/3/3 4/4/4 2/2/2
f 5/5/5 4/4/4 3/3/3
f 5/5/5 6/6/6 4/4/4
f 5/5/5 7/7/7 6/6/6
f 7/7/7 5/5/5 8/8/8
f 9/9/9 3/3/3 1/1/1
f 8/8/8 9/9/9 10/10/10
f 9/9/9 11/11/11 3/3/3
f 9/9/9 8/8/8 11/11/11
f 11/11/11 5/5/5 3/3/3
f 11/11/11 8/8/8 5/5/5
f 12/12/12 9/9/9 1/1/1
f 12/12/12 10/10/10 9/9/9
f 13/13/13 7/7/7 8/8/8
f 13/13/13 8/8/8 10/10/10
