g part02
v -0.4362107 -0.01288661 -0.5856483
v -0.5110602 0.1986447 -0.6832781
v -0.8267301 0.1986447 -0.2114006
v -0.7095742 -0.01288661 -0.1788573
v -0.9699203 0.4817712 -0.2471982
v -0.5989271 0.4817712 -0.8004339
v -1.038261 0.8072041 -0.3155391
v -0.6900482 0.8072041 -0.8394859
v -1.06755 1.152163 -0.3968973
v -0.7746606 1.152163 -0.8362315
v -1.06755 1.500376 -0.4750011
v -0.846256 1.500376 -0.8036883
v -1.051279 1.84208 -0.5400877
v -0.9015796 1.84208 -0.7646363
v -1.02199 2.151241 -0.5856483
v -0.9308684 2.151241 -0.7190757
v 0.8004339 0.4817712 -0.5986656
v 0.8394859 0.8072041 -0.6897868
v 0.3155391 0.8072041 -1.038
v 0.2471982 0.4817712 -0.969659
v 0.3968973 1.152163 -1.067289
v 0.8362315 1.152163 -0.7743993
v 0.4750011 1.500376 -1.067289
v 0.8036883 1.500376 -0.8459945
v 0.5400877 1.84208 -1.051017
v 0.7646363 1.84208 -0.9013181
v 0.5856483 2.151241 -1.021728
v 0.7190757 2.151241 -0.930607
v 0.6832781 0.1986447 -0.5107988
v 0.2114006 0.1986447 -0.8264685
v 0.5856483 -0.01288661 -0.4392036
v 0.1788573 -0.01288661 -0.7093127
v 0.9013181 1.84208 0.7648977
v 0.930607 2.151241 0.7193372
v 1.021728 2.151241 0.5826553
v 1.051017 1.84208 0.5370948
v 0.8459945 1.500376 0.8039498
v 1.067289 1.500376 0.4752626
v 0.7743993 1.152163 0.836493
v 1.067289 1.152163 0.3939044
v 0.6897868 0.8072041 0.8397474
v 1.038 0.8072041 0.3158005
v 0.5986656 0.4817712 0.8006955
v 0.969659 0.4817712 0.2474597
v 0.5107988 0.1986447 0.6835396
v 0.8264685 0.1986447 0.2084077
v 0.4392036 -0.01288661 0.5859097
v 0.7093127 -0.01288661 0.1791188
v -0.5859097 -0.01288661 0.4362107
v -0.6835396 0.1986447 0.5110602
v -0.2084077 0.1986447 0.8267301
v -0.1791188 -0.01288661 0.7095742
v -0.2474597 0.4817712 0.9699203
v -0.8006955 0.4817712 0.5989271
v -0.3158005 0.8072041 1.038261
v -0.8397474 0.8072041 0.6900482
v -0.3939044 1.152163 1.06755
v -0.836493 1.152163 0.7746606
v -0.4752626 1.500376 1.06755
v -0.8039498 1.500376 0.846256
v -0.5370948 1.84208 1.051279
v -0.7648977 1.84208 0.9015796
v -0.5826553 2.151241 1.02199
v -0.7193372 2.151241 0.9308684
v 0.1040078 -0.01288661 -0.7255844
v 0.1235337 0.1986447 -0.8427402
v -0.4362107 0.1986447 -0.732093
v -0.3743784 -0.01288661 -0.6279545
v -0.5110602 0.4817712 -0.8590118
v 0.1430597 0.4817712 -0.9891849
v -0.5110602 0.8072041 -0.9566417
v 0.1072621 0.8072041 -1.080306
v -0.4752626 1.152163 -1.034746
v 0.04217554 1.152163 -1.138884
v -0.419939 1.500376 -1.090069
v -0.02941971 1.500376 -1.168173
v -0.3646154 1.84208 -1.125867
v -0.0945062 1.84208 -1.177936
v -0.3092918 2.151241 -1.13563
v -0.1498298 2.151241 -1.168173
v 0.9891849 0.4817712 0.1433212
v 1.080306 0.8072041 0.1075235
v 0.9566417 0.8072041 -0.5107988
v 0.8590118 0.4817712 -0.5107988
v 1.034746 1.152163 -0.4750011
v 1.138884 1.152163 0.04243701
v 1.090069 1.500376 -0.4196776
v 1.168173 1.500376 -0.02915823
v 1.125867 1.84208 -0.364354
v 1.177936 1.84208 -0.09424483
v 1.13563 2.151241 -0.3090305
v 1.168173 2.151241 -0.1495683
v 0.8427402 0.1986447 0.1237952
v 0.732093 0.1986447 -0.4359492
v 0.7255844 -0.01288661 0.1042692
v 0.6279545 -0.01288661 -0.374117
v 0.09424483 1.84208 1.178197
v 0.1495683 2.151241 1.168434
v 0.3090305 2.151241 1.135891
v 0.364354 1.84208 1.126128
v 0.02915823 1.500376 1.168434
v 0.4196776 1.500376 1.090331
v -0.04243701 1.152163 1.135891
v 0.4750011 1.152163 1.035007
v -0.1075235 0.8072041 1.080568
v 0.5107988 0.8072041 0.956903
v -0.1433212 0.4817712 0.9894463
v 0.5107988 0.4817712 0.8592733
v -0.1237952 0.1986447 0.8430017
v 0.4359492 0.1986447 0.7323545
v -0.1042692 -0.01288661 0.7225915
v 0.374117 -0.01288661 0.628216
v -0.7225915 -0.01288661 -0.1040078
v -0.8430017 0.1986447 -0.1235337
v -0.7323545 0.1986447 0.4362107
v -0.628216 -0.01288661 0.3743784
v -0.8592733 0.4817712 0.5110602
v -0.9894463 0.4817712 -0.1430597
v -0.956903 0.8072041 0.5110602
v -1.080568 0.8072041 -0.1072621
v -1.035007 1.152163 0.4752626
v -1.135891 1.152163 -0.04217554
v -1.090331 1.500376 0.419939
v -1.168434 1.500376 0.02941971
v -1.126128 1.84208 0.3646154
v -1.178197 1.84208 0.0945062
v -1.135891 2.151241 0.3092918
v -1.168434 2.151241 0.1498298
vt 0.5016047 0
vt 0.5016047 0.1430357
vt 0.7504477 0.1430357
vt 0.7504477 0
vt 0.7504477 0.2860714
vt 0.5016047 0.2860714
vt 0.7504477 0.4291072
vt 0.5016047 0.4291072
vt 0.7504477 0.5721429
vt 0.5016047 0.5721429
vt 0.7504477 0.7151786
vt 0.5016047 0.7151786
vt 0.7504477 0.8562549
vt 0.5016047 0.8562549
vt 0.7504477 0.9992906
vt 0.5016047 0.9992906
vt 0.2508024 0.2860714
vt 0.2508024 0.4291072
vt 0.5016047 0.4291072
vt 0.5016047 0.2860714
vt 0.5016047 0.5721429
vt 0.2508024 0.5721429
vt 0.5016047 0.7151786
vt 0.2508024 0.7151786
vt 0.5016047 0.8562549
vt 0.2508024 0.8562549
vt 0.5016047 0.9992906
vt 0.2508024 0.9992906
vt 0.2508024 0.1430357
vt 0.5016047 0.1430357
vt 0.2508024 0
vt 0.5016047 0
vt 0.7504477 0.8562549
vt 0.7504477 0.9992906
vt 1.00125 0.9992906
vt 1.00125 0.8562549
vt 0.7504477 0.7151786
vt 1.00125 0.7151786
vt 0.7504477 0.5721429
vt 1.00125 0.5721429
vt 0.7504477 0.4291072
vt 1.00125 0.4291072
vt 0.7504477 0.2860714
vt 1.00125 0.2860714
vt 0.7504477 0.1430357
vt 1.00125 0.1430357
vt 0.7504477 0
vt 1.00125 0
vt 0.001959393 0
vt 0.001959393 0.1430357
vt 0.2508024 0.1430357
vt 0.2508024 0
vt 0.2508024 0.2860714
vt 0.001959393 0.2860714
vt 0.2508024 0.4291072
vt 0.001959393 0.4291072
vt 0.2508024 0.5721429
vt 0.001959393 0.5721429
vt 0.2508024 0.7151786
vt 0.001959393 0.7151786
vt 0.2508024 0.8562549
vt 0.001959393 0.8562549
vt 0.2508024 0.9992906
vt 0.001959393 0.9992906
vt 0.5016047 0
vt 0.5016047 0.1430357
vt 0.7504477 0.1430357
vt 0.7504477 0
vt 0.7504477 0.2860714
vt 0.5016047 0.2860714
vt 0.7504477 0.4291072
vt 0.5016047 0.4291072
vt 0.7504477 0.5721429
vt 0.5016047 0.5721429
vt 0.7504477 0.7151786
vt 0.5016047 0.7151786
vt 0.7504477 0.8562549
vt 0.5016047 0.8562549
vt 0.7504477 0.9992906
vt 0.5016047 0.9992906
vt 0.2508024 0.2860714
vt 0.2508024 0.4291072
vt 0.5016047 0.4291072
vt 0.5016047 0.2860714
vt 0.5016047 0.5721429
vt 0.2508024 0.5721429
vt 0.5016047 0.7151786
vt 0.2508024 0.7151786
vt 0.5016047 0.8562549
vt 0.2508024 0.8562549
vt 0.5016047 0.9992906
vt 0.2508024 0.9992906
vt 0.2508024 0.1430357
vt 0.5016047 0.1430357
vt 0.2508024 0
vt 0.5016047 0
vt 0.7504477 0.8562549
vt 0.7504477 0.9992906
vt 1.00125 0.9992906
vt 1.00125 0.8562549
vt 0.7504477 0.7151786
vt 1.00125 0.7151786
vt 0.7504477 0.5721429
vt 1.00125 0.5721429
vt 0.7504477 0.4291072
vt 1.00125 0.4291072
vt 0.7504477 0.2860714
vt 1.00125 0.2860714
vt 0.7504477 0.1430357
vt 1.00125 0.1430357
vt 0.7504477 0
vt 1.00125 0
vt 0.001959393 0
vt 0.001959393 0.1430357
vt 0.2508024 0.1430357
vt 0.2508024 0
vt 0.2508024 0.2860714
vt 0.001959393 0.2860714
vt 0.2508024 0.4291072
vt 0.001959393 0.4291072
vt 0.2508024 0.5721429
vt 0.001959393 0.5721429
vt 0.2508024 0.7151786
vt 0.001959393 0.7151786
vt 0.2508024 0.8562549
vt 0.001959393 0.8562549
vt 0.2508024 0.9992906
vt 0.001959393 0.9992906
vn -0.7316968 -0.4826085 -0.4813615
vn -0.7316968 -0.4514724 -0.5106784
vn -0.7316968 -0.4514724 -0.5106784
vn -0.7316968 -0.4826085 -0.4813615
vn -0.7628328 -0.3580644 -0.5384014
vn -0.7628328 -0.3580644 -0.5384014
vn -0.7939689 -0.2335202 -0.5613214
vn -0.7939689 -0.2335202 -0.5613214
vn -0.8251048 -0.1712482 -0.5384014
vn -0.8251048 -0.1712482 -0.5384014
vn -0.8251048 -0.1089761 -0.5543701
vn -0.8251048 -0.1089761 -0.5543701
vn -0.8251048 -0.04670405 -0.563046
vn -0.8251048 -0.04670405 -0.563046
vn -0.8251048 0.01556807 -0.5647652
vn -0.8251048 0.01556807 -0.5647652
vn 0.5137445 -0.3580644 -0.7796515
vn 0.5448806 -0.2335202 -0.8053406
vn 0.5448806 -0.2335202 -0.8053406
vn 0.5137445 -0.3580644 -0.7796515
vn 0.5448806 -0.1712482 -0.8208405
vn 0.5448806 -0.1712482 -0.8208405
vn 0.5448806 -0.1089761 -0.8314021
vn 0.5448806 -0.1089761 -0.8314021
vn 0.5448806 -0.04670405 -0.837212
vn 0.5448806 -0.04670405 -0.837212
vn 0.5448806 0.01556807 -0.8383691
vn 0.5448806 0.01556807 -0.8383691
vn 0.4826085 -0.4514724 -0.7505077
vn 0.4826085 -0.4514724 -0.7505077
vn 0.4826085 -0.4826085 -0.7308749
vn 0.4826085 -0.4826085 -0.7308749
vn 0.8251048 -0.04670405 0.563046
vn 0.8251048 0.01556807 0.5647652
vn 0.8251048 0.01556807 0.5647652
vn 0.8251048 -0.04670405 0.563046
vn 0.8251048 -0.1089761 0.5543701
vn 0.8251048 -0.1089761 0.5543701
vn 0.8251048 -0.1712482 0.5384014
vn 0.8251048 -0.1712482 0.5384014
vn 0.7939688 -0.2335202 0.5613215
vn 0.7939688 -0.2335202 0.5613215
vn 0.7628328 -0.3580644 0.5384014
vn 0.7628328 -0.3580644 0.5384014
vn 0.7316967 -0.4514724 0.5106785
vn 0.7316967 -0.4514724 0.5106785
vn 0.7316967 -0.4826085 0.4813616
vn 0.7316967 -0.4826085 0.4813616
vn -0.4826085 -0.4826085 0.7308749
vn -0.4826085 -0.4514724 0.7505076
vn -0.4826085 -0.4514724 0.7505076
vn -0.4826085 -0.4826085 0.7308749
vn -0.5137445 -0.3580644 0.7796515
vn -0.5137445 -0.3580644 0.7796515
vn -0.5448806 -0.2335202 0.8053406
vn -0.5448806 -0.2335202 0.8053406
vn -0.5448806 -0.1712482 0.8208405
vn -0.5448806 -0.1712482 0.8208405
vn -0.5448806 -0.1089761 0.8314021
vn -0.5448806 -0.1089761 0.8314021
vn -0.5448806 -0.04670405 0.837212
vn -0.5448806 -0.04670405 0.837212
vn -0.5448806 0.01556807 0.8383691
vn -0.5448806 0.01556807 0.8383691
vn -0.1712482 -0.4826085 -0.8589314
vn -0.1712482 -0.4514724 -0.8756979
vn -0.1712482 -0.4514724 -0.8756979
vn -0.1712482 -0.4826085 -0.8589314
vn -0.1712482 -0.3580644 -0.9178584
vn -0.1712482 -0.3580644 -0.9178584
vn -0.2023842 -0.2335202 -0.9510567
vn -0.2023842 -0.2335202 -0.9510567
vn -0.2023842 -0.1712482 -0.9642171
vn -0.2023842 -0.1712482 -0.9642171
vn -0.2023842 -0.1089761 -0.9732239
vn -0.2023842 -0.1089761 -0.9732239
vn -0.2023842 -0.04670405 -0.9781919
vn -0.2023842 -0.04670405 -0.9781919
vn -0.2023842 0.01556807 -0.9791824
vn -0.2023842 0.01556807 -0.9791824
vn 0.9185129 -0.3580644 -0.1677018
vn 0.949649 -0.2335202 -0.2088902
vn 0.949649 -0.2335202 -0.2088902
vn 0.9185129 -0.3580644 -0.1677018
vn 0.980785 -0.1712482 -0.09346028
vn 0.980785 -0.1712482 -0.09346028
vn 0.980785 -0.1089761 -0.1618177
vn 0.980785 -0.1089761 -0.1618177
vn 0.980785 -0.04670405 -0.1894188
vn 0.980785 -0.04670405 -0.1894188
vn 0.980785 0.01556807 -0.1944695
vn 0.980785 0.01556807 -0.1944695
vn 0.8873769 -0.4514724 -0.09346054
vn 0.8873769 -0.4514724 -0.09346054
vn 0.8562409 -0.4826085 -0.1842299
vn 0.8562409 -0.4826085 -0.1842299
vn 0.2023842 -0.04670405 0.9781919
vn 0.2023842 0.01556807 0.9791824
vn 0.2023842 0.01556807 0.9791824
vn 0.2023842 -0.04670405 0.9781919
vn 0.2023842 -0.1089761 0.9732239
vn 0.2023842 -0.1089761 0.9732239
vn 0.2023842 -0.1712482 0.9642171
vn 0.2023842 -0.1712482 0.9642171
vn 0.2023842 -0.2335202 0.9510567
vn 0.2023842 -0.2335202 0.9510567
vn 0.1712482 -0.3580644 0.9178584
vn 0.1712482 -0.3580644 0.9178584
vn 0.1712482 -0.4514724 0.8756979
vn 0.1712482 -0.4514724 0.8756979
vn 0.1712482 -0.4826085 0.8589314
vn 0.1712482 -0.4826085 0.8589314
vn -0.8562409 -0.4826085 0.1842299
vn -0.8873769 -0.4514724 0.09346054
vn -0.8873769 -0.4514724 0.09346054
vn -0.8562409 -0.4826085 0.1842299
vn -0.9185129 -0.3580644 0.1677018
vn -0.9185129 -0.3580644 0.1677018
vn -0.949649 -0.2335202 0.2088902
vn -0.949649 -0.2335202 0.2088902
vn -0.980785 -0.1712482 0.09346028
vn -0.980785 -0.1712482 0.09346028
vn -0.980785 -0.1089761 0.1618177
vn -0.980785 -0.1089761 0.1618177
vn -0.980785 -0.04670405 0.1894188
vn -0.980785 -0.04670405 0.1894188
vn -0.980785 0.01556807 0.1944695
vn -0.980785 0.01556807 0.1944695
f 3/3/3 2/2/2 1/1/1
f 4/4/4 3/3/3 1/1/1
f 3/3/3 5/5/5 2/2/2
f 5/5/5 6/6/6 2/2/2
f 5/5/5 7/7/7 6/6/6
f 7/7/7 8/8/8 6/6/6
f 7/7/7 9/9/9 8/8/8
f 9/9/9 10/10/10 8/8/8
f 9/9/9 11/11/11 10/10/10
f 11/11/11 12/12/12 10/10/10
f 11/11/11 13/13/13 12/12/12
f 13/13/13 14/14/14 12/12/12
f 13/13/13 15/15/15 14/14/14
f 15/15/15 16/16/16 14/14/14
f 19/19/19 18/18/18 17/17/17
f 20/20/20 19/19/19 17/17/17
f 19/19/19 21/21/21 18/18/18
f 21/21/21 22/22/22 18/18/18
f 21/21/21 23/23/23 22/22/22
f 23/23/23 24/24/24 22/22/22
f 23/23/23 25/25/25 24/24/24
f 25/25/25 26/26/26 24/24/24
f 25/25/25 27/27/27 26/26/26
f 27/27/27 28/28/28 26/26/26
f 20/20/20 17/17/17 29/29/29
f 30/30/30 20/20/20 29/29/29
f 30/30/30 29/29/29 31/31/31
f 32/32/32 30/30/30 31/31/31
f 35/35/35 34/34/34 33/33/33
f 36/36/36 35/35/35 33/33/33
f 36/36/36 33/33/33 37/37/37
f 38/38/38 36/36/36 37/37/37
f 38/38/38 37/37/37 39/39/39
f 40/40/40 38/38/38 39/39/39
f 40/40/40 39/39/39 41/41/41
f 42/42/42 40/40/40 41/41/41
f 42/42/42 41/41/41 43/43/43
f 44/44/44 42/42/42 43/43/43
f 44/44/44 43/43/43 45/45/45
f 46/46/46 44/44/44 45/45/45
f 46/46/46 45/45/45 47/47/47
f 48/48/48 46/46/46 47/47/47
f 51/51/51 50/50/50 49/49/49
f 52/52/52 51/51/51 49/49/49
f 51/51/51 53/53/53 50/50/50
f 53/53/53 54/54/54 50/50/50
f 53/53/53 55/55/55 54/54/54
f 55/55/55 56/56/56 54/54/54
f 55/55/55 57/57/57 56/56/56
f 57/57/57 58/58/58 56/56/56
f 57/57/57 59/59/59 58/58/58
f 59/59/59 60/60/60 58/58/58
f 59/59/59 61/61/61 60/60/60
f 61/61/61 62/62/62 60/60/60
f 61/61/61 63/63/63 62/62/62
f 63/63/63 64/64/64 62/62/62
f 67/67/67 66/66/66 65/65/65
f 68/68/68 67/67/67 65/65/65
f 67/67/67 69/69/69 66/66/66
f 69/69/69 70/70/70 66/66/66
f 69/69/69 71/71/71 70/70/70
f 71/71/71 72/72/72 70/70/70
f 71/71/71 73/73/73 72/72/72
f 73/73/73 74/74/74 72/72/72
f 73/73/73 75/75/75 74/74/74
f 75/75/75 76/76/76 74/74/74
f 75/75/75 77/77/77 76/76/76
f 77/77/77 78/78/78 76/76/76
f 77/77/77 79/79/79 78/78/78
f 79/79/79 80/80/80 78/78/78
f 83/83/83 82/82/82 81/81/81
f 84/84/84 83/83/83 81/81/81
f 83/83/83 85/85/85 82/82/82
f 85/85/85 86/86/86 82/82/82
f 85/85/85 87/87/87 86/86/86
f 87/87/87 88/88/88 86/86/86
f 87/87/87 89/89/89 88/88/88
f 89/89/89 90/90/90 88/88/88
f 89/89/89 91/91/91 90/90/90
f 91/91/91 92/92/92 90/90/90
f 84/84/84 81/81/81 93/93/93
f 94/94/94 84/84/84 93/93/93
f 94/94/94 93/93/93 95/95/95
f 96/96/96 94/94/94 95/95/95
f 99/99/99 98/98/98 97/97/97
f 100/100/100 99/99/99 97/97/97
f 100/100/100 97/97/97 101/101/101
f 102/102/102 100/100/100 101/101/101
f 102/102/102 101/101/101 103/103/103
f 104/104/104 102/102/102 103/103/103
f 104/104/104 103/103/103 105/105/105
f 106/106/106 104/104/104 105/105/105
f 106/106/106 105/105/105 107/107/107
f 108/108/108 106/106/106 107/107/107
f 108/108/108 107/107/107 109/109/109
f 110/110/110 108/108/108 109/109/109
f 110/110/110 109/109/109 111/111/111
f 112/112/112 110/110/110 111/111/111
f 115/115/115 114/114/114 113/113/113
f 116/116/116 115/115/115 113/113/113
f 115/115/115 117/117/117 114/114/114
f 117/117/117 118/118/118 114/114/114
f 117/117/117 119/119/119 118/118/118
f 119/119/119 120/120/120 118/118/118
f 119/119/119 121/121/121 120/120/120
f 121/121/121 122/122/122 120/120/120
f 121/121/121 123/123/123 122/122/122
f 123/123/123 124/124/124 122/122/122
f 123/123/123 125/125/125 124/124/124
f 125/125/125 126/126/126 124/124/124
f 125/125/125 127/127/127 126/126/126
f 127/127/127 128/128/128 126/126/126
