g plane01
v 1.071763 -3.667627 -2.435457
v 2.033963 -3.667627 -1.715537
v 0.5179791 -0.2133982 -0.185709
v 0.03341809 -0.2133982 -0.552591
v -2.340931 -3.314589 -1.417879
v -1.773303 -3.314589 -2.089342
v -0.08426092 -0.2687765 -0.3656887
v -0.3749977 -0.2687765 -0.0264958
v 1.985507 -3.203832 1.261052
v 1.078686 -3.203832 2.091728
v 0.1441752 -0.2341651 0.6242003
v 0.6079694 -0.2341651 0.2019399
v -1.371809 -3.812995 1.780225
v -0.1257947 -3.812995 2.244019
v 0.185709 -0.2895434 0.4719099
v -0.451143 -0.2895434 0.2365514
v 0.1926313 -2.968474 -1.805527
v -0.6726564 -2.968474 -1.687848
v -0.2365514 -0.3587664 -0.07495186
v 0.2064759 -0.3587664 -0.1372529
v 0.8087159 -4.297556 0.8664811
v 1.147909 -4.297556 -0.3103103
v 0.5941248 -0.3103103 -0.1580198
v 0.421067 -0.3103103 0.4442207
v -2.30632 -3.626093 1.607167
v -2.783958 -3.626093 0.3957646
v -0.6034334 -0.1718644 -0.1234083
v -0.3542309 -0.1718644 0.499599
v 1.923206 -3.051542 -0.4972123
v 1.660159 -3.051542 -1.09253
v 0.04034039 -0.3587664 -0.1995536
v 0.1787867 -0.3587664 0.1050278
v -1.378731 -3.238444 0.9703155
v -0.9080148 -3.238444 1.420265
v 0.04726268 -0.372611 0.1880953
v -0.1880953 -0.372611 -0.04034039
v -1.70408 -3.812995 -0.9125506
v -1.932515 -3.812995 -0.06802957
v -0.1673285 -0.4072224 0.1880953
v -0.05657174 -0.4072224 -0.2480097
vt 0 1
vt 0.2509804 1
vt 0.2509804 0
vt 0 0
vt 0.2509804 1
vt 0.5019608 1
vt 0.5019608 0
vt 0.2509804 0
vt 0.5019608 1
vt 0.7490196 1
vt 0.7490196 0
vt 0.5019608 0
vt 0.7490196 1
vt 1 1
vt 1 0
vt 0.7490196 0
vt 0 1
vt 0.2509804 1
vt 0.2509804 0
vt 0 0
vt 0.2509804 1
vt 0.5019608 1
vt 0.5019608 0
vt 0.2509804 0
vt 0.5019608 1
vt 0.7490196 1
vt 0.7490196 0
vt 0.5019608 0
vt 0.7490196 1
vt 1 1
vt 1 0
vt 0.7490196 0
vt 0 1
vt 0.2509804 1
vt 0.2509804 0
vt 0 0
vt 0.2509804 1
vt 0.5019608 1
vt 0.5019608 0
vt 0.2509804 0
vn 0.5119425 0.5232517 -0.6812654
vn 0.5119425 0.5232517 -0.6812654
vn 0.5119425 0.5232517 -0.6812654
vn 0.5119425 0.5232517 -0.6812654
vn -0.6095178 0.6095178 -0.5069281
vn -0.6095178 0.6095178 -0.5069281
vn -0.6095178 0.6095178 -0.5069281
vn -0.6095178 0.6095178 -0.5069281
vn 0.5982087 0.4944963 0.6305711
vn 0.5982087 0.4944963 0.6305711
vn 0.5982087 0.4944963 0.6305711
vn 0.5982087 0.4944963 0.6305711
vn 0.3106547 -0.4544317 -0.8348566
vn 0.3106547 -0.4544317 -0.8348566
vn 0.3106547 -0.4544317 -0.8348566
vn 0.3106547 -0.4544317 -0.8348566
vn 0.109367 -0.5406979 0.8340771
vn 0.109367 -0.5406979 0.8340771
vn 0.109367 -0.5406979 0.8340771
vn 0.109367 -0.5406979 0.8340771
vn -0.9545825 -0.109367 -0.2771481
vn -0.9545825 -0.109367 -0.2771481
vn -0.9545825 -0.109367 -0.2771481
vn -0.9545825 -0.109367 -0.2771481
vn -0.7820502 0.552007 0.2892849
vn -0.7820502 0.552007 0.2892849
vn -0.7820502 0.552007 0.2892849
vn -0.7820502 0.552007 0.2892849
vn -0.7532948 -0.5694533 0.329044
vn -0.7532948 -0.5694533 0.329044
vn -0.7532948 -0.5694533 0.329044
vn -0.7532948 -0.5694533 0.329044
vn 0.5982087 -0.4831871 -0.6392782
vn 0.5982087 -0.4831871 -0.6392782
vn 0.5982087 -0.4831871 -0.6392782
vn 0.5982087 -0.4831871 -0.6392782
vn 0.8570072 -0.4544317 0.2429619
vn 0.8570072 -0.4544317 0.2429619
vn 0.8570072 -0.4544317 0.2429619
vn 0.8570072 -0.4544317 0.2429619
f 3/3/3 2/2/2 1/1/1
f 4/4/4 3/3/3 1/1/1
f 7/7/7 6/6/6 5/5/5
f 8/8/8 7/7/7 5/5/5
f 11/11/11 10/10/10 9/9/9
f 12/12/12 11/11/11 9/9/9
f 15/15/15 14/14/14 13/13/13
f 16/16/16 15/15/15 13/13/13
f 19/19/19 18/18/18 17/17/17
f 20/20/20 19/19/19 17/17/17
f 23/23/23 22/22/22 21/21/21
f 24/24/24 23/23/23 21/21/21
f 27/27/27 26/26/26 25/25/25
f 28/28/28 27/27/27 25/25/25
f 31/31/31 30/30/30 29/29/29
f 32/32/32 31/31/31 29/29/29
f 35/35/35 34/34/34 33/33/33
f 36/36/36 35/35/35 33/33/33
f 39/39/39 38/38/38 37/37/37
f 40/40/40 39/39/39 37/37/37
